<svg id="Ebene_1" data-name="Ebene 1" xmlns="http://www.w3.org/2000/svg" viewBox="0 0 224.3 382.9"><defs><style>.cls-1{fill:#1e1b1c;}.cls-2{fill:#1d1b1c;}.cls-3{fill:#1f1d1f;}.cls-4{fill:#0b0b0e;}.cls-5{fill:#070608;}.cls-6{fill:#1f1b1d;}.cls-7{fill:#0e0f11;}.cls-8{fill:#0b0a0b;}.cls-9{fill:#141214;}.cls-10{fill:#0c0a0c;}.cls-11{fill:#201d1f;}.cls-12{fill:#141314;}.cls-13{fill:#101012;}.cls-14{fill:#09080a;}.cls-15{fill:#2b292c;}.cls-16{fill:#040305;}.cls-17{fill:#221515;}.cls-18{fill:#06040d;}.cls-19{fill:#1f1e1f;}.cls-20{fill:#0d0c0f;}.cls-21{fill:#171617;}.cls-22{fill:#010103;}.cls-23{fill:#321c15;}.cls-24{fill:#060507;}.cls-25{fill:#050506;}.cls-26{fill:#06050e;}.cls-27{fill:#19181a;}.cls-28{fill:#0e0c0e;}.cls-29{fill:#131213;}.cls-30{fill:#1e1b1d;}.cls-31{fill:#080708;}.cls-32{fill:#0d0c0d;}.cls-33{fill:#060506;}.cls-34{fill:#0c0b0e;}.cls-35{fill:#111011;}.cls-36{fill:#050507;}.cls-37{fill:#1f1d1e;}.cls-38{fill:#060505;}.cls-39{fill:#050405;}.cls-40{fill:#040304;}.cls-41{fill:#060607;}.cls-42{fill:#211e20;}.cls-43{fill:#040407;}.cls-44{fill:#161518;}.cls-45{fill:#030203;}.cls-46{fill:#020204;}.cls-47{fill:#040303;}.cls-48{fill:#090a0d;}.cls-49{fill:#040404;}.cls-50{fill:#0a0a0c;}.cls-51{fill:#070709;}.cls-52{fill:#1d1b1d;}.cls-53{fill:#0b090a;}.cls-54{fill:#1d1a1b;}.cls-55{fill:#211f22;}.cls-56{fill:#04020b;}.cls-57{fill:#2b241f;}.cls-58{fill:#fcf993;}.cls-59{fill:#fbee85;}.cls-60{fill:#231f21;}.cls-61{fill:#201e20;}.cls-62{fill:#010104;}.cls-63{fill:#2d2523;}.cls-64{fill:#2d2524;}.cls-65{fill:#292322;}.cls-66{fill:#2e1f16;}.cls-67{fill:#865937;}.cls-68{fill:#2e1e14;}.cls-69{fill:#242225;}.cls-70{fill:#222021;}.cls-71{fill:#201d1e;}.cls-72{fill:#1e1c1d;}.cls-73{fill:#211d1e;}.cls-74{fill:#222022;}.cls-75{fill:#262121;}.cls-76{fill:#312a27;}.cls-77{fill:#242223;}.cls-78{fill:#2e2624;}.cls-79{fill:#1d1a1c;}.cls-80{fill:#26262a;}.cls-81{fill:#2c2c2f;}.cls-82{fill:#232121;}.cls-83{fill:#252527;}.cls-84{fill:#28282b;}.cls-85{fill:#232224;}.cls-86{fill:#211e1f;}.cls-87{fill:#2b2625;}.cls-88{fill:#201e1f;}.cls-89{fill:#232122;}.cls-90{fill:#252324;}.cls-91{fill:#242123;}.cls-92{fill:#fefefe;}.cls-93{fill:#467096;}.cls-94{fill:#0f0301;}.cls-95{fill:#5184b1;}.cls-96{fill:#232832;}.cls-97{fill:#538aba;}.cls-98{fill:#202024;}.cls-99{fill:#1a1a20;}.cls-100{fill:#54718e;}.cls-101{fill:#1f1e21;}.cls-102{fill:#222226;}.cls-103{fill:#1f1e20;}.cls-104{fill:#1e1d20;}.cls-105{fill:#232225;}.cls-106{fill:#2f2623;}.cls-107{fill:#1f1c1d;}.cls-108{fill:#221f21;}.cls-109{fill:#110f12;}.cls-110{fill:#fab654;}.cls-111{fill:#fcc55c;}.cls-112{fill:#1e1214;}.cls-113{fill:#fdcb5c;}.cls-114{fill:#301c18;}.cls-115{fill:#150e0d;}.cls-116{fill:#202125;}.cls-117{fill:#080608;}.cls-118{fill:#4e2b26;}.cls-119{fill:#fcf490;}.cls-120{fill:#fdc058;}.cls-121{fill:#fbae54;}.cls-122{fill:#0e0d0e;}.cls-123{fill:#000205;}.cls-124{fill:#b76d33;}.cls-125{fill:#2a2523;}.cls-126{fill:#c67a3a;}.cls-127{fill:#fdf688;}.cls-128{fill:#161516;}.cls-129{fill:#0a0809;}.cls-130{fill:#0f1013;}.cls-131{fill:#0d0c0e;}.cls-132{fill:#262526;}.cls-133{fill:#282426;}.cls-134{fill:#272528;}.cls-135{fill:#1f1e22;}.cls-136{fill:#212126;}.cls-137{fill:#100704;}.cls-138{fill:#292426;}.cls-139{fill:#653b28;}.cls-140{fill:#704128;}.cls-141{fill:#f9b96a;}.cls-142{fill:#faba6b;}.cls-143{fill:#f3ad63;}.cls-144{fill:#fcfa93;}.cls-145{fill:#f5ab63;}.cls-146{fill:#faf68f;}.cls-147{fill:#f2ab63;}.cls-148{fill:#202127;}.cls-149{fill:#150a13;}.cls-150{fill:#282120;}.cls-151{fill:#231f20;}.cls-152{fill:#eb9042;}.cls-153{fill:#1f1b1c;}.cls-154{fill:#221f1f;}.cls-155{fill:#e48c40;}.cls-156{fill:#211f21;}.cls-157{fill:#151315;}.cls-158{fill:#221f20;}.cls-159{fill:#211f20;}.cls-160{fill:#32475c;}.cls-161{fill:#1a1818;}.cls-162{fill:#111113;}.cls-163{fill:#131112;}.cls-164{fill:#252224;}.cls-165{fill:#04070a;}.cls-166{fill:#1d1c1d;}.cls-167{fill:#304458;}.cls-168{fill:#0d0b0c;}.cls-169{fill:#d6813c;}.cls-170{fill:#0e0d0d;}.cls-171{fill:#e5893e;}.cls-172{fill:#1b191a;}.cls-173{fill:#07070a;}.cls-174{fill:#141417;}.cls-175{fill:#d6d5d5;}.cls-176{fill:#575657;}.cls-177{fill:#191013;}.cls-178{fill:#302928;}.cls-179{fill:#dd853c;}.cls-180{fill:#fcc158;}.cls-181{fill:#131113;}.cls-182{fill:#181719;}.cls-183{fill:#d17d37;}.cls-184{fill:#171516;}.cls-185{fill:#0a080a;}.cls-186{fill:#262424;}.cls-187{fill:#211f1f;}.cls-188{fill:#151314;}.cls-189{fill:#100d10;}.cls-190{fill:#070506;}.cls-191{fill:#2b2728;}.cls-192{fill:#171719;}.cls-193{fill:#ce7d3c;}.cls-194{fill:#2b425a;}.cls-195{fill:#0f0e11;}.cls-196{fill:#080a0c;}.cls-197{fill:#070406;}.cls-198{fill:#2b2829;}.cls-199{fill:#151414;}.cls-200{fill:#070404;}.cls-201{fill:#09080c;}.cls-202{fill:#262223;}.cls-203{fill:#090708;}.cls-204{fill:#262324;}.cls-205{fill:#151214;}.cls-206{fill:#020101;}.cls-207{fill:#2c3d50;}.cls-208{fill:#1a1718;}.cls-209{fill:#111112;}.cls-210{fill:#0d0a0b;}.cls-211{fill:#100e0e;}.cls-212{fill:#171517;}.cls-213{fill:#213a55;}.cls-214{fill:#191819;}.cls-215{fill:#121013;}.cls-216{fill:#8c8a88;}.cls-217{fill:#0b0909;}.cls-218{fill:#181616;}.cls-219{fill:#0e0d0f;}.cls-220{fill:#100e0f;}.cls-221{fill:#030305;}.cls-222{fill:#354a60;}.cls-223{fill:#0a090a;}.cls-224{fill:#273747;}.cls-225{fill:#3f6283;}.cls-226{fill:#3c5e7d;}.cls-227{fill:#3d5d7d;}.cls-228{fill:#568ab9;}.cls-229{fill:#487095;}.cls-230{fill:#29333f;}.cls-231{fill:#0d0200;}.cls-232{fill:#1f2024;}.cls-233{fill:#1f2025;}.cls-234{fill:#21232a;}.cls-235{fill:#5388b7;}.cls-236{fill:#110704;}.cls-237{fill:#0b0201;}.cls-238{fill:#e28942;}.cls-239{fill:#df8843;}.cls-240{fill:#d7813e;}.cls-241{fill:#fcc357;}.cls-242{fill:#3d271e;}.cls-243{fill:#f0a95d;}.cls-244{fill:#fdd47b;}.cls-245{fill:#db8442;}.cls-246{fill:#c96c2f;}.cls-247{fill:#528bc3;}.cls-248{fill:#faf79f;}.cls-249{fill:#eca358;}.cls-250{fill:#f9b96b;}.cls-251{fill:#f5b367;}.cls-252{fill:#e99c52;}.cls-253{fill:#fdcf7e;}.cls-254{fill:#cf7737;}.cls-255{fill:#020109;}.cls-256{fill:#2e2521;}.cls-257{fill:#2a2220;}.cls-258{fill:#26211e;}.cls-259{fill:#1f1c1e;}.cls-260{fill:#fcbe58;}.cls-261{fill:#d6803e;}.cls-262{fill:#ea8f43;}.cls-263{fill:#e48d45;}.cls-264{fill:#e8964d;}.cls-265{fill:#d78040;}.cls-266{fill:#fdc459;}.cls-267{fill:#fdcf5f;}.cls-268{fill:#fbce5b;}.cls-269{fill:#c3743c;}.cls-270{fill:#fdc95b;}.cls-271{fill:#f7b365;}.cls-272{fill:#180e0d;}.cls-273{fill:#fdd984;}.cls-274{fill:#fce483;}.cls-275{fill:#f6ab63;}.cls-276{fill:#fdfb94;}.cls-277{fill:#f3ad64;}.cls-278{fill:#fcfc96;}.cls-279{fill:#f4b065;}.cls-280{fill:#fcc26f;}.cls-281{fill:#fdcc75;}.cls-282{fill:#fdd077;}.cls-283{fill:#fafc97;}.cls-284{fill:#f2ad64;}.cls-285{fill:#fccc5e;}.cls-286{fill:#070813;}.cls-287{fill:#f8b552;}.cls-288{fill:#ebeaea;}.cls-289{fill:#f1f1f0;}.cls-290{fill:#181618;}.cls-291{fill:#1b1718;}.cls-292{fill:#191517;}.cls-293{fill:#161213;}.cls-294{fill:#fcfcfc;}.cls-295{fill:#252121;}.cls-296{fill:#0c0b0d;}.cls-297{fill:#141112;}.cls-298{fill:#181617;}.cls-299{fill:#0d0d11;}.cls-300{fill:#0c0c11;}.cls-301{fill:#262426;}.cls-302{fill:#282427;}.cls-303{fill:#262325;}.cls-304{fill:#e08940;}.cls-305{fill:#e28a41;}.cls-306{fill:#db8640;}.cls-307{fill:#e38e45;}.cls-308{fill:#272424;}.cls-309{fill:#fafafa;}.cls-310{fill:#232020;}.cls-311{fill:#0b0c0f;}.cls-312{fill:#161212;}.cls-313{fill:#e2e1e1;}.cls-314{fill:#0f0d10;}.cls-315{fill:#100d0f;}.cls-316{fill:#171618;}.cls-317{fill:#161316;}.cls-318{fill:#2e292a;}.cls-319{fill:#302c2c;}.cls-320{fill:#de8740;}.cls-321{fill:#d47e3b;}.cls-322{fill:#252223;}.cls-323{fill:#40668c;}.cls-324{fill:#19191b;}.cls-325{fill:#201f22;}.cls-326{fill:#404042;}.cls-327{fill:#eb8e41;}.cls-328{fill:#e18a41;}.cls-329{fill:#5689b7;}.cls-330{fill:#3e6182;}.cls-331{fill:#497296;}.cls-332{fill:#374e67;}.cls-333{fill:#4f80af;}.cls-334{fill:#3c5d7d;}.cls-335{fill:#3d5d7c;}.cls-336{fill:#e08942;}.cls-337{fill:#d3702d;}.cls-338{fill:#db803f;}.cls-339{fill:#fdcc5d;}.cls-340{fill:#fed17b;}.cls-341{fill:#fdd582;}.cls-342{fill:#d46f29;}.cls-343{fill:#ca6626;}.cls-344{fill:#d5742c;}.cls-345{fill:#d77531;}.cls-346{fill:#d67c3d;}.cls-347{fill:#fcb752;}.cls-348{fill:#dd7d36;}.cls-349{fill:#e18941;}.cls-350{fill:#db813c;}.cls-351{fill:#2e2524;}.cls-352{fill:#f3d174;}.cls-353{fill:#fcc258;}.cls-354{fill:#2d2625;}.cls-355{fill:#3c5c7d;}.cls-356{fill:#d57f3e;}.cls-357{fill:#e48d43;}.cls-358{fill:#e38a40;}</style></defs><path class="cls-1" d="M167.9,157.1h-1.5c-1.3-1.4-1-3.2-1-4.9-.1-10.4,0-20.7-.1-31.1a3.1,3.1,0,0,0-.5-1.2c-2.3-1.3-4.8-.5-7.2-.6s-7.7.4-11.5-.4a3.1,3.1,0,0,1-1.1-.9c-.8-5.9-1.1-11.9.2-17.8,1.3-1.2,3-1,4.6-1,4.8-.1,9.7,0,14.5,0h1.2l1-.7c.8-4.3.3-8.6.3-12.9,0-7.6.3-15.1-.1-22.6a3.9,3.9,0,0,0-.6-1.1,3.6,3.6,0,0,0-1.5-1.5c-3.4-.7-6.8.1-10.2-.6a3.1,3.1,0,0,1-2.4-3.3c.4-8.4-.6-16.9.1-25.3.1-1.5-.7-2.8-.7-4.3s2.1-1.3,3.2-1.4c2.8-.3,5,1.5,7.8,1.8s1.8,2.4,1.8,4.1-.4,5.5.4,8.1-.3,3.3,1.9,3.8a20.8,20.8,0,0,1,4.3.3c2.2,1.2,4.5.7,6.8.6s4.8-1.2,5.9,2c.1,35.5.2,70.9,0,106.3a3.1,3.1,0,0,1-.6,1.3c-5.1,1.1-10.3,1.9-15.3-.4-.2-11.1,0-22.1-.1-33.1V152c-.2,1.4.7,2.3,1.2,3.3S168.7,156.7,167.9,157.1Z"/><path class="cls-2" d="M201.5,291.3h-.8c-3.9-.7-8,.1-11.9-.5.1-2.3,1.9-.8,2.9-1.3-5.6.2-5.9,1.4-6.1-5.9-.4-9.1.3-18.2-.4-27.3V255c.6-13.8.3-27.5.2-41.3a5,5,0,0,1-.2-1.2c1-5-.4-10.3,1.6-15.2,1.7-.6,3.4-.3,5-.3s2.1,1.9,3.8,2.1c3.7.5,6.3,2.3,6.2,6.6,1,2.2.6,4.4.6,6.7.1,25.1.4,50.2-.1,75.3A5.7,5.7,0,0,1,201.5,291.3Z"/><path class="cls-1" d="M31.2,291.3H27.4c-2.1-.6-4.3-.1-6.4-.3s-.1-1.4.6-1.5,2.1.1,3.2,0H22.7c-1.7-2.9-3.5-5.8-2.1-9.5a5.1,5.1,0,0,0,.3-2.1v-1.1a6.2,6.2,0,0,0-1.4-4.1c-.9-1.2-1.5-2.3-.3-3.6s.8-1.1.5-1.4c-2.2-2.4-.5-4.4.4-6.7a7.1,7.1,0,0,0-.9-7.1c-.9-1.1-1.2-2.2,0-3.3a1.4,1.4,0,0,0,.6-1.3c-.9-5.7.4-11.3.9-17,.1-1.2-.5-1.8-2-1.6a2.4,2.4,0,0,1-2.7-2.1c-.1-1.4,1.2-1.4,2.1-1.7s2.3-1.3.7-2.5-1.2-2,0-3.3,2.2-7.1.7-9.5c-.4-.7-.8-1.3-.4-2a24.1,24.1,0,0,0,2.1-10.5,2.4,2.4,0,0,1,1.2-1.9,7,7,0,0,1,2.5-.5c5.1-.2,5.4,0,5.9,4.5,0,2.4,1.3,4.8-.3,7.1-.6.2-1.7.1-1.7.7.1,3.4-2.5,7,.6,10.2,1,1,.8,1.9.2,3-1.8,3.1-1.6,6.4-.3,9.6.2.5.7,1.1.5,1.4-2.4,2.6,1,3.5,1.5,5.2.5,7.4.1,14.8.2,22.1,0,9.8-.1,19.6.1,29.4A2.3,2.3,0,0,1,31.2,291.3Z"/><path class="cls-3" d="M49.7,311.2a.5.5,0,0,1-.6-.4,74.2,74.2,0,0,0-14.9,0l-1.6-.6c1-4.2.3-8.4.5-12.6.2-1.8-.6-3.8.5-5.6a11,11,0,0,1,5.4.3c1.6,1,1.5,2.7,1.5,4.3a37.6,37.6,0,0,0,0,7.5c.4,3.9.9,4.1,4.7,2.2,1.8-1.7,4.2-2.7,6.2-4.2l.6-.8a29.5,29.5,0,0,0,2.2-3.2c-2.2,2.9-3-1.2-4.7-.6-1.6-1.2-3.4-2.4-2.5-4.9,1.3-.9,2.9-.6,4.3-1s3.8-.2,5.8.1a1.5,1.5,0,0,1,.6.9c1.1,2.3,1.1,4.5-.8,6.4s-1,5.8.2,7.3.7,2.6.4,3.9a19.3,19.3,0,0,0-.4,7.2c.6,3.6.5,7.4.8,10.9s-.7,5.9-.3,8.8c.2,1.4.2,2.8-1.7,3s0,.3.1.3,1.3,1.7.1,2.6a3.5,3.5,0,0,0-.8,1.3c.4-.4.4-1.1.9-1.5,2.1,0,1.8,1.4,1.5,2.6a12.6,12.6,0,0,1-1.5,3.8c-.8,1.1-.1.8.5,1.3s.6,3.2-.5,4.1-1.3,2.4.3,3.5,2.4,2.3,2.3,3.2c-.3,3.2,2.8.7,3.3,2.2,1.7-2.2,4.9-.9,6.8-3.3s4.9-2.3,6.6,1.5c.8,1.8,1.4,3.9,4.1,3.5.7-.2,1.4.1,1.7-1.3s3.2-.7,4.3-2.1,2.5-1.1,4.4-.5,5.1,2,7.7,2.9,3.9-1.9,5.5-3.6.8-2.7,2.5-1.2.5,3.7.9,5.6-2.1,2.8-4.2,2.8H52.5a2.4,2.4,0,0,1-2-1.3,54.3,54.3,0,0,0-.1-11.4,1.6,1.6,0,0,1,.1-1c.4-2.5,0-4.9.1-7.3V322.9c-.2-1.9.8-3.8-.1-5.7a3.2,3.2,0,0,1-.2-1.4,2.9,2.9,0,0,1,.2-.9,3,3,0,0,0-.2-2.6,3.1,3.1,0,0,0-.1-1c0-.2.1-.5-.1-.5S50,311.1,49.7,311.2Z"/><path class="cls-4" d="M182.8,153.5V44.7c-1.7-.6-3.6,0-5.3-.7,1.2-2.6,3.7-.2,5.3-1.4.5,1.2,1.4,2.3,1.4,3.4q.2,41.6.1,83.1c0,7.7-.1,15.3-.1,22.9C183.7,152.5,184.2,153.8,182.8,153.5Z"/><path class="cls-5" d="M69.3,23.1c31.4,0,62.8-.1,94.1,0,.7,0,1.4.9,2.1,1.4a3.5,3.5,0,0,1-1.9,1c-11.2-.1-22.3.1-33.4.1-18.6-.1-37.2,0-55.8.1a14.3,14.3,0,0,1-4.1-.4,2.8,2.8,0,0,1-1.2-.8A1.8,1.8,0,0,1,69.3,23.1Z"/><path class="cls-6" d="M165.6,158.7v.8a20.6,20.6,0,0,0,0,8.2v3c-.8,1.2.2,2.8-.8,3.9a.9.9,0,0,1-1-.4c-.6-3.3.5-6.5-.5-9.5-.9.8.4,2.1.5,3.2.3,3.7-.3,4.5-4,4.4s-6.7.5-7.5-4-.5-6.9,1.1-10.1c3.3-1,6.8-.2,10.2-.7A1.9,1.9,0,0,1,165.6,158.7Z"/><path class="cls-7" d="M49.1,62.1a1.2,1.2,0,0,1,1.6.2,2.5,2.5,0,0,1-2.2,2.1c-3,.3-6,0-9,.2-4.9.2-4.9.2-5,5,0,2.8.1,5.6,0,8.5-.1,5.1,0,10.2,0,15.3v11.8c0,2.5-.1,4.9,0,7.4a2.8,2.8,0,0,1,0,1.3c-.1,3.6,0,7.1,0,10.6a2.9,2.9,0,0,1,0,1.3q-.2,4.8,0,9.6c1.1,2.4,3,1.1,4.7,1l1-.3a18.2,18.2,0,0,1,5.7.2c1.2.4,2.7.3,3.8,1.2s.3,1.1-.6,1H34.6c-1.8,0-2.6-.4-2.6-2.5V64.3a5.2,5.2,0,0,1,.6-1.6C38.1,61.8,43.6,62.9,49.1,62.1Z"/><path class="cls-8" d="M185.8,211.9v.8c.8,2.4.3,4.9.4,7.4v31.6c0,1.3.3,2.5-.4,3.7v.8c.8,8.1.1,16.3.4,24.5.1,3.1-.5,6.2.5,9.2a2.3,2.3,0,0,1-.1,1.4l-2.2.2a3.8,3.8,0,0,1-.9-1.3,13.6,13.6,0,0,1-.4-4V206.8c0-1.7-.1-3.5.8-5.1a1.5,1.5,0,0,1,2-.4A34.3,34.3,0,0,1,185.8,211.9Z"/><path class="cls-9" d="M51.4,367.1h50.9c2.2,0,4.1,0,3.6-3-1.7-9.9-.8-19.8-1.2-29.7-.2-.7-.4-1.7-1.2-1.7-4.7-.5-9.5-1.5-14.1.6-.9,4.8-.1,9.6-.5,14.4a3.3,3.3,0,0,1-1,2.3,1.9,1.9,0,0,1-1.3.1,2.4,2.4,0,0,1-.8-.9,5,5,0,0,1-.2-1.2,16,16,0,0,1,.2-4.9,15.1,15.1,0,0,0-.1-7.9c-.2-1.8-.6-3.6.8-5.1,3.9-1.5,8-.5,12-.8a50.5,50.5,0,0,1,5.5.1,4,4,0,0,1,1.9.3,1.6,1.6,0,0,1,.9.7c.5,1.4-.1,3,.5,4.5v31.4a5.2,5.2,0,0,1-.6,1.6,4.3,4.3,0,0,1-2.5.3H53.4c-.9,0-2,.3-2.8-.5S50.8,366.9,51.4,367.1Z"/><path class="cls-10" d="M184.3,349l8.2.2c3.5.8,7.1-.3,10.5.6.1,6.1.1,12.1.1,18.1a5.7,5.7,0,0,1-2.9.3H129.7a5.7,5.7,0,0,1-2.9-.3h0c-.8-4.3-.3-8.7-.3-13-.1-7.3-.2-14.6,0-22,.4-.4.8-.5,1.2-.2s.9,3.1.9,4.7v25.7c-.1,2.2,1.1,3.1,3.2,3s2.2,0,3.3,0h5c4.3-.2,8.6.2,13,0s8.8.1,13.2,0H196c4.8,0,5.1-.3,5.1-5,0-10.5.9-9-9.1-9.1a22.5,22.5,0,0,0-2.6,0c-1.5-.2-3.1,0-4.6-.6a1.4,1.4,0,0,1-.8-.9A1.9,1.9,0,0,1,184.3,349Z"/><path class="cls-11" d="M67.7,157.3l-2.1-.2c-3.8-1.4-7.6-.4-11.5-.6s-4.2-.4-4.2-4.3-.1-8.2,0-12.3c.2-1.1.4-2.5,1.5-2.8s1.7,1.2,2.4,1.9a7.3,7.3,0,0,0,2.2,2.1,1.7,1.7,0,0,1,.9,2.2c-1,1.9-.1,3.9-.3,5.5-.7,4.1,1.4,3.8,4,3.8s4.2-.8,6.1.8a2.7,2.7,0,0,1,.7.8C67.9,155.2,68.5,156.2,67.7,157.3Z"/><path class="cls-12" d="M185.8,201.4h-1.4c-1.4-1.4-1.1-3-.5-4.7a1,1,0,0,1,.4-.5h14.9c1.2.1,2.5.6,3.8.8s.3,1.7.4,2.6V288a4.3,4.3,0,0,1-.4,2.5l-.7.2c-1-4.6-.4-9.4-.4-14.1q0-33.8-.1-67.6c0-3.1.4-6.5-1.3-9.4s-5.5-.3-7.9-1.9h-6C186,198.9,186.6,200.3,185.8,201.4Z"/><path class="cls-13" d="M63.3,176.1h1.5c3.2-.2,4.3,1.5,4,4.4a22.8,22.8,0,0,0,.2,2.6c-.1,1.8.3,3.6.1,5.4s1,6.3-2.5,8.3c-6.1,1.1-12.3.5-18.5.5s-9.9.6-14.8-.5a1.6,1.6,0,0,1-.8-1,3.1,3.1,0,0,1,1.3-1.7c3-.9,6.1-.4,9.2-.4H61.6c1.4,0,2.8.4,3.8-.9,1-3.7.4-7.5.5-11.2s-1.9-2.9-3.9-2.9H39.6c-2,0-4.1.3-6.2-.4a2.4,2.4,0,0,1-.9-1.1c1.1-1.3,2.6-.6,3.8-.6C45.3,176.1,54.3,176.6,63.3,176.1Z"/><path class="cls-14" d="M184.3,349v.9c-1.3.7-1.8-.2-2.2-1.1a11.7,11.7,0,0,1-.4-3.7c.1-16.2-.3-32.3.4-48.5.1-2.6-.6-4-3.4-4.1a5.3,5.3,0,0,1-3.2-.8,1,1,0,0,1-.1-1.3,9.6,9.6,0,0,1,8.9.2v.9c-.1,9.7-.2,19.4-.2,29.1a28.9,28.9,0,0,0,0,8.3v3.7a11.9,11.9,0,0,0,0,5.3v.7a19.4,19.4,0,0,0,0,6.8Z"/><path class="cls-15" d="M201.5,197.7a20.3,20.3,0,0,1,.7,4.3c.1,29.6.1,59.1.1,88.7l-.8.6c0-21.2.1-42.3,0-63.5-.1-7.8-.5-15.6-.7-23.4a4.3,4.3,0,0,0-.1-3.5A2.7,2.7,0,0,1,201.5,197.7Z"/><path class="cls-16" d="M12.7,232.2v-5.3a2.1,2.1,0,0,1,2.2,1.6c.9,6.5.3,13.2.4,19.8.1,4.6.1,9.2-.1,13.8-.2,9.3.3,18.6-.3,28a4.2,4.2,0,0,1-.8,1.2c-.5-.6-1.3-1.1-1.4-1.6a20.6,20.6,0,0,1,.1-4.3,7.7,7.7,0,0,0-.1-4.5v-7.5a18.9,18.9,0,0,0,0-6.7v-5.3a11.4,11.4,0,0,0,0-5.2v-9.1a33.2,33.2,0,0,0,0-8.9v-2.3A5.9,5.9,0,0,0,12.7,232.2Z"/><path class="cls-17" d="M67.7,157.3l-.7-3.1c-1.2-1.4-1-3-1-4.6V125.7c0-1.5.3-3-1-4.2-3.2-1.3-6.5-.4-9.8-.6s-4.2.3-6-1a.9.9,0,0,1,.2-1.3c5.9-1.4,11.8-.7,17.7-.4,2.5.1,2.4,2.5,2.5,4.4v31.7a6.2,6.2,0,0,1-.1,1.3,5.9,5.9,0,0,1-.2,1.3c-.3.6-.6,1.1-1.4,1.1A1.4,1.4,0,0,1,67.7,157.3Z"/><path class="cls-15" d="M203,290.5V197c.2,4.1.6,8.1.6,12.2.1,26.2,0,52.5,0,78.7A11,11,0,0,1,203,290.5Z"/><path class="cls-18" d="M57.3,292.2H51.4a45.2,45.2,0,0,1-17.2,0l-.8,5.2a.4.4,0,0,1-.7,0l-1.5-6.1v-.7a.5.5,0,0,1,.1-.9,2,2,0,0,1,1.1-.2H64.1a7,7,0,0,1,3.2.5c.8.4.8,1,.3,1.6a4.2,4.2,0,0,1-1.5,1.1,11.5,11.5,0,0,1-2.6.3C61.5,293,59.2,293.7,57.3,292.2Z"/><path class="cls-2" d="M126.8,367.9h76.3a60.2,60.2,0,0,1-6.1.5c-22.8.1-45.7,0-68.6,0A9.8,9.8,0,0,1,126.8,367.9Z"/><path class="cls-19" d="M69.3,23.1v.6c.2,2.1-.7,4.2-.4,5.9-.3-.4.1-1.2.2-2a1.4,1.4,0,0,1,1.4-.6c2,.7,3.4,1.6,1.9,4a2.3,2.3,0,0,0,.1,2.8c2.8,3.2-1,5-1.6,7.5-.1.4-1.1.2-1.7-.1s.1-.6-.4-.6a1.1,1.1,0,0,1-.3,1.3c-.2-5.8-.4-11.7-.5-17.5C68,24,68.9,23.5,69.3,23.1Z"/><path class="cls-20" d="M164.2,174.5h.7a2.7,2.7,0,0,1,.7.8l5.3.9a52.4,52.4,0,0,0,11.2,0c.7.6,2.1,1.2,2.1,1.8.1,5.8,0,11.7-.1,17.5a1.1,1.1,0,0,1-1.7-.2,6.1,6.1,0,0,1-.5-1.2c-.4-4.7,0-9.3-.2-13.9-.1-1.8-1.4-1.6-2.7-1.6-4.1-.1-8.3.3-12.4-.2l-1.1-.4-.5-.4a4.1,4.1,0,0,1-1.2-1.4A1.6,1.6,0,0,1,164.2,174.5Z"/><path class="cls-21" d="M50.6,138.5c0,4.8.1,9.6,0,14.4,0,2.1.7,2.9,2.8,2.8s6.1-.1,9.2.1c1,0,2,.8,3,1.3H63.3a10.2,10.2,0,0,0-5.2,0c-8.8.5-8.7.5-8.8-8.3,0-3.4-.1-6.9-.2-10.3l.8-.8h.5c.2.1.4.3.3.5S50.7,138.5,50.6,138.5Z"/><path class="cls-22" d="M67.9,158l.7-.7c1.3-1.3,2.9-1.2,4.5-1.1,4.3.3,8.6-.9,12.8.8,1.2,1.6.9,3.6.8,5.4-.2,4.8.9,9.6-.7,14.3-5.4,2-10.9,1.4-16.3.4.3-1.9.3-2,2.4-2.1s5.9-.1,8.9-.1,3-.7,2.9-2.8c-.1-4,.3-8-.2-12.1-1.2-1.7-3.1-1-4.7-1s-5.6-.6-8.3.5c-.7,1.2-.3,2.6-1.2,3.7a.7.7,0,0,1-1,0Z"/><path class="cls-23" d="M166.3,119.4c0,12.6.1,25.2.1,37.7l-.2.3h-.3c-6.7.8-13.3,1.3-20,.4a1.1,1.1,0,0,1-.6-1.2c1.2-1.3,2.7-1.1,4.2-1.1h11.8c1.8,0,3.3-.2,3.3-2.5,0-9.5-.1-19.1,0-28.6C164.6,122.5,164.1,120.4,166.3,119.4Z"/><path class="cls-3" d="M50.6,367.1a34.9,34.9,0,0,0,4.3.7h51.8a4.3,4.3,0,0,1-1.6.5H52.8c-1,0-1.9-.8-2.9-1.2S50.4,366.8,50.6,367.1Z"/><path class="cls-24" d="M14,227.7l-1.4-.8v-1.5a41,41,0,0,0-.1-10.5c0-5.6.1-11.2-.1-16.7-.1-2.5.8-3.2,3-2.6.2.1.2.3.2.5s0,.3-.1.3a4.2,4.2,0,0,0-.6,1.9c0,1.4.1,2.7.2,4.1-.2,6.8.1,13.6,0,20.4C15.2,224.5,15.4,226.3,14,227.7Z"/><path class="cls-25" d="M50.6,354.3v.8c.8,2.6.3,5.2.3,7.8a.6.6,0,0,1-.9.5c-.1-16-.1-32-.1-48a.4.4,0,0,1,.7,0v1.5c.9,1.5.2,3.2.3,4.7v25.9C50.7,349.8,51.5,352.1,50.6,354.3Z"/><path class="cls-26" d="M145.5,157.2h20.4l-.3,1.4-1.5-.7c-4.5.9-9.2-.3-13.8.9-.9.3-1.9.3-2.5,1.2a7.1,7.1,0,0,0-.5,2.9c0,3.3-.1,6.5,0,9.7a5.4,5.4,0,0,1-.9,3.9.8.8,0,0,1-1.2-.1C144.2,170,143.5,163.6,145.5,157.2Z"/><path class="cls-27" d="M126.9,332.6c0,11.8-.1,23.5-.1,35.3a38.7,38.7,0,0,1-.6-4.6c-.1-11-.2-21.9-.2-32.9C127.8,330.5,127.3,331.6,126.9,332.6Z"/><path class="cls-28" d="M164.2,24.5h1.3c.1,4.9.1,9.9.2,14.8a13,13,0,0,0,.7,3.3.6.6,0,0,1,.2.7c-.2.3-.7.4-.9.7l-1.5-4.5a2.2,2.2,0,0,1-.3-2.2c.5-1.6.1-3.1-.2-4.7S162.1,27.1,164.2,24.5Z"/><path class="cls-29" d="M63.3,176.1a37.8,37.8,0,0,1-4.7.6H36.3a18.7,18.7,0,0,0-3.4.8.8.8,0,0,1-.3.9c-1.2-2.4.3-2.4,2-2.4Z"/><path class="cls-30" d="M68.5,163.2h.8c1.8,2.1.9,4.7,1,7.1s.9,3.9,3.7,3.9h7.7l1-.4c.8-.3.9-1.9,2.3-1.5.4,2.9-.6,3.9-3.7,3.8s-8,.4-12,.6a.6.6,0,0,1-1-.2,8.6,8.6,0,0,1,.2-3.9Z"/><path class="cls-31" d="M15.5,196.2v-.6l13.8-.2a20.2,20.2,0,0,0,3.3-.9.5.5,0,0,1,.3.5.4.4,0,0,1-.1.3v1a1.2,1.2,0,0,1,.2,1c-.5.7-.8,1.8-2,1s-2.4-.7-3.5-1.3a66,66,0,0,0-7.7.2C18.2,197.2,16.7,197.4,15.5,196.2Z"/><path class="cls-32" d="M50.6,62h-.9c-.1-5.7-.1-11.4-.3-17-.1-2.2.9-2.6,2.7-2.3a.8.8,0,0,1,.2.8l-.6,1.3a12.1,12.1,0,0,0-.1,1.9c0,1.7,0,3.4.1,5.1v6.2a8.8,8.8,0,0,1-.6,3.6Z"/><path class="cls-33" d="M52.1,43.2v-.6H65l3.5-.6.5-3.5.3,2.6a1.9,1.9,0,0,1,.5,1.6,1.7,1.7,0,0,1-.6,1,4.9,4.9,0,0,1-1.7.6c-2.4.2-4.7-.2-7.1.3a2.4,2.4,0,0,1-1.2,0C56.9,43.8,54.2,45.1,52.1,43.2Z"/><path class="cls-34" d="M182.8,153.5l1.4-1.5c.3,5.2.3,5.2-4.8,5.2h-8.5c1.1-2.7,3.5-1.2,5.4-1.7h1.6c1.2-.1,2.3.2,3.4-.4l1.5-1.7Z"/><path class="cls-35" d="M108.9,330.3h-1.5a.4.4,0,0,1-.7,0h-.1a2,2,0,0,1-.2-2.2,1.9,1.9,0,0,1,1-.5h1.9c5.1.3,10.2-.4,15.4.4a1.6,1.6,0,0,1,.8,1,1,1,0,0,1-.9.8C119.4,330.2,114.1,329.6,108.9,330.3Z"/><path class="cls-36" d="M32.8,195.3l-.2-.8V178.4l.3-.9h.6c2.1,3.8.7,7.9,1.1,11.9-.3,1.8.3,3.8-1.2,5.4Z"/><path class="cls-6" d="M182.8,195.3h1.3c.1.3.1.5.2.8h.1c-1.2,1.1-2.7,1.2-4.2,1.3-3.6,0-7.2.1-10.7-.1-1.5-.1-3.4.3-3.9-1.9,1.5-1.4,3.5-1.1,5.2-1C174.8,194.7,179,193.4,182.8,195.3Z"/><path class="cls-37" d="M49.1,62.1l-16.5.6Z"/><path class="cls-38" d="M108.9,330.3l16.4-.7a.6.6,0,0,1,.2.5c-.1.1-.1.2-.2.2Z"/><path class="cls-39" d="M34.2,310.8h0Z"/><path class="cls-40" d="M186.6,291.3v-.7a1.6,1.6,0,0,1,2.2,0l11.9.7Z"/><path class="cls-41" d="M14,291.3v-.7a5.7,5.7,0,0,1,6.7,0l6.7.7Z"/><path class="cls-42" d="M68.5,172.5v4.3c1.4,2.2,1.6,4.5-.2,6.6-.2-1-.7-2.1-.5-3,.4-2.6-.9-3.7-3.1-4.3C67.8,176.7,68.2,174.7,68.5,172.5Z"/><path class="cls-43" d="M32.7,297.4h.7c-.2,4.2-.5,8.5-.8,12.8C32.6,305.9,32.7,301.6,32.7,297.4Z"/><path class="cls-44" d="M176.9,156.4l-6,.7h-3l.7-1.4a2.6,2.6,0,0,1,1.1-.7,14.7,14.7,0,0,1,6.9.3A.8.8,0,0,1,176.9,156.4Z"/><path class="cls-6" d="M182.1,176.1h0Z"/><path class="cls-2" d="M203,349.8l-10.5-.6Z"/><path class="cls-16" d="M12.6,214.9v0Z"/><path class="cls-45" d="M166.4,43.3v-.7h9a.9.9,0,0,1-.5,1.1C172,44.5,169.2,43.5,166.4,43.3Z"/><path class="cls-46" d="M12.7,238.2v0Z"/><path class="cls-47" d="M175.4,43.2v-.6h7.4L177.6,44a1.1,1.1,0,0,1-.8.3A2.2,2.2,0,0,1,175.4,43.2Z"/><path class="cls-25" d="M184.2,328.9v0Z"/><path class="cls-48" d="M165.6,167.7v0Z"/><path class="cls-46" d="M12.7,266.7v0Z"/><path class="cls-49" d="M184.2,345.4v0Z"/><path class="cls-50" d="M50.6,315.4h-.7l-.2-4.2.9,1.2a2.6,2.6,0,0,1,0,3Z"/><path class="cls-46" d="M12.7,256.2v0Z"/><path class="cls-51" d="M58.1,157.1h0Z"/><path class="cls-25" d="M184.2,337.9v0Z"/><path class="cls-52" d="M106.7,330.4h.7c0,1.5-.1,3-.1,4.5Z"/><path class="cls-46" d="M12.6,280.9v0Z"/><path class="cls-53" d="M165.6,175.2l-.7-.8c.2-1.2.4-2.4.7-3.7Z"/><path class="cls-35" d="M125.3,330.3v-.7h0a1.8,1.8,0,0,1,2.5,0,2.2,2.2,0,0,1-.3,3h-.6l-.9-2.2Z"/><path class="cls-12" d="M50,363.4h.6a2,2,0,0,1,.1,2.3,10.1,10.1,0,0,0,.7,1.5H49.9Z"/><path class="cls-46" d="M12.7,232.2v0Z"/><path class="cls-54" d="M151.5,26.8a14.7,14.7,0,0,1,1.4,4c.3,7.2.3,14.3.5,21.5,0,2.3.2,4.5.3,6.7-1.5,1.5-3.4,1-5.2,1-3.6,0-7.1.2-10.6-.1-1.9-.4-2.1-2.3-3.1-3.5-.4,1.1,2.6,2.1.1,3.3a26,26,0,0,1-8.8,0,2.1,2.1,0,0,1-1.5-2.9c.4-1,1.3-.9,2.2-.6s1.3-.7,1.3-1.5.9-2.5,2.5-2.8c3.2-.6,6.4-.1,9.5.2s-.1,2.3.1,3.6,3.2-.3,5,.2c-.5-1.1-2.5-1.8-.8-3.3s2-5.6.8-8.5-1-2.4.4-3.4a2.5,2.5,0,0,0,1.1-3.3c-1-2-.4-4.1-.4-6.2s1.6-4.8,4.7-4.8Z"/><path class="cls-55" d="M164.2,37.2v2.3c-.4-2.5-1.1-5-1-7.5s0-4.5-4-4.6c-2.4,0-5-1.5-7.7-.6h0a1.5,1.5,0,0,0-2-.5c-3.7,2-7.6,1.1-11.5,1.2s-10-1-15-.3a13.2,13.2,0,0,0-7.1,0h-1.1c-1.7-.7-3.5-.2-5.3.1L107,27c-2.1.2-4.2-1.3-6.2,0-4.4.4-8.8.6-13.2,1.4-1.7.4-4-.3-5.6-.8s-5.7-.3-8.5.4c-.8-.1-1.4-.8-2.3-.5H69.3a2.9,2.9,0,0,1,0-3h94.9v9A4.7,4.7,0,0,1,164.2,37.2Z"/><path class="cls-56" d="M165.6,59.7l.8,1.5-.6.4h-74c-2,0-4,.4-5.8-.8a.7.7,0,0,1,0-1.2c1.4-1,3.1-.8,4.7-.8,9.9,0,19.8-.5,29.7.1,14.5.9,29,.3,43.4.6A3.4,3.4,0,0,1,165.6,59.7Z"/><path class="cls-57" d="M165.6,59.7H85.7c.7-2.4,2.7-1.8,4.3-1.8,5.2-.1,10.4-.2,15.6,0,1.4-.2,2.8.1,4.2,0,3.8-.2,7.6-.1,11.4-.1a5.6,5.6,0,0,1,4.1,1.2h10.5c.2-.4.5-.4.7,0h17.2Z"/><path class="cls-58" d="M166.3,119.4c-.2,5-.4,10.1-.5,15.1s-.1,12.6-.2,18.9a.8.8,0,0,1-1.2-.3c-1-2.5-.5-5.2-.5-7.7-.1-7.1,0-14.1-.1-21.2a4.9,4.9,0,0,0-.1-1.2c-.1-2.4-1.9-2.2-3.5-2.2H146.5l-1.2-.3a1.9,1.9,0,0,1-1.4-1.7,1,1,0,0,1,.7-.8.8.8,0,0,1,.9.4h.3c5.8.7,11.5.1,17.3.3,1.1.1,2.5-.7,3.3.8Z"/><path class="cls-59" d="M165.5,100.1h-20c-.3.4-.5.9-1.1,1a1.1,1.1,0,0,1-.9-.5,1.8,1.8,0,0,1-.3-2.2,2.4,2.4,0,0,1,1.1-.6,160.2,160.2,0,0,1,19.6,0,3.2,3.2,0,0,1,1.7,1A1.1,1.1,0,0,1,165.5,100.1Z"/><path class="cls-60" d="M169.4,155.7h-.8c-.4-.8-.9-1.5-1.4-2.3s.5-.3.7.1h14.9c-.2.8-.5,1.6-.7,2.3s-2.6-.1-3.8.7h-1.4v-.7A14.7,14.7,0,0,0,169.4,155.7Z"/><path class="cls-61" d="M166,101.3c-3.2,2.4-6.5,1.8-9.8.9-.4-.1-1.2-.3-1.3-.1-2.2,3.2-3.8-.9-5.8-.8Z"/><path class="cls-62" d="M166.4,61.2h.7c.8,2.1.4,4.2.4,6.3V96.6c0,1.2.3,2.5-.3,3.6h-1c-1.6-4.6-.6-9.3-.8-13.9-.1-1.9-.1-3.7-.1-5.6.1-4.9,0-9.9.1-14.9,0-1.6-.2-3.2,1-4.6Z"/><path class="cls-63" d="M167.2,100.2c-.1-13-.1-26-.1-39a9.8,9.8,0,0,1,.8,2.8V97.5A13.4,13.4,0,0,1,167.2,100.2Z"/><path class="cls-64" d="M167.9,153.5h-.7V119.1h.7Z"/><path class="cls-65" d="M147,101.9c0,4,.1,7.9-.1,11.9,0,2.3.9,3,3.1,3a81.9,81.9,0,0,1,14.8.6c-5.6,0-11.2.1-16.7-.1-.7,0-1.7-1.3-1.8-2.1-.1-4.4-.1-8.9-.1-13.3Z"/><path class="cls-66" d="M166.4,119.4l-12.9-.6-7.7-.5h17.4C164.3,118.3,165.3,119,166.4,119.4Z"/><path class="cls-67" d="M166.3,80.8c0,6.4-.1,12.9-.1,19.4h-.7a.8.8,0,0,0,0-.7c-1.6-5.9-1-12-.4-18A1.2,1.2,0,0,1,166.3,80.8Z"/><path class="cls-68" d="M144.7,101l.8-.8v18.1h-.8c-1.4-1.5-1.1-3.5-1-5.3C144,108.9,142.7,104.8,144.7,101Z"/><path class="cls-69" d="M176.9,44h.7l5.2.7c-3.1.2-6.2.5-9.3.5-.8,0-1.7-.8-2.6-1.2A11.1,11.1,0,0,1,176.9,44Z"/><path class="cls-4" d="M176.9,44H165.7a2.3,2.3,0,0,1,.7-.7h9Z"/><path class="cls-61" d="M188.8,290.6h-2.2a13.7,13.7,0,0,1-.8-3.5V256.2a16.9,16.9,0,0,1,.7,3.8c.2,8.7.4,17.4.2,26.1,0,2.9,1,3.3,3.4,3.1a8.6,8.6,0,0,1,3.9.3Z"/><path class="cls-70" d="M185.8,255.4V212.7a9,9,0,0,1,.7,2.7q.1,18.6,0,37.2A8.9,8.9,0,0,1,185.8,255.4Z"/><path class="cls-71" d="M201.5,197.7c-.2,2.2-.5,4.5-.7,6.7.1-4.1-3.6-4.3-5.8-4.5s-2-1.1-2.4-2.2Z"/><path class="cls-70" d="M185.8,201.4c.3-1.2.5-2.5.8-3.7l1.6,1.4-1,1.1c-.2.4-.6.8-.6,1.3-.3,3.4-.5,6.9-.8,10.4Z"/><path class="cls-72" d="M14,227.7V201.4c.9-4.9,2.6-5.7,8.2-3.7l-2.4,12.2c-.1.3-.1.9.1,1,5.1,2.9-.7,6.9,1.1,10.1l-2.7,1.3,2.6,3.6-4,2.9,4.6,2.2a1.1,1.1,0,0,1,.7.8l-.9,9.9c-.1.6,0,1.3-.3,1.7s-2.1,3.5,0,5.4c.2.2.2,1.2,0,1.3-3.9,2.3.7,4.2.3,6.3s1.7,6.1-2.5,7.9c1.1,1.8,4.7,3.7.5,5.9l.6,1.4,1.6,5.5-1.2-.7c.3.4.9.4,1.2.8s1.4,3.2-.9,4.4c-.2.1.4,1.6.6,2.5s.7,3.3,1,5a7.2,7.2,0,0,1-3.2.8c-3.6.1-4.4-.8-4.5-4.4s.2-10.3-.1-15.4c0-1.6-.3-3.2.9-4.5l1-.2c.2-.2.3-.5.2-.6s-.3.2-.5.2c-3,.6-.7-2.3-2-2.8Z"/><path class="cls-73" d="M30.4,237.4c-3.3-.8-3.4-1-1.7-3.4.2-.3.5-1,.3-1.2-2.5-4-2.6-7.9.4-11.7.2-.2-.1-1.1-.3-1.1-2.8-1.1-2.4-3.1-1.9-5.4s.1-3.4.3-5.2a12.5,12.5,0,0,1,.9-2.5l2.1,1.3c1.3,1.3,1,3,1,4.6V234C31.4,235.2,31.5,236.5,30.4,237.4Z"/><path class="cls-74" d="M16.3,265.9c-.5,1.8-1.4,3.7-1.4,5.5s.9,4.6,1,7a29,29,0,0,1-.9,5.9c-.9,4.4,1.5,5.1,5,4.8h6.5v.4l-5.9,1.1H14V262.2l2.3,2.2A1.1,1.1,0,0,1,16.3,265.9Z"/><path class="cls-75" d="M30.5,234.4v-33a.9.9,0,0,1,1.2.4c.8,1.8.5,3.7.5,5.5.1,8,.1,16.1,0,24.1a4.9,4.9,0,0,1-.6,2.7A.8.8,0,0,1,30.5,234.4Z"/><path class="cls-76" d="M31.2,289.9v.7a17.8,17.8,0,0,1-.7-3.9c-.1-8.7,0-17.4,0-26,.5-.3.9-.1,1.2.4,1.1,3.9.4,7.9.5,11.8s.1,8.5,0,12.7C32.2,287.1,32.3,288.7,31.2,289.9Z"/><path class="cls-77" d="M31.2,201.4h-.7l-2.4-.2,2.2-2.6a20.2,20.2,0,0,0-3.3-.9H22.2a16.2,16.2,0,0,1-2.2,0c-3-.4-5.5,0-6,3.7v-4.5a56.2,56.2,0,0,1,14.2,0l3,1.5A2.1,2.1,0,0,1,31.2,201.4Z"/><path class="cls-78" d="M31.1,260.7h-.6c0-7.8,0-15.5-.1-23.3.1-1,.1-2,.1-3h.7c1,1,1,2.2,1,3.5.1,6.4.1,12.9,0,19.3C32.2,258.5,32.2,259.8,31.1,260.7Z"/><path class="cls-52" d="M64.1,292.1h2.2c1.5,1.5,1,3.5,1,5.3.1,15.2.1,30.3.1,45.5a38.5,38.5,0,0,0,.1,4.8,6,6,0,0,0,1.4,2.1c5.5,1.2,11.1.3,16.6.5.6-.1,1.2,0,1.7-.4l.8-1.6a74.9,74.9,0,0,0,0-16.4c5.4-.2,10.8-.5,16.3-.6.5,0,1,1.4,1.6,2.1-.9,5.6-.1,11.3-.4,17-.1,2.8.4,5.7-.4,8.5A37.5,37.5,0,0,1,100,365c-.7.7-3.1.3-4.2-.5s-2.5-2.4-4.6-1.3c-.4.2-1.3-.4-1.8-.9s-2.2-3.4-2.8.5c0,.5-3,.6-4.9.9l1.9,2.4c-1-.2-1.6-.4-2.1-.2-3.6,1.2-5.6-.3-7.1-3.7s-2.7-4.2-5.7-.8c-.8.9-2.3,1.2-3.5,1.7s-1.6.5-1.8,1-1.6,2.7-2.1-.2l-3.4.9c.5-3.7.4-3.6-3.4-6.6-.7-.4-.4-2.7.1-3.8s1.7-2.1,2-3.7l-3.3,2.2a74.7,74.7,0,0,0,3.4-7.4c.2-.6-.5-1.6-.9-2.4a11.9,11.9,0,0,0-1.1-2.6,10.6,10.6,0,0,0-1.5-1.5,16,16,0,0,0,2.3-.3,2.6,2.6,0,0,0,1.4-1.1c.2-.3-.8-1.3-.6-1.5,2.7-3.1-1.6-7.2,1.4-10.2-3.2-2.8.5-6.6-1.5-9.5s-.4-4.9.7-6.9-.3-2.2-2.2-2.1a17.9,17.9,0,0,0,1.5-2.4c.1-.3-.4-1.1-.7-1.2a8.8,8.8,0,0,0-2.3,0l1.5-1.9a50.9,50.9,0,0,0,3-5.6c.2-.4-.7-1.2-.8-1.9s.3-1,.4-1.5C59.5,291.9,61.9,293.2,64.1,292.1Z"/><path class="cls-79" d="M46.9,292.9l3,4.5c-2.5,2.9-2.9-.9-4.5-1.5.5,3.6,2.7,7.1,0,10.5-.5,4.2-3.8.7-6,1.9V292.9A15.9,15.9,0,0,1,46.9,292.9Z"/><path class="cls-52" d="M45.4,306.4c-.4-3.3-.8-6.5-1.1-9.8,0-.4.5-1.1.7-1.1a3.3,3.3,0,0,1,2,.5c.8.8,1,2.8,2.9,1.4l.5-.5c2.5-1.7.2,2.6,2,1.6a17.1,17.1,0,0,0,2.6-2.1c.1.3.4.7.3.9s-2.1,3.1-3.2,4.5c-.4-.5-1.1-.3-1.7-.3s1.3-.3,1.7.3-1.4,2.7-2.1,2.7-2.6,0-2.4,2Z"/><path class="cls-80" d="M105.1,358.9c0-7.2,0-14.4.1-21.7a18,18,0,0,1,.7-3.8v30.7C105.6,362.3,105.4,360.6,105.1,358.9Z"/><path class="cls-81" d="M50.7,339.4c0-6,0-12-.1-18,.3-.4.5-.4.8,0v18C51.1,339.7,50.9,339.7,50.7,339.4Z"/><path class="cls-82" d="M46.9,292.9H39.4l-5.2-.7H51.4Z"/><path class="cls-83" d="M50.7,365.6a17.7,17.7,0,0,1-.1-2.3v-8.2C50.6,358.6,50.6,362.1,50.7,365.6Z"/><path class="cls-84" d="M50.7,339.4h.7v8.2c-.3.4-.5.3-.7,0Z"/><path class="cls-52" d="M56.4,344l-2.6,2.3-.8-1,2.8-2.3Z"/><path class="cls-83" d="M50.7,347.6h.7c-.3,2.3-.5,4.5-.8,6.7C50.7,352.1,50.7,349.9,50.7,347.6Z"/><path class="cls-82" d="M64.1,292.1l-6.8.8v-.7Z"/><path class="cls-85" d="M51.4,321.4h-.8c0-1.5,0-3,.1-4.5C50.9,318.4,51.1,319.9,51.4,321.4Z"/><path class="cls-85" d="M50.6,315.4v0Z"/><path class="cls-16" d="M69.3,24.5v5.8h-.8c.3-2.2.5-4.4.8-6.6Z"/><path class="cls-86" d="M146.2,176.6c0-4.7,0-9.4.1-14.1,2.2.5,1.4,2.4,1.7,3.8s-.5,3.1,1.4,3.8,2.4-1.5,3.6-2.4c.7,1.2,1.2,3.2,2.1,3.4a19.4,19.4,0,0,0,7.2,0c.4,0,.7-2.4.7-3.7a28.3,28.3,0,0,0-.3-4.1h1.5v11.3a6.6,6.6,0,0,1-.1,1.4c-1.1,1.3-2.7,1-4.1,1.1-4.2,0-8.4-.1-12.6.1A2.1,2.1,0,0,1,146.2,176.6Z"/><path class="cls-54" d="M153,167.7c.2,2.5-.2,3.9-3.3,3.8s-2.6-2.1-2.7-4-.5-3.4-.7-5v-3.1c2-1.9,4.4-1,6.7-.7-.1,1.6-.1,3.2-.1,4.7S152.9,166.3,153,167.7Z"/><path class="cls-87" d="M153,158.7l-6.7.7c.9-.5,1.8-1.4,2.8-1.4h15Z"/><path class="cls-1" d="M39.4,63.5h9.7c-.9,2.6-3,.8-4.5,1.2a7.2,7.2,0,0,0-2-.1h1.1c1.2.6,2.6,0,3.8.8,3.4,2.6,3.1,4.4-1.3,6.6-.5.1.4.7.2.2s.1-.1.3-.2a3.7,3.7,0,0,1,1.8-.1l.9.5c3,1.8,3.2,4.1,1.8,7.3s-3.4,4.2-.8,7.3c1,1.1-1.2,1.8-2.9,1.9.6,1.4.9,2.7,2.3,3.8s2.4,4-.4,5.4-4.2,4-3.5,7.2c.3,1.2,1.9,1.2,2.2,2.4s.4,2.9-.7,2.9-1,.6-.4,1.4,2.5,3.2-.4,4.3c-1,.4-.2.7-.1,1s2.6,3.5-.9,4.3c.9,2.4-.9,5.3.6,7.1s1.4,4.3-.9,6c-.6.4-.9,1.2-1.7,1.4s-3.2.9-4.6-.7a3.6,3.6,0,0,1-.4-1.1c-.6-11.1-.2-22.2-.2-33.3s0-21.4-.1-32.2C38.3,67,38,65.1,39.4,63.5Z"/><path class="cls-37" d="M45.4,105.5c-1.1-1.5.3-7.1,1.9-7.8L51,95.8c-.8-1.2-.7-3.5-3.2-2.6L46,87.7l4,.3c-4.8-2.6-1.3-5.4-.4-7.6s3.4-5-.8-6.9l.3-1a5.5,5.5,0,0,0,3.7-2.2,1,1,0,0,1,.5-.4l-.6.5c-1.9-.6-2,2-3.6,2.1l-3.9.6a13.3,13.3,0,0,1,1.1-2.4,31.3,31.3,0,0,1,3-2l-4.2-2.9L43.9,65c-.2-.2-.3-.3-.2-.5s.1-.3.2-.3l5.2-.7L50.6,62h0a4.4,4.4,0,0,0,.1-3.7V51.5c.9-2,.4-4-.1-6l.8-1.5h.5c1.7.3,3.7-.8,5,1.1,1.9,4.3.8,8.6.3,12.8-.2,1.4-.3,2.8-1.4,3.7s-.1-.4-.3.1.2.4.5.4c2.7,4.2,1.4,9,1.6,13.5,0,1.3-.4,2.6.1,4a1.9,1.9,0,0,1-1.5,2.8,11,11,0,0,1-1.7-1.2c.4.7,1,.7,1.4,1.1,3,4.2,2.6,11.2-.9,16.1-1.5.9-3.3.1-4.8,1a2.2,2.2,0,0,0-.5.8c-.6,1.3-.2,2.9-.8,4.2S46.6,105.2,45.4,105.5Z"/><path class="cls-88" d="M39.4,63.5c.1,11.1.2,22.2.2,33.3,0,7.9-.2,15.9-.2,23.8v14.9c-4.4,1.9-5.6,1.1-5.6-3.6,0-2,.9-4.2-.3-6.2v-.8a30.1,30.1,0,0,0,0-11.2v-.8c1.3-2,0-4.3.4-6.5.4-4.2-.1-8.5,0-12.8s1.4-10.6-.4-15.8c0-3.4.1-6.7-.1-10s.6-4.9,4.2-4.3A10.8,10.8,0,0,0,39.4,63.5Z"/><path class="cls-89" d="M33.5,77.8c3.4,2.5.8,6.3,1.6,9.4s-.6,4.2-.9,6.3c-.3.3-.5.3-.7,0Z"/><path class="cls-90" d="M33.5,125.7a4.1,4.1,0,0,1,.9,4.8c-1.5,3.9-.2,5,5,5h0a1,1,0,0,1,0,1.5h0a9.9,9.9,0,0,1-5.9-.1Z"/><path class="cls-91" d="M33.5,93.5h.7v12.7a1.6,1.6,0,0,1-.7-.7Z"/><path class="cls-88" d="M39.4,137v-1.5h3.8c1.9.7,3.6-1.2,5.5-.4s2.2.8.9,2.2c-1.2-.1-2.4.3-3.5-.3Z"/><path class="cls-90" d="M33.5,113.7a14.1,14.1,0,0,1,0,11.2Z"/><path class="cls-77" d="M33.5,105.5l.7.7c-.3,2.3-.5,4.5-.7,6.7Z"/><path class="cls-21" d="M33.5,136.9h0Z"/><path class="cls-21" d="M46.1,137h3.8a.4.4,0,0,1,.1.5v.2h0Z"/><path class="cls-92" d="M146.2,176.6h.8c6-.3,11.9-.7,17.9.2h-.1a5,5,0,0,1,1.1,3.7c-.2,5,.7,10.1-.5,15l19,.6v5.3q0,42.6-.1,85v4.2l-8.9.2c-2.3,1.5-4.8.6-7.2.9H75.7c-2.2-.2-4.4.2-6.6-.5a1.8,1.8,0,0,1-1-.9,7.8,7.8,0,0,1-.5-1.4c-.3-16.1,0-32.2-.1-48.3V219c-.3-1.4.8-3.3-1.6-3.7-4.6,0-9.3-.4-13.9.3-1.4,1-1,2.4-1.1,3.8v11.2c0,2.7-1.4,4.2-4.1,4.1-4.3-.1-8.7.3-13-.2a2.4,2.4,0,0,1-1.3-.7,2.9,2.9,0,0,1-.5-1.3c-.1-10.5,0-21,0-31.5a11.3,11.3,0,0,1,.6-4.1,1.3,1.3,0,0,0,.1-.6l34.4-.2c1.8-.9.9-2.5,1.1-3.9s-.3-2.8.2-4.3v-4.5l.2-6.6.7-.2H85.8a3.7,3.7,0,0,1,1.9-.9c3.9-.2,7.8,0,11.7-.1h40.5c1.9.2,3.8-.4,5.5,1Z"/><path class="cls-93" d="M105.1,330.2l-18.6.2c-.5.2-.8.1-.9-.4a2.1,2.1,0,0,1,1.6-1.9c5.9-.3,11.8-.8,17.6.3A1.1,1.1,0,0,1,105.1,330.2Z"/><path class="cls-94" d="M87.2,349.9l-.7.7c-6,.8-11.9.3-17.8.3a.9.9,0,0,1-.1-1.3c6-1.1,12-1.6,17.9.3Z"/><path class="cls-95" d="M85.8,330.4h.7c0,1.7,0,3.5.1,5.2a23.6,23.6,0,0,1,0,7.5c-.1,1.8-.2,3.5-.2,5.3a1,1,0,0,1-1.2-.5,5,5,0,0,1-.4-1.3c-.4-4.1-.2-8.3-.2-12.4C84.6,332.8,84.6,331.4,85.8,330.4Z"/><path class="cls-96" d="M86.5,349.9h-18a.9.9,0,0,1,.3-1.2l1.3-.5c5.5.2,11-1.1,16.3.8Z"/><path class="cls-97" d="M86.4,349H69.3a.7.7,0,0,1,.4-1.1l1.3-.5c3.7-.2,7.4,0,11.2-.1a4.6,4.6,0,0,1,3.4,1h.8C86.4,348.6,86.5,348.8,86.4,349Z"/><path class="cls-98" d="M88,331.9v0Z"/><path class="cls-99" d="M86.6,343.1v0Z"/><path class="cls-100" d="M105.1,330.2v-1.3a3.6,3.6,0,0,1-.4-.9,1.9,1.9,0,0,1,.5-.9,1.6,1.6,0,0,1,1.5.1.8.8,0,0,1,0,.9v2.3Z"/><path class="cls-2" d="M165.7,290.8h2.2c2.5.7,5-.3,7.5.6,8,0,7.9,0,7.8,7.8q-.3,23.7-.3,47.4c0,1.1.9,2.2,1.4,3.3v.7a5.8,5.8,0,0,0,4.5,0c3.5,0,6.9.2,10.4,0s3.2.9,3.1,3.3a83.4,83.4,0,0,0,0,10c.1,2.5-.8,3.3-3.2,3.2-10.9-.1-21.8,0-32.7,0-.6-1.6-4.3.5-3.5-2.9h-2.2c-2.9.1-5.7-.4-8.5-.1-5.2-.2-6.3-1.2-6.9-6.4a2,2,0,0,0-.3-1.1c-2.4-3.4-.1-4.9,2.6-6.1,5.3-.6,10.5-.1,15.8-.3a1.4,1.4,0,0,0,1-.7,2.2,2.2,0,0,1,.5-.8l.8-.5.8-.5a4.5,4.5,0,0,0,.3-1.1c.1-17.5.1-35.1,0-52.6a2.5,2.5,0,0,0-.5-1.5l-.6-.9A1.4,1.4,0,0,1,165.7,290.8Z"/><path class="cls-52" d="M147,351.4c-2,1.5-3.1,3-.8,5.4.6.6-.5,2.6,0,3.6,1.1,2.5,3.3,3.4,6,3,2.6,1.1,1.7,2.2-.1,3.2s-2.8-.1-5.9-2.2a3.4,3.4,0,0,0-4.6.6,13.9,13.9,0,0,1-2.1,2.1h-.8c-1-.8-2.3-.2-3.4-.4s-4.1,1.1-2.1-2.2c.2-.3.4-.3.1-.3h-1.1c-1.9-.2-3.9-.2-4-2.8-.4-8.9.4-17.8.1-26.7-.1-1.7.2-3.5-.7-5.1h-2.3v-.7c-4.3-1.6-8.7-.4-13.1-.7-1.3-.1-2.7.4-3.7-1-1-3.8-.2-7.7-.4-11.5-.1-2,1.1-3,3-3.6,4-1.2,8.1-.4,12.2-.6,6.7-.4,13.4.2,20-.1a1.4,1.4,0,0,1,1.1.4c1.4,4.4.1,8.9.2,13.3.1,7.8-.8,15.6.4,23.3a4.3,4.3,0,0,1,.1.5,5.9,5.9,0,0,0,.4.8C145.8,350.4,146.6,350.7,147,351.4Z"/><path class="cls-101" d="M152.2,366.4v-3h13.9l-2.8,1.5,3.1,2.2H152.9Z"/><path class="cls-102" d="M127.6,329.6a84.2,84.2,0,0,1,1.4,9.9c0,6.3-.5,12.5-.6,18.8a15.1,15.1,0,0,0,.6,3.6c-.9.4.5,2.4-1.4,2.2,0-10.5,0-21-.1-31.5C127.5,331.6,127.5,330.6,127.6,329.6Z"/><path class="cls-103" d="M152.2,366.4l.7.7H139.5c.8-3.1,2.5-4.9,5.9-3.7.5.2.8,1.1,1.3,1.3S150.4,365.8,152.2,366.4Z"/><path class="cls-104" d="M127.6,364.1l1.4-2.2,6.2,2.5-2.1,1.3,1.9.7c.3.1.4.3.3.4s-.2.3-.3.3-3.1-.1-4.7,0S127.3,366.2,127.6,364.1Z"/><path class="cls-105" d="M188.8,350.6h0Z"/><path class="cls-103" d="M135,367.1v-.7l3.7.7Z"/><path class="cls-6" d="M49.9,137.7V137l-4.5-1.1-2.2-.4c1.1-1,2.3-1.8,3.4-2.9s.2-1.6-.1-1.7c-2.4-1.5-2.1-3.6-1.5-5.8.2-.6.4-1.4.1-1.8-3.1-3.6.6-2.5,2.2-3l-3.1-5.2h3.2a29.1,29.1,0,0,1-1.7-3c-.4-.9-.6-1.9-1-2.8l3.3.4-2.6-4.2,3-.8c2,4.5.9,9.1.7,13.6,0,.5-.3,1,0,1.4H66.3c.8,9,.2,18,.3,27,.1,2.5.5,5-.3,7.4l-7-.7H54.9l1.4-5.9H53.2l1.8-2.1c1.7-1.7,1.4-2.2-.5-3.6s-1.6-2.5-2.4-3.7-1,.1-1.5.3Z"/><path class="cls-106" d="M66.3,154.2V119.8a13.6,13.6,0,0,1,.7,3.5c.1,10.3,0,20.6,0,30.9Z"/><path class="cls-107" d="M39.4,177.5H63.9c2.3,0,3.3.7,3.2,3.2-.2,4.4-.1,8.9-.1,13.3-8.8.7-17.6-.1-26.4.4a1.7,1.7,0,0,1-1.8-1.1c-.9-4.4-.1-8.9-.4-13.4A2.9,2.9,0,0,1,39.4,177.5Z"/><path class="cls-86" d="M39.4,177.5v15.7c-3.6,1.8-4.7,1.1-5.9-3.8v-12Z"/><path class="cls-108" d="M33.5,189.4c1.4,2.2,2.1,5.4,5.9,3.8l10.9.5,16.7.2a20.9,20.9,0,0,1-3.4.8H33.4C33.5,192.9,33.5,191.2,33.5,189.4Z"/><path class="cls-29" d="M68.4,187.9c.1,2.3.2,4.5.1,6.8-.1.5-.9.9-1.4,1.4C67.5,193.4,68,190.6,68.4,187.9Z"/><path class="cls-109" d="M175.4,291.4l-7.5-.6h7.5Z"/><path class="cls-110" d="M68.6,122.7c.5-3.3-1-4.1-4.2-3.9-5,.2-10.1,0-15.2,0-.3-.3-.3-.6,0-1a3.3,3.3,0,0,1,1-.6,4.9,4.9,0,0,1,1.7-.6,128.2,128.2,0,0,1,16.4.1c1.5.6,1.8,1.8,1.9,3.2a3.7,3.7,0,0,1-.5,2.5A.8.8,0,0,1,68.6,122.7Z"/><path class="cls-111" d="M68.6,122.7h.7c1.2,1.2,1,2.7,1,4.2.1,8.6.1,17.1,0,25.7a6.2,6.2,0,0,1-.5,2.7.9.9,0,0,1-1.2.4Z"/><path class="cls-112" d="M49.2,118.3v.5a2.8,2.8,0,0,1-.1.9c-.2-3.6-.5-7.3-.7-10.9-.1-1.4,0-2.7,0-4.1s.5-3.5.7-5.2l.6.2a2.4,2.4,0,0,1,.6,1.1,5.7,5.7,0,0,1-.1,1.3c-.1,3.9,0,7.7,0,11.6C50.1,115.3,50.3,116.9,49.2,118.3Z"/><path class="cls-113" d="M68.6,155.7h.7l1.1-.7c4.5-.6,9.1-.2,13.6-.3l1.3.2a4.1,4.1,0,0,1,1.1.7,1.1,1.1,0,0,1-.4,1.2H84.7c-5.4-.2-10.8.5-16.1-.4Z"/><path class="cls-114" d="M68.6,156.4h17c.2.2.3.3.2.5l-.2.2h-17Z"/><path class="cls-115" d="M68.6,349.1v.8a1.5,1.5,0,0,1,.1.7c-.3.3-.5.3-.8,0l-.8-1.5a4.3,4.3,0,0,1-.3-2.5V294a4.6,4.6,0,0,1,.3-2.6l.8-.6c.2-.3.4-.4.7-.3v.3a2.6,2.6,0,0,1,.7,1.1,33.2,33.2,0,0,1,.3,5.5v45.9C69.6,345.3,69.7,347.3,68.6,349.1Z"/><path class="cls-116" d="M67,291.4v57.7a29.7,29.7,0,0,1-.7-4.3V292.1Z"/><path class="cls-117" d="M31.1,260.7c.1-8.8.1-17.5.1-26.3v-2.2c1.1-.1,1.1.6,1.1,1.3,1.4,4.7.4,9.6.7,14.3.1,1.6,0,3.2,0,4.8V285c0,1.7.4,3.5-1.1,4.9h-.7C31.2,280.1,31.2,270.4,31.1,260.7Z"/><path class="cls-118" d="M31.9,289.9c0-12.5,0-25,.1-37.5a.7.7,0,0,1,1.1.4,2.9,2.9,0,0,1,.5,1.3c.1,11.7.4,23.5-.1,35.3a7.5,7.5,0,0,1-.7,1.2Z"/><path class="cls-119" d="M32.8,290.6a.8.8,0,0,1,0-.7,4.1,4.1,0,0,1,1.1-.7,4.2,4.2,0,0,1,1.2-.3c4.3-.2,8.5,0,12.8,0h1.2l1.1.5a1.2,1.2,0,0,1,.4,1Z"/><path class="cls-120" d="M50.6,290.5V290l.4-.5,1.2-.5c4.1,0,8.2-.6,12.2.4a.8.8,0,0,1,.4,1.1Z"/><path class="cls-121" d="M64.8,290.5v-.6c1.2-1.1,2.4-1,3.7,0a.6.6,0,0,1,0,.6l-.7.3Z"/><path class="cls-1" d="M55.1,98c2.1-5.2,2-10.4.7-15.8.5-.4,1.3-1,1.3-1.2-1-2.2-.6-4.3-.3-6.7s-.5-3.5.4-5.6-1.3-4.4-2.1-6.7c.9-4,2.1-8,2.3-12,.1-1.1-2.1-2.6-.8-4.5s4.2-.8,6.3-1.4,2.8.3,4.2-.2l.7-.6h1.5c.2-.3.9.1.9-.1s-.6-.4-.9-.6V41c.5-.2,1.2-.3,1.5-.7,1.3-2.5,2.2-5,.3-7.7-.3-.4-.2-1.8.2-2,2.5-1.6.2-2.2-.5-3.1h0a1.7,1.7,0,0,1,2.2,0c3.2-2.5,7.5-2.1,10.3-1,6,2.2,11.7-1.9,17.4.3,3.9-.9,5.1.1,5,3.7s-1.5,7.4,1.7,10.4a1.3,1.3,0,0,1-.3,2c-3,.6-2.3,1.8-.7,3.3s.5.5.4.6c-1.8,2.9,1.2,6-.4,8.9-.6,1.1.2,2.3-.5,3.3H89.2a21.7,21.7,0,0,0-3.5.7v.8a1.3,1.3,0,0,1,.1.6,21.4,21.4,0,0,1-.2,6.2,34.2,34.2,0,0,0-.2,10.1,1.5,1.5,0,0,1-.7,1.5c-3.6,1.2-7.4.4-11.1.6a18,18,0,0,0-4,.3,3.7,3.7,0,0,0-2,2.1c-.5,4-.1,7.9-.3,11.9,0,1.5.3,3.2-1,4.5C62.5,99.2,58.8,99.8,55.1,98Z"/><path class="cls-6" d="M182.8,178.9v15.8c-5.2.8-10.4.1-15.5.3-1.5.1-2.1-.5-2-1.9.2-5.2-.5-10.5.4-15.6h14.2C180.8,178.1,182.3,177.5,182.8,178.9Z"/><path class="cls-122" d="M165.7,177.5c0,4.8,0,9.6-.1,14.4,0,2.1.7,2.9,2.8,2.8h14.4v.6l-17.4.2-.6-18.7Z"/><path class="cls-123" d="M164.9,176.8l-17.9-.2,13.1-.7h4Z"/><path class="cls-91" d="M182.8,178.9l-2.9-1.4Z"/><path class="cls-42" d="M83.5,174.4c-4.3.3-8.5.6-12.8.6-.5,0-1.3-1.6-1.3-2.5-.2-3.1-.1-6.2-.1-9.3v-4.5a2.4,2.4,0,0,1,2-.3,58.9,58.9,0,0,1-.2,8.4c0,1.9-.2,3.8,2.8,3.1.4-.1.9.3,1.4.5a1.6,1.6,0,0,1,.8,1.6s-.1,0,0,.1l.4-.5a4.2,4.2,0,0,1,3.5-1c3,.5,3.2-1.2,3.3-3.5s-.8-5.7.1-8.5a1.3,1.3,0,0,1,1.6.1v13.5l-1.5,2.2c-.2-.4.4-.2-.1-.2S83.2,174.5,83.5,174.4Z"/><path class="cls-124" d="M85.6,157.2a.9.9,0,0,0,0-.7h.8l.5.4c1.2,3.7.3,7.4.6,11.1a27.5,27.5,0,0,0,.2,4.1,9.9,9.9,0,0,1,.3,2.4,3.7,3.7,0,0,1-.1,1.1,3.6,3.6,0,0,1-.7,1H85.8C85.8,170.1,85.7,163.7,85.6,157.2Z"/><path class="cls-125" d="M71.5,158.7h12c-2.5,1.8-5.3.9-8.1,1.1S72.6,159.9,71.5,158.7Z"/><path class="cls-126" d="M145.4,176.6h-5.1a.6.6,0,0,1,.1-.9,6.2,6.2,0,0,1,2.4-.8,2.3,2.3,0,0,0,.7-.7c.5-3.1.1-6.2.2-9.3,0-1.5.1-2.9.1-4.4a4.1,4.1,0,0,1-.1-1.1,13.4,13.4,0,0,1,0-2,2.3,2.3,0,0,1,1-1.2l.9.3a2,2,0,0,0-.1.7C145.5,163.7,145.4,170.1,145.4,176.6Z"/><path class="cls-127" d="M145.6,156.5h-.9a.6.6,0,0,1-.9-.4,1.4,1.4,0,0,1,.8-1c5-.9,10.1-.3,15.1-.4,1.9-.1,3.7-.2,5.3-1.3h.6c.7,2.4,0,3.3-2.6,3.2C157.2,156.4,151.4,156.5,145.6,156.5Z"/><path class="cls-128" d="M28.2,196.9H14l1.5-.7Z"/><path class="cls-129" d="M164.2,37.2v0Z"/><path class="cls-130" d="M31.9,232.9l-.7-.7V198.4l1.4-1.5v36C32.4,233.2,32.2,233.2,31.9,232.9Z"/><path class="cls-131" d="M52.1,43.2l7.5.8a17.5,17.5,0,0,1-8.2,0h0Z"/><path class="cls-132" d="M50.6,45.5c0,2,0,4,.1,6C50.6,49.5,50.6,47.5,50.6,45.5Z"/><path class="cls-133" d="M50.7,58.3c0,1.2-.1,2.4-.1,3.7C50.6,60.7,50.7,59.5,50.7,58.3Z"/><path class="cls-134" d="M51.4,44h8.9a15.8,15.8,0,0,1,7.5,0c-.3.4-.5,1-.8,1.1l-10.4.4Z"/><path class="cls-131" d="M67.8,44H60.3l7.5-.7Z"/><path class="cls-19" d="M69.3,42.5l1.8.3-.4,1.3-1.4-.9Z"/><path class="cls-44" d="M178.3,156.4l3.8-.7Z"/><path class="cls-135" d="M143.2,311.7a81.4,81.4,0,0,1-8.5.8c-6.9.1-13.8-.2-20.7-.1-4.5.1-5.2,1.2-4.9,5.8.2,3-.1,6.1-.2,9.2a1.9,1.9,0,0,1-.8,1.5l-.7-.8c-1.3-5.6-2-11.3.2-16.9a6.3,6.3,0,0,1,3.6-.6h27.9C140.5,310.6,142.1,310.4,143.2,311.7Z"/><path class="cls-136" d="M108.1,328.9l.8-1.5,16.1.2c.1,0,.2.8.3,1.3Z"/><path class="cls-137" d="M107.4,311.6v16.5h-.7c-.1-.2-.1-.5-.2-.7-1.6-5.1-1.1-10.3-.3-15.4A.9.9,0,0,1,107.4,311.6Z"/><path class="cls-138" d="M169.4,155.7l7.4-.6.2.3v.3Z"/><path class="cls-2" d="M125.3,59H109.6c-.5-.4-.9-.7-.8-1.5s.9-4-.8-5.8-.4-1.4.3-1.6c2.8-.8,1.6-2.1.5-3.5s-1-1.1-.6-1.6c2.6-3.3.4-6.3-.2-9.6s.2-6.3-.6-9.4l2.2.8c1.8,0,3.5-1.1,5.3,0h.7c2.5-.2,5,.9,7.5,0,.5-.4,1.2-1.1,1.6-1,4.2.7,8.3,1.2,12.5.4,1.5-.3,3.7,1.5,4.7.9s5.6,1,7.6-1.7l2,1.4a6.7,6.7,0,0,0-4.2,9.5c1.2,2.4,1.1,3.9-1.3,5.1-.3.2-.1,1.3,0,1.9.2,3,.7,5.9.8,8.9,0,.4-1.6.9-2.8,1.6a23.9,23.9,0,0,1,2.6,1,1.6,1.6,0,0,1,.4,1.5,1.5,1.5,0,0,1-1.3.8c-2.4,0-4.7-.2-7.6-.4l2.3-3.6c-2.8-.2-5.6-.4-8.4-.4s-4.3-.7-2.7,2.8c.2.6-.4,1.6-.7,2.4l-2-.9-1.3-.4Z"/><path class="cls-2" d="M136.5,59h-.7a10.5,10.5,0,0,1-1.9-1.7,8.8,8.8,0,0,1-.7-2.3c.4,0,1-.3,1.3-.1a4.5,4.5,0,0,1,1.3,1.7A9.5,9.5,0,0,1,136.5,59Z"/><path class="cls-107" d="M107.4,26c1.5,2.3,2.6,4.6,1.3,7.6-.4.8.9,2.4,1.5,3.5a16.6,16.6,0,0,0,1.3,1.4c-3.2,1-.3,3-.8,4.4a14.5,14.5,0,0,1-1.2,2.5l1.5,5-2.7.6c2.4,2.2,2.4,5,1.3,8h-3.7c-.4-1.5-2.1-3.1.5-4.3a3.6,3.6,0,0,0-.6-1.8c-1.5-2.1-1.4-2.5.3-4.2s-.5-1.8-.9-2.6A14.3,14.3,0,0,0,104,44c1.8,1.4-.9-4.9,2.3-1.3l.7-.5a1.7,1.7,0,0,0-.5-1.2c-2.3-1.3-2.6-3-2-5.4a13.4,13.4,0,0,0,.1-6.6c-.3-1-2.5-1.5-3.9-2.2a10.7,10.7,0,0,1,2.7-1.2A27.1,27.1,0,0,1,107.4,26Z"/><path class="cls-107" d="M123.1,26.8a6.2,6.2,0,0,1-7.5,0C118.1,25.2,120.6,25.7,123.1,26.8Z"/><path class="cls-107" d="M114.9,26.8h0Z"/><path class="cls-19" d="M73,27.5H70.8C71.5,26.3,72.3,25.1,73,27.5Z"/><path class="cls-139" d="M85.7,60.5h76.1a26.3,26.3,0,0,1,3.9.6c.3.5.2.9-.3,1.1a3.2,3.2,0,0,1-1.4.2c-23.5-.2-47.1-.1-70.6-.1-2,0-4,.1-6-.1l-1.3-.5a.9.9,0,0,1-.4-1.2Z"/><path class="cls-140" d="M165.6,62a2.8,2.8,0,0,0,.1-.9h.7c0,6.5-.1,13-.1,19.6h-.6c-.1-.2-.3-.3-.5-.5C164.5,74.1,163.7,68,165.6,62Z"/><path class="cls-141" d="M164.8,122.7v.8c-.7,7.1-.1,14.2-.3,21.3a62.6,62.6,0,0,0,.1,7.5c.2,2.6-.9,3.2-3.3,3.1-4.8-.3-9.6.2-14.5-.3a8.8,8.8,0,0,0-5,1.2,5,5,0,0,1-2.1,0c-3.4-.6-6.7-.3-10.1-.3H92.7c-5.1,0-5.8-.6-5.8-5.5V85.7c0-1.5-.1-3.1.9-4.4s3-.9,4.6-.9h67.4c1.5,0,3-.1,4.3.8,1.6,5.1.6,10.3.7,15.5,0,1.7-1.5,1.6-2.8,1.6-5.3,0-10.6.1-16,0a7.5,7.5,0,0,0-4.6,1.1c-2,.6-4.1.3-6.2.4h-8.6c-1.2-.1-2.5-.1-3.7-.3l-1.2-.2c-6.3-.6-12.6-.3-18.9-.2-.3.6-.1,1.3-.3,2-.1,5-.1,10,0,14.9a6.1,6.1,0,0,0,.7,1.4,2.6,2.6,0,0,1,.7,1.1,2.8,2.8,0,0,1-.4,1.3c-.1.5.3.7.6,1,2.9,1.9,1.6,4.9,2,8.1,1.4-2.7,1.7-6.1,5.2-5.9s3.1,2.8,4,4.9c.3.3.8-.3.4,0s-.2,0-.3-.2-1.5-2.2-.2-3.2,2.6-.1,3.3.7a9.2,9.2,0,0,0,6.8,3.2c1.9.2,2.9-.5,2.8-2.5a34,34,0,0,1,.3-4.5c.2-2.3,1.3-4.1,3.8-4.3s3.6,1.3,3.8,3.6.8,2.7,2.9,1.9,4.3-.4,4.9-3.2c.1-.1.7,0,1,.3h.7c5.4.7,10.8.2,16.3.2C163.8,120,164.6,120.8,164.8,122.7Z"/><path class="cls-142" d="M144.8,119.7c-.2.3-.6.7-.6,1,.3,1.8-.1,2.9-2.2,2.5s-2.2-.3-2.8.2c-3.3,2.4-4.1.3-4.1-2.4s-1.2-3.6-3-3.1-2.2,2.2-2.8,3.6-.2,2.7-.2,4.1c-.2,4.4-1,4.8-5.3,3.7-2.4-.6-4.5-1.3-5.9-3.5-.4-.6-1.7-.5-2.5-.8s.5,1.4.7,2.1a4,4,0,0,1-.2,3,27.4,27.4,0,0,0-2.1-4.2c-.6-1-1.8-2.1-2.8-2.1s-1.9,1.2-2.7,2-.1.8-.2,1.1-1.5,2.5-2.3,3.7a21.2,21.2,0,0,1-.6-4.3c.2-2.4-.3-4.3-2.3-5.8,2.1-1.7,4.5-1,6.7-1.1s6.2,0,9.2,0c.7,0,1.4.1,1.9-.5l.6-.8a16.8,16.8,0,0,0,.6-2.4c.2-5,.2-10,0-14.9v-.6a1.3,1.3,0,0,1,.7-1h17.8c1,0,1.8-1.3,2.9-.4a2.2,2.2,0,0,1-.1.8c1.6,5.9.4,12,.8,18a1.7,1.7,0,0,1,.1.7Z"/><path class="cls-143" d="M141.8,155.7a38.8,38.8,0,0,1,5.8-.9c5-.1,9.9.2,14.9,0,.6-.1,1.6-2,1.6-3,.1-8.2,0-16.3.1-24.4a26.3,26.3,0,0,1,.6-3.9c.1,10,.1,20,.2,29.9.1,2.2-1.2,2.3-2.9,2.3H144A1.6,1.6,0,0,1,141.8,155.7Z"/><path class="cls-143" d="M164.8,122.7c-1.3-.8-2.6-2-4-2.1-3.9-.3-7.9-.1-11.8-.2a21.4,21.4,0,0,1-3.5-.6h16.6C164.4,119.6,165.2,120.4,164.8,122.7Z"/><path class="cls-144" d="M144.7,101v17.2H144a82.4,82.4,0,0,1,0-17.2Z"/><path class="cls-145" d="M143.3,98.7l-2.3.8c-.3-.2-.3-.3-.3-.5l.3-.3c1.9-.2,3.8-.6,5.7-.7h14.5c2.3.1,3.1-.8,3-3-.1-4.5,0-9,0-13.5.5-.2.8-.1,1,.4-.1,5.6.5,11.2-.3,16.8Z"/><path class="cls-146" d="M164.9,98.7V81.5c-.2-.1-.3-.3-.2-.4s0-.3.1-.3a.5.5,0,0,1,.7,0h.2c0,6.3-.1,12.5-.2,18.7Z"/><path class="cls-147" d="M144,101v17.2c-.3-3.4-.6-6.8-.7-10.2s-.1-5.7-.1-8.5A10.9,10.9,0,0,1,144,101Z"/><path class="cls-1" d="M15.1,211.1c-.1-1-.4-1.5-.3-2s.6-.7,1-1.1.9,1,.8,1.4S15.9,210.3,15.1,211.1Z"/><path class="cls-1" d="M16.3,265.9v-1.5l-.4-1.8.9-.2.3,3.9h-.3C16.6,266.2,16.4,266.1,16.3,265.9Z"/><path class="cls-1" d="M21.5,277.1l-3.2-.4.2-.7,3.1.5Z"/><path class="cls-148" d="M67.8,350.6h0Z"/><path class="cls-3" d="M50.4,300.5l1.7,1a10.2,10.2,0,0,1-2.2,1.4c-.2.1-.7-.7-1.1-1.1Z"/><path class="cls-88" d="M43.9,64.2V65H41v-.6Z"/><path class="cls-149" d="M67,80.8l1.6-1.6h.6c5.3.4,10.5-.6,15.7.6a.8.8,0,0,1-.1,1.2c-2.8,1.4-5.8.5-8.7.8s-4.2-.3-6.3.3-.9,2.5-.9,3.8c-.1,4.4-.1,8.7,0,13.1a1.6,1.6,0,0,1-.8,1c-6.3.6-12.7,1.4-18.9-.5h-.1v-.8c5.6-.8,11.2-.1,16.7-.4,1.5-.7.8-2.1.9-3.2C66.9,90.3,66.3,85.5,67,80.8Z"/><path class="cls-150" d="M66.3,98.7H49.1l6-.7H66.3c.2.1.3.3.2.4S66.4,98.7,66.3,98.7Z"/><path class="cls-1" d="M52.9,70.2c.1,3.1-1.8,2.7-3.8,2.3l2.1-4.1,1.7,1.8Z"/><path class="cls-1" d="M54.8,83c-.7-.8-1.4-1.3-1.3-1.7s.6-.9,1-1.4a7.5,7.5,0,0,1,1,1.7C55.6,81.8,55.2,82.2,54.8,83Z"/><path class="cls-1" d="M52.9,70.2l1.9-1.8.6.8-2.5,1Z"/><path class="cls-1" d="M55.4,61.7l-.9,2.2a3,3,0,0,1-.2-1.3C54.3,62.3,54.8,62.2,55.4,61.7Z"/><path class="cls-151" d="M108,235.4c-2.8-4.3-.9-8.9-.9-13.4,0-.2,1.1-.4,1.6-.6s3-1.3,3.7-3.5,1.9-.4,2.7.5a20.8,20.8,0,0,1,.1,3.5c-.1.6-.6.7-1,1s.7-.2,1-.3l1.8-.3h2.2c1.1,0,.6-.6.3-1.1a4.8,4.8,0,0,1,0-2.9c.9-2,2.9-2.3,4.3-3.4,5-1,2.1,2.8,2.8,4.5-1.7-.8-.6-2.1-.9-3.2a92.6,92.6,0,0,1,.3,12.9c0,1.3.4,2.8-.7,3.9a2.5,2.5,0,0,1-1.2.4,3.9,3.9,0,0,1-2.8-2,15.4,15.4,0,0,1-1.1-3c-1.7-3.5-4.8-1.5-7.2-1.8-.9,0-1.9-1-2.4-.1s.6,1.6,1.3,2.3a1.5,1.5,0,0,0,1.9.8,1.7,1.7,0,0,1,1,.3c1.9,1.2,4.4-.2,6.2,1.5s-1.9,3.1-3.7,3.7S111.1,234.7,108,235.4Z"/><path class="cls-42" d="M92.4,242.7l1.8,2.1a11.5,11.5,0,0,1-1.5,4.4c-1.5,1.5.1,3.4-.5,5,.9-1.6-1.1-3.6.6-5.1s2.4-.3,2.7,1.3-.4,2.7-.5,4c.2-.5.1-1.3.9-1.3s.6.4.6.7v19.4c-.4,4-3.4,2.1-5.5,2.5s-2.2-1.4-3.5-1.7c-2.5-2-5.9-.4-8.5-2l-3-1.7c-.2-.6.2-.9.6-1.2,1.9-1.2,3.7.5,5.5.1h1a26.8,26.8,0,0,0,4,.2h1c4-.8,2.3-3.6,2-5.9-.5-4.2.2-8.4-.4-12.6a6,6,0,0,1-.2-2.3,10.8,10.8,0,0,1,.8-1.9l.4-1.3c.1-1.1-.2-2.2.9-3A.7.7,0,0,1,92.4,242.7Z"/><path class="cls-11" d="M171.5,249.4l1.6,1.6c1.8,1,4.1-.7,5.6,1.2-.2,4.2-.2,4.2-4.4,4.3-1.2.1-3-.7-3.1,1.6s-.4,6.2.4,9.3v1.3c1,.9,1,1.8-.1,2.7s-2.1-.6-3.1-.7-1.5,0-2.2-.2h0c-1-2.8-2.1-5.7-1-8.8,0-.7-.2-1.4.5-1.9s.6.1,1,.3a2.3,2.3,0,0,1,0-1.8c-.4-.2-.4.4-.8.3s-.3-2.2-1-3.2v-1.5a5.9,5.9,0,0,0,0-3.7v-.8c1-2-.7-4.3,1-6.1.4.7.9.4,1.9-1.1s2.7-.8,3,1.2c-1.7,1.1-1.1,2.5-.4,3.8S171.1,248.7,171.5,249.4Z"/><path class="cls-73" d="M82.3,269.5H76.7c-1.5-.8-1-2.3-1-3.6-.3-5.5.5-11.1-.3-16.6-.1-1.8-.9-3.8,2.3-4.1.9-.1,1.8-1.9,2.7-2.9a1.8,1.8,0,0,1,1.2.9c.5.8.5,1.9,1.4,2.5s3.1.1,4.5.9.8.8.4,1.4-3.4.5-4.9,1.3c-2.4,3.7-1.5,7.8-1.1,11.8.5,2.4.2,4.8.4,7.2Z"/><path class="cls-61" d="M107.4,275.6l-2.8-3c-.1-2.5,1.8-2.3,3.4-2.6h1.9c-.3-.1-.9.1-1.2-.5l4.5-.8c1.3-4.7.5-9.5.4-14.1s1-3.4,3.3-2.7a2.3,2.3,0,0,1,1.3,3.1c-1.3,1.3-.5,2.9-.7,3.6s.8.4.3.7a4.4,4.4,0,0,1,.2-4c.5-.1.8,0,.9.5.2,3.9-.3,7.7.3,11.6v.8c-.6,1.5-.1,3.1-.4,4.7s-.5,2.3-2,2.4h-5c-1.2-.1-2.4-1.7-3.8-.4Z"/><path class="cls-152" d="M68.5,289.9H51.3a.9.9,0,0,1,.4-1.1,8.8,8.8,0,0,1,4.3-.6h5.2c4.8-.1,4.8-.1,4.8-4.8V252.1a6.1,6.1,0,0,1-.1-1.4c.1-5.7.2-11.3,0-17s0-10.3,0-15.4c.2-1.4,0-2.9,1.2-4l1.3,3.7a209.2,209.2,0,0,0,0,22.4Z"/><path class="cls-153" d="M123.8,214.9,120,218h-.5c-1.3-.5-2.7-1.2-3.9.3l-.9.5-2-.2c.3,3.2-2.1,2.6-4,2.9a2.6,2.6,0,0,0,.1-1.5c-2.1-4.8,1.4-7.5,4.2-9.9s4.2-.4,6.4-.5c.9,2.3,3.1,3.5,4.5,5.4Z"/><path class="cls-71" d="M94.7,220.8H92.6c-1.1.9-.1,2.2-.8,3.1-2.3-1.4-2.8-4.1-4.2-6.1.9-1.6,1.6-3.4,3.7-3.7l1.4-.6a5.3,5.3,0,0,1,2.5,0c1.1.3,2.3,1.3,3.4-.1a4.4,4.4,0,0,1,1.4-1.3l.7-.2c-1.7-3.8,2-6.8,1.4-10.5-.1-.7.2-1.8,1.4-1.7a.8.8,0,0,1,.5,1v16.5c-.3,2.1-1.5,2.9-3.5,2.9A27.8,27.8,0,0,0,94.7,220.8Z"/><path class="cls-42" d="M140.3,255.4v1.1a9.5,9.5,0,0,1,0,5.3V264a23.2,23.2,0,0,1,0,8.3v1.9a1.4,1.4,0,0,1-1.5.1.6.6,0,0,1,.1-.9c.5-1.6.1-3.3.5-4.9-.3,1.7.1,3.6-.8,5.2a2.8,2.8,0,0,1-3.3-1.6,5.7,5.7,0,0,1-.4-2.2,20.8,20.8,0,0,0,0-2.5c-.9-1.5-2.2-.3-3.3-.6a2.7,2.7,0,0,0-1.2.3,3.9,3.9,0,0,0-1,.8l-.9,1c-2.2,2-2.6-.5-3.6-1.5s1.2-3.8.2-5.8a2.7,2.7,0,0,1,.8-1.7c1.1-.5,1.8.5,2.7.6a6.1,6.1,0,0,1,1.3.3,4.8,4.8,0,0,1,1.8.6l.9.5c.5-.3,1.1,2.1,1.5-.2l.6-1.5c0-.2.1-.4.1-.7C135.2,254.5,135.4,254.4,140.3,255.4Z"/><path class="cls-42" d="M158.5,262.1l2.7.9a2.2,2.2,0,0,1,.5.8,2.3,2.3,0,0,1-.4,1.4c-2,.8-1.3,2.3-1,3.7v.8a1.6,1.6,0,0,1-1.5,1.1,1.7,1.7,0,0,1-1-.3,3.3,3.3,0,0,1-.7-2.8c-1.2.1-2.2,1.1-3.3.4l-8.3-2.2c1-2.3-.5-4.6,0-6.9s-.1-2.5,1.1-3,1.8.4,2.2,1.4,0-.6.1-.7,1.4-.2,1.7.6,0,2.9,1,4.1l1.1.7A11.4,11.4,0,0,1,158.5,262.1Z"/><path class="cls-1" d="M164.1,220.2c0,1.6.1,3.2.1,4.8s.4,3.4,3.2,3.7,1.6,3.1,1.4,5.1c-2,.3-.8-1.6-1.4-2.1s-.4-.1-.2,0,.2,1.6.4,2.4-1.2,1.3-1.9,1.7c-3.7.8-4.9-1.3-5.3-4.4s-.8-4.4.8-6.4.1-1.5-.8-2.1-2.7-3.4-4.6-4.5c.6-1.3,1.7-.5,2.4-1.1l2.2-.9A44,44,0,0,0,164.1,220.2Z"/><path class="cls-154" d="M158.2,217.3c.7.6-3.3.3-.4,1.4s1.5,4.4,4.6,3.7a7.1,7.1,0,0,1,.2,2.5c-.6,2.2-1.5,4.4-2.2,6.5-.2-.5-.7-1.1-.7-1.6.6-3.5-1.1-4.5-4.2-4.3-1.4,1.7-.3,3.8-.8,5.6a.7.7,0,0,1-.9.4c-1.6-1.5-.6-3.8-1.6-5.4s-.7-5.8.2-8.6a1.2,1.2,0,0,1,.8-.6c.8.6,1.1-.7,1.9-.5Z"/><path class="cls-107" d="M153,217.2v8.2c.6,1.1.2,2.2.3,3.3a3.1,3.1,0,0,1-3,1.2c-1.1-.8-1.1-2-.9-3.2.7-6.3.3-12.7.2-19.1,0-2.3,1.6-4.6,0-6.9s-.9-2.1.1-3.1,2.3.1,3.2-.6l1.5.8a2.9,2.9,0,0,1-.3,1.8c-.3,4.4,0,8.7-.1,13C154,214.2,154.2,215.8,153,217.2Z"/><path class="cls-155" d="M33.5,233.8c4.2-.1,8.4-.2,12.6-.1,2.7.1,3.9-.4,3.7-3.6s-.1-8.9,0-13.3c.1-.9,1.1-1.7,1.6-2.5s1.7,0,1.7,1.1c-1.4,5.4-.6,10.9-.6,16.4,0,2.2.5,4.7-2,5.9s-5.1.9-7.2-1.3l-8.8-.7a2.3,2.3,0,0,1-1.1-.3C33.1,234.8,33,234.3,33.5,233.8Z"/><path class="cls-156" d="M125.3,267.4c1.1,0,1.4,2.8,3,.8.6.5.1,1.3.6,2s.2-.1.2-.1a2.6,2.6,0,0,1-.1-2.7l.7-.8c1.1.8.9,2.1,1.5,3.1s3.4.7,4.6,2.2l3,1.5h0v.7c0,1.8-1.4,1.1-2.1,1.1-2.8.2-5.6-.2-8.4.3l-4.3-4.4C124.3,269.8,123.3,268.1,125.3,267.4Z"/><path class="cls-72" d="M150,257.7c-3.4-1.3-3.7-1.1-3.8,2.5a55.4,55.4,0,0,1-.7,5.7v-1.8c-.6-2.3-.1-4.6-.3-6.9s.8-2.1,1.9-2.6c.2-3.1,1.9-4.1,4.9-3.8l7.8.3a5.9,5.9,0,0,1,.3,3.9c-.5,2.5-1.2.9-1.9,0s-2.4-2.1-4-.8-1.5,2.1-2.6,2.9a.5.5,0,0,1-.1.6A1,1,0,0,1,150,257.7Z"/><path class="cls-61" d="M106.7,252.4c0,5.7.1,11.5.1,17.2-1.8.6-2.1-.9-2.7-1.9a2.1,2.1,0,0,1-.1-1.1c1.4-1.7,1.4-1.7,1.6-8.6a46.4,46.4,0,0,0-.1,5.3c.1,1.5-.5,2.6-1.9,2.6s-1.3-1.5-1.2-2.6.8-2.2-1.1-2a22.4,22.4,0,0,1,0-7.3c1.6-.3,1.1.9,1.2,1.6s.2.2.1.2.1-1.3-.4-1.8a2.7,2.7,0,0,1-1-1.8C103.1,250.2,104.9,251.8,106.7,252.4Z"/><path class="cls-70" d="M168.6,270.4l1-.7a8.8,8.8,0,0,1,1.2,1.5l.9-2.5a11,11,0,0,0,3.6.1c3.6-.8,4.5.7,3.7,3.9-.2,1.6-.7,2.9-2.9,2.6a48.6,48.6,0,0,0-5.4,0c-3-.3-1.7-2.7-2.1-4.3Z"/><path class="cls-157" d="M150,226.9l.7,3c-.8,2.4.7,3.6,2.4,4.7-.9,1.8-2.7.4-3.9,1.2a29.7,29.7,0,0,1-.7-4.3c-.1-4,0-8.1.1-12.1a15.2,15.2,0,0,0,0-6c-.1-5-.1-10-.1-15,0-.5.5-.9.7-1.4a1.9,1.9,0,0,1,.8.7v2.2c1.1,2,.3,4.2.3,6.2C150.2,213.1,150.8,220,150,226.9Z"/><path class="cls-158" d="M134.3,232.9l-3.7-3c.8-4,.1-8,.3-12.1.6-1.5,1.1-3.1,3-3.4s3.4,1.7,2.4,4.2a3.5,3.5,0,0,1-1,1.1c-.8.5-1.5,1.1-1,2.1a4.2,4.2,0,0,1-.1,3.8c-.5,1.3.2,2.3.7,3.4S135.7,231.8,134.3,232.9Z"/><path class="cls-2" d="M138.6,229.1l3.9-.4c2.4-.4,2.6.9,2.2,2.7s.1,2.3-.8,3.2a22.2,22.2,0,0,1-5.1.6c-3.8-.1-4.6-1.6-2.7-4.9a3.7,3.7,0,0,1,1.2-1.3l.7.2c.5.1-.2,0,.3.2a8.8,8.8,0,0,0,1.7.2C139.5,229.4,138.9,229.7,138.6,229.1Z"/><path class="cls-88" d="M123.8,232.9c.5-1.1,1.4-2.1,1.4-3.2.2-4.4.1-8.8.5-13.2l.9,2.9c-.1,5-.1,10-.2,15.1-3.1,1.4-6.2,1.9-9.3-.1l3.7-3c.3-.2.5-.3.8,0l2.2,1.5a2.7,2.7,0,0,1-1.2.9A2.7,2.7,0,0,0,123.8,232.9Z"/><path class="cls-88" d="M135.8,218.7l-1.5-3.8a1.7,1.7,0,0,1,.6-2.7c2.9-.1,5.8-1.1,8.5.6a1.3,1.3,0,0,1-.9,1.9c-1,.4-1.1,1.1-1,2-.3,3-3.1.6-4.2,2s-.1,5-.2,7.4c-2.8-1.5-1.1-4.2-1.6-6.3A1.1,1.1,0,0,1,135.8,218.7Z"/><path class="cls-2" d="M135.8,219.4l1.3,6.7.2,2.9v.3c-.3,1.6-.7,3.1-1,4.7h6a6.4,6.4,0,0,1,1.7.5.6.6,0,0,1-.2,1c-2.7.4-5.4-.3-8,.4l-1.5-2.9c-.3-1.5-.7-3.1-.9-4.6a28.1,28.1,0,0,1,.1-2.9l1.1-1C135.5,222.8,134.2,220.8,135.8,219.4Z"/><path class="cls-159" d="M125.3,267.4l-1.3,3.7h-.3v-.2a95,95,0,0,1,.1-16l2.2-.3c1.1.3,1.5,1.2,1.9,2.2a7.3,7.3,0,0,0,.8,3.3,1.5,1.5,0,0,1-.4,1.4l-2.2-1.5c-.9.2-.7.9-.8,1.5a15.5,15.5,0,0,1,.6,3.1A16.7,16.7,0,0,1,125.3,267.4Z"/><path class="cls-160" d="M117.1,290.8h37.4a.9.9,0,0,1-.6,1.1c-1.8.8-3.7.5-5.5.5q-13.2.2-26.4,0c-1.5,0-3,.2-4.4-.5A.9.9,0,0,1,117.1,290.8Z"/><path class="cls-42" d="M158.9,253.9v1.4h.7v-4.3c1.6,5.2,1.2,5.8-3.8,5.8l-4.4.2,1.5-3.9C155,252.6,157.1,252.4,158.9,253.9Z"/><path class="cls-161" d="M164.1,220.2c-2.1-.5-3.9-1.2-3.7-3.8,0-5,.3-5.3,5.2-5.1,1.1,1.7.2,3.4,0,5.1s-1.5,1.8-2.9,1.1a2.7,2.7,0,0,1-.6-1.7,1.8,1.8,0,0,0,.2,1.4c.5.8,1.6,1.2,1.8,2.2Z"/><path class="cls-162" d="M103.6,199.9h-.7c-3.1-1-6.3-.2-9.5-.5s-4.2.2-6.2-.7a1.2,1.2,0,0,1,0-1.6h15.7c.4,0,.9.5,1.4.7S104.3,199.3,103.6,199.9Z"/><path class="cls-163" d="M117.1,252.4c-2.4-.6-3.2.2-3,2.7.2,4.5,0,9,0,13.5l-.2.2h-.7c-.2-5.2-.4-10.3-.5-15.5a4.2,4.2,0,0,1,1.5-2.3c1.6.8,4.3-1.9,5,1.5A1.5,1.5,0,0,1,117.1,252.4Z"/><path class="cls-164" d="M96.2,253.2a14.9,14.9,0,0,0-1.5,2.1c0-1.9-.1-3.1,0-4.4s-1-1.7-2.3-1.5h0l1.8-4.6,2.6.9c-1,1.2.1,2.5-.3,3.8S96.9,252,96.2,253.2Z"/><path class="cls-165" d="M85.8,231.4c0-10,0-20,.1-30a.9.9,0,0,1,1.1.5c1.1,4.1.4,8.3.4,12.5.1,2.5,0,4.9.1,7.4a5.7,5.7,0,0,1,.1,1.3c-.3,2.4.1,4.8-.4,7.2C87,230.9,86.7,231.5,85.8,231.4Z"/><path class="cls-166" d="M158.2,270.4h.7c.5.8-.2,1.1-.7,1.4l-.8,1.6c-.4.5-.7,1.1-1.4,1.1s-1.5-.1-2.1.5a1.6,1.6,0,0,1-.9.3,6.3,6.3,0,0,1-1.9-.3c-2.5-2.2-2.5-2.2,1.2-3.9l.6-.6c.2-.2.3-.3.5-.2C155,268.8,156.6,269.3,158.2,270.4Z"/><path class="cls-37" d="M127.6,256.9c-.6-.8-1.1-1.6-1.6-2.4a18,18,0,0,0,.8-2.1,5,5,0,0,1,2.7-.2,6.4,6.4,0,0,1,3.1.6,1.6,1.6,0,0,1,.2,2.3l-1.3,1.3-.6.6-.7.5-1.1.5h-.9C127.9,257.7,127.8,257.2,127.6,256.9Z"/><path class="cls-167" d="M117.1,290.8v.5c-1.1,1.3-2.7,1.1-4.2,1.1H97.8c-2.1-.3-4.4.3-6.5-.6a.8.8,0,0,1-.3-1.1Z"/><path class="cls-1" d="M162.7,217.2c.9-.5,2.8.4,2.3-2s.4-2.6.6-3.9c4.4.1,1.6,2.7,1.5,4.4a2.2,2.2,0,0,1-.4-1.7c-.3.9.5,2.6-.2,4.1l-2.4,1.3-2.2-2.2C162.2,216.9,162.4,216.9,162.7,217.2Z"/><path class="cls-79" d="M155.1,201.4v12.8c-.7.4-1.3.4-1.7-.3-.1-4.1-.1-8.1,0-12.1C153.8,201,154.4,201,155.1,201.4Z"/><path class="cls-168" d="M117.1,234.4h9.3c-.3.4-.6,1.3-.9,1.3l-17.5-.4a19.8,19.8,0,0,1,3.3-.8Z"/><path class="cls-169" d="M122.3,176.6H99.2a1,1,0,0,1,.4-1.2,103.9,103.9,0,0,1,22.3,0A1,1,0,0,1,122.3,176.6Z"/><path class="cls-170" d="M75.4,249.4l.6,14.5c.2,1.9.5,3.8.7,5.7a2.3,2.3,0,0,1-.7.7c-.2-.4-.7-.9-.7-1.3C75.3,262.5,75.3,255.9,75.4,249.4Z"/><path class="cls-171" d="M68.4,240.4c-.2-3.2-.6-6.4-.6-9.5s.4-8.6.6-12.9Z"/><path class="cls-162" d="M101.4,252.4l.8,1.5h0v7.5c.6,2.1-.6,4.3.6,6.3s.1,2.7-2,1.9c0-5.7-.1-11.5-.1-17.2C101,252,101.2,252.1,101.4,252.4Z"/><path class="cls-172" d="M129.1,253.2l-2.3-.8c2.7-2.7,9.2-2.2,10.4.9.2,1.2-.4,1.5-1.4,1.6l-1.6-1.3A5.2,5.2,0,0,0,129.1,253.2Z"/><path class="cls-173" d="M103.6,199.9l.7-2.2v21c-.6.1-1,0-.7-.8Z"/><path class="cls-174" d="M81.2,243.4l-.8-1c.6-.4,1.1-1.2,1.7-1.3,2.9-.1,5.7-.2,8.6-.1.6.1,1.1,1.1,1.7,1.7h-.7a12.4,12.4,0,0,1-2.7.3C86.4,243.4,83.9,244.1,81.2,243.4Z"/><path class="cls-73" d="M79,272c2.8,0,5.8-1.3,8.2,1.4-2,1.5-4.5,1-6.8,1.5Z"/><path class="cls-175" d="M90.2,277.9a15.1,15.1,0,0,0-2.8-1.5,35.5,35.5,0,0,0-4.7-.6c1.2-1.5,3-1.4,4.4-1.1,3.3.6,6.5.4,9.8.8l-3.7,2.4C92.2,278.2,91.2,278.7,90.2,277.9Z"/><path class="cls-159" d="M135.8,254.7a18.5,18.5,0,0,0,1.4-1.4l3.1,2.1c-3-.3-5.2.2-4.6,4.1.1.6-.5,1.3-.7,1.9s-2.6.1-3.7.8l-1.5-.8a.9.9,0,0,1,.2-1c1.4-1,4.5-.1,4.1-3.4a2.9,2.9,0,0,1,.4-1.6C134.7,254.9,135.1,254.4,135.8,254.7Z"/><path class="cls-176" d="M161.2,265.2v-1.4c1.4-1.1,2.8-1.4,4,.3s.1,1-.3,1.3-1.1,1.3.3,1.5a1.2,1.2,0,0,1-.3,1.3l-4.4-.6C159.8,266.5,160.6,265.9,161.2,265.2Z"/><path class="cls-27" d="M143.2,214.2a25,25,0,0,0-3.8-1.5,32.3,32.3,0,0,0-4.4,0,.8.8,0,0,1,0-1.3h1.5c2.7.8,5.4-.3,8,.6.1,1.5.1,3,.1,4.5s-1.6.7-2.1-.1A1.6,1.6,0,0,1,143.2,214.2Z"/><path class="cls-177" d="M31.9,232.9h.7l.2.8c1.6,5.8,1,11.7.6,17.6a2.1,2.1,0,0,1-.8,1.1H32C32,245.9,32,239.4,31.9,232.9Z"/><path class="cls-89" d="M164.9,268.2v-1.5a1.2,1.2,0,0,1-.1-1.6l-3.6-1.3V263l3.8-1.6q.3-.4.6,0c.3,3,.5,6.1.7,9.1A17.6,17.6,0,0,1,164.9,268.2Z"/><path class="cls-178" d="M80.4,274.9l6.8-1.5,3,1.5c-2.7,1-5.5-.2-8.2.6Z"/><path class="cls-89" d="M158.2,270.4h-4.8c.1-.7.3-1.4.4-2.2l3.9-2.3C157.8,267.2,158,268.8,158.2,270.4Z"/><path class="cls-179" d="M52.9,214.9l-1.5-.6H67.1c0,1.2,0,2.4-.1,3.6s-1.4-.9-2.2-1.4c-3.4-1.3-6.9-.1-10.3-.7A2.4,2.4,0,0,1,52.9,214.9Z"/><path class="cls-180" d="M32.8,251.6V233.7h.7v1.4c1.8,3,.7,6.3,1,9.5a33.8,33.8,0,0,1-.1,4.5,3.2,3.2,0,0,1-.5,1.9A.9.9,0,0,1,32.8,251.6Z"/><path class="cls-181" d="M171.5,249.4l-1.4-1.5c-.3-1.5-1.1-3,0-4.5l-2.2-.7a1.9,1.9,0,0,1-1.8.2c-.6-.4-.9-.8-.1-1.3s3.7-.4,5.5.3Z"/><path class="cls-182" d="M145.5,275.5c-.9-1.9-2-3.8.7-5.2.9.9,2,.2,3,.6-2.1.9.2,3.1-1.2,4.1S146.3,275,145.5,275.5Z"/><path class="cls-183" d="M122.3,176.6V176a3.4,3.4,0,0,1,3.1-1.1c4.9.5,10-1.2,14.9,1.1v.6Z"/><path class="cls-34" d="M96.2,253.2v-4.5q.3-.6.6,0v17.9c-.2.4-.4.4-.6.1Z"/><path class="cls-184" d="M103.6,217.9l.7.8c-1.1.7-2.2,1.9-3.4,2.1s-4.1,0-6.2,0l5.5-1.4A34.9,34.9,0,0,0,103.6,217.9Z"/><path class="cls-185" d="M82,275.5l8.2-.6c2-.6,4.6,1.5,6-1.5q.3-.4.6,0v2.1l-14.2.3Z"/><path class="cls-186" d="M123.8,254.8c0,5.3,0,10.7-.1,16C123.8,265.5,123.8,260.1,123.8,254.8Z"/><path class="cls-187" d="M143.2,214.2c-.1,1.1-.8,2.6,1.4,2.2l-1.4,2.2a2.9,2.9,0,0,1-2.2-2.2C140.2,214.2,140.5,213.8,143.2,214.2Z"/><path class="cls-188" d="M131.3,217.2c-.2,4.2-.5,8.5-.7,12.7V215.7C131.8,215.7,131.8,216.3,131.3,217.2Z"/><path class="cls-151" d="M123.9,214.9a5.4,5.4,0,0,1-1.7.4c-1-1.9-1.9-3.8-2.8-5.8.3.5.7,1.4.9,1.4C123.5,210.5,123.2,213.1,123.9,214.9Z"/><path class="cls-189" d="M170.9,257.7c1.1-.5,2.2-1.5,3.2-1.5,3,.3,4.4-.8,4.2-3.8.3-.3.5-.4.7,0,.7,3.5-.5,5-4.2,4.6-1-.2-2.2.4-3.3.7S171.1,258,170.9,257.7Z"/><path class="cls-190" d="M128.3,275.5l6.4-.6,4.1-.8h1.4c-.8.5-1.6,1.4-2.5,1.4C134.6,275.8,131.5,275.6,128.3,275.5Z"/><path class="cls-191" d="M131.3,217.2l-.7-1.5,4.4-4.3v1.3l-.7,2.2Z"/><path class="cls-192" d="M104.4,267.4l2.4,2.2a.7.7,0,0,1,.6.1c.3.2.3.3.2.5a.2.2,0,0,1-.2.2l-2.8,2.2-1.7-2.2C104.3,269.9,103.7,268.3,104.4,267.4Z"/><path class="cls-193" d="M99.2,176v.6h-12a1.7,1.7,0,0,1,.1-.7c1.4-1.3,3.2-.9,4.9-1h1.3C95.4,175.1,97.5,174.4,99.2,176Z"/><path class="cls-194" d="M75.3,290.7H87.2a.8.8,0,0,1-.4,1.1,26,26,0,0,1-11.1,0A.9.9,0,0,1,75.3,290.7Z"/><path class="cls-195" d="M119.2,267.4l-.6-12a.4.4,0,0,1,.6,0Z"/><path class="cls-196" d="M91.7,223.9l.9-3-.3,11.2c-1.2.1-1.3-.9-1.5-1.8S90.1,225.9,91.7,223.9Z"/><path class="cls-197" d="M170.1,274.9c1.8,0,3.6.3,5.2-.1s2.5-1.4,3.7-2.1c.4,2.1.2,3.6-2.6,3.1a44.2,44.2,0,0,0-6.3-.2c-.2-.2-.3-.3-.2-.5S170,274.9,170.1,274.9Z"/><path class="cls-61" d="M104.4,267.4c-.4,1.1,1.4,3.3-1.5,3l-2.1-.8,1.4-2.2a1.5,1.5,0,0,1,2.2,0Z"/><path class="cls-198" d="M154.4,231.5c.3-2,.7-4,1.1-6-.1,2.5-.2,4.9-.4,7.4a10.2,10.2,0,0,1-.7,2.9C153.5,234.4,153.2,232.9,154.4,231.5Z"/><path class="cls-181" d="M117.1,274.9l2.1-6.7a28.1,28.1,0,0,1,0,5.8c0,.6-1.4,1-2.1,1.6s-.3-.3-.2-.5A.2.2,0,0,1,117.1,274.9Z"/><path class="cls-199" d="M91.7,230.7l.6,1.4c-2.9,1.5-5.5,1.2-6.5-.7l.7-.7a.8.8,0,0,1,.9-.2C88.8,231.6,90.3,230.4,91.7,230.7Z"/><path class="cls-42" d="M147,254.6c-.6,3.1-1.1,6.3-1.6,9.5-.2-2.6-.5-5.2-.5-7.7C144.9,255.8,146.2,255.2,147,254.6Z"/><path class="cls-10" d="M154.4,231.5v4.3h-5.2l3.8-1.4a4.2,4.2,0,0,1,.3-2.7l.4-.3Z"/><path class="cls-200" d="M117.1,274.9v.7h-9.7v-.7a2.8,2.8,0,0,1,3.7,0Z"/><path class="cls-201" d="M170.9,257.7h.6c0,3.2.1,6.4.1,9.7C171.4,264.1,171.1,260.9,170.9,257.7Z"/><path class="cls-202" d="M167.1,234.4a23.3,23.3,0,0,0-.7-2.5,15,15,0,0,0-1.3-1.1l.7-.6a5.4,5.4,0,0,1,1.8,1.1,9.6,9.6,0,0,1,1.2,2.5.4.4,0,0,1,0,.6A1.4,1.4,0,0,1,167.1,234.4Z"/><path class="cls-203" d="M101.4,252.4h-.7a3.6,3.6,0,0,1,6,0Z"/><path class="cls-168" d="M135.8,235.8l8.2-.6q.3-.6.6,0Z"/><path class="cls-204" d="M141,216.4l2.2,2.2h-5.9l1.4-.9Z"/><path class="cls-88" d="M144.5,211.9l-8-.6Z"/><path class="cls-205" d="M165.7,242.1l.7.6c.2.2.3.3.2.5l-.2.2c-.5,2-.9,4-1.4,6v-7.5C165.4,241.6,165.6,241.7,165.7,242.1Z"/><path class="cls-168" d="M149.2,271.2l-3-.9,6.7.2v.6C151.7,273,150.5,272.2,149.2,271.2Z"/><path class="cls-206" d="M145.5,275.5l2.2-.6a3,3,0,0,1,3.8,0h2.2a.6.6,0,0,1,.2.5c-.1.1-.1.2-.2.2Z"/><path class="cls-207" d="M154.5,291.3v-.5h7.4a.8.8,0,0,1-.4,1.1C159.1,292.5,156.7,293,154.5,291.3Z"/><path class="cls-89" d="M161.2,265.2l-.7,2.4-.2,1.3-.6-4.1Z"/><path class="cls-70" d="M166.3,270.5h2.3a7.5,7.5,0,0,1,0,5.1Z"/><path class="cls-159" d="M140.3,272.3v0Z"/><path class="cls-208" d="M153.7,214.2h1.4v2.2l-.8,2-.6-1.2A3.2,3.2,0,0,1,153.7,214.2Z"/><path class="cls-21" d="M165.6,261.4H165v-6l1.4,3a1.1,1.1,0,0,1,0,1.5Z"/><path class="cls-209" d="M86.5,201.4h-.6c.4-1.4-1.6-3.7,1.3-4.3v1.3a1.2,1.2,0,0,1,.4.9A3.3,3.3,0,0,1,86.5,201.4Z"/><path class="cls-210" d="M179,252.4h-.7l-5.2-1.4a38.5,38.5,0,0,1,4.8-.1C178.3,250.9,178.6,251.9,179,252.4Z"/><path class="cls-211" d="M167.1,234.4h1.7c.2,3.2-2.1.9-3.1,1.4Z"/><path class="cls-212" d="M155.1,201.4h-1.4a2.9,2.9,0,0,1,0-3l.7-.6Z"/><path class="cls-213" d="M75.3,290.7v.6c-1.7,1.6-3.7,1.1-5.6.8a4.1,4.1,0,0,1-1.1-.7.6.6,0,0,1,0-.6Z"/><path class="cls-204" d="M165.7,242.1l-.6-.2h6.4Z"/><path class="cls-214" d="M119.2,255.4h-1.4c-.2-1-.5-2-.7-3h2.1Z"/><path class="cls-215" d="M96.8,273.4h-.6v-6.7h.6Z"/><path class="cls-216" d="M90.2,277.9h3C92.2,279.2,91.2,280.8,90.2,277.9Z"/><path class="cls-11" d="M168.6,275.5v-5.1l1.5,4.5v.7Z"/><path class="cls-217" d="M148.6,213.4v0Z"/><path class="cls-218" d="M166.5,218.1v-5.4h.4l.2,3Z"/><path class="cls-219" d="M153.7,275.6v-.7h0c.6-.7,1.5-.4,2.3-.7l1.4-.8C158.1,277.4,155.1,275.1,153.7,275.6Z"/><path class="cls-89" d="M158.5,262.1h0Z"/><path class="cls-210" d="M107.4,270.4v-.7l1.3-.2,2.4.4v.5Z"/><path class="cls-89" d="M158.2,271.8l.7-1.4,1.4-.7Z"/><path class="cls-220" d="M150,257.7h1.4l.2,3.7C151.1,260.1,150.5,258.9,150,257.7Z"/><path class="cls-214" d="M96.8,248.7h-.6l.6-3Z"/><path class="cls-159" d="M140.3,261.8v0Z"/><path class="cls-221" d="M150,197.7l-.8-.7h3.7Z"/><path class="cls-21" d="M165,250.2v0Z"/><path class="cls-222" d="M87.2,291.4v-.6H91v.5A2.5,2.5,0,0,1,87.2,291.4Z"/><path class="cls-223" d="M144.6,235.2H144v-.8c.2-1,.5-2,.7-3C144.7,232.7,144.7,233.9,144.6,235.2Z"/><path class="cls-122" d="M138.6,229.1l2.4.3-.2.6-2.8-.8C138.2,229,138.4,228.9,138.6,229.1Z"/><path class="cls-224" d="M161.9,291.3v-.5h3.8a4.3,4.3,0,0,1,.1.5l-.3.4-1,.4A2.6,2.6,0,0,1,161.9,291.3Z"/><path class="cls-225" d="M97.7,291.4h.8c1.1.7,2.4.4,3.6.4h42.4a11.5,11.5,0,0,1,2.6.3c2.5.2,3.7.7,1.8,3.5a8,8,0,0,0-.3,7.9c1.6,3.3,1.7,5.9-1.8,7.9a3.4,3.4,0,0,1-1.4.5h-.6l-.6-.9-.3-.9a1.1,1.1,0,0,0-.7-.6c-9.9.3-19.8.1-29.6.2a15.4,15.4,0,0,0-4.8.3,12.7,12.7,0,0,1-1.8.6c-1.7,1-1,2.6-1.1,4-.4,4.3.8,8.6-.7,12.8v.7c-4.7.8-9.5.2-14.3.4-1.4.1-2.9-.4-4.3.4a10.1,10.1,0,0,0-.7,1.5c-.1,5.8-.1,11.5-.1,17.2-3.9.8-7.8.2-11.7.4-1.3.1-2.7-.3-3.9.3h-.8c-.7-1.2-.3-2.6-.3-4-.1-15.7-.1-31.5-.1-47.2.1-1.5-.2-2.9.3-4.3s2.4-1,3.7-1H94C95.2,291.8,96.5,292.1,97.7,291.4Z"/><path class="cls-226" d="M86.5,328.9a68.2,68.2,0,0,1,7.9-.7c3.6-.2,7.2-.1,10.7-.1v.8Z"/><path class="cls-227" d="M70.1,348.3l15.6-.7a1.5,1.5,0,0,1-.1.7Z"/><path class="cls-228" d="M69.2,296.6c.1,17.3.1,34.5.1,51.7v.7h-.7V296.6Q68.9,296.2,69.2,296.6Z"/><path class="cls-229" d="M105.2,327.4c0-4.7-.2-9.5,0-14.2.1-1.3,1-2.5,1.5-3.8a1.6,1.6,0,0,1,.4.7,2.2,2.2,0,0,1,.1.8,4.3,4.3,0,0,1-.4.7l-.3,15.8Z"/><path class="cls-230" d="M166.4,349.1h-.8a3.3,3.3,0,0,1-.7-1.3c-.6-7.2-.2-14.4-.3-21.6-.1-9.9,0-19.9,0-29.8,0-1.7-.3-3.5,1-5h.9a9.4,9.4,0,0,1,.6,4.4v49.4C167.1,346.5,167.4,347.9,166.4,349.1Z"/><path class="cls-231" d="M166.4,349.1c0-19.2,0-38.5.1-57.7l.7.8a4.3,4.3,0,0,1,.3,2.5v51.9a4.3,4.3,0,0,1-.3,2.5Z"/><path class="cls-232" d="M167.2,349.1V292.2a15.5,15.5,0,0,1,.7,3.1V346A17.3,17.3,0,0,1,167.2,349.1Z"/><path class="cls-94" d="M144.7,350.6v-.7a3.1,3.1,0,0,1,2.7-1h14.8a3.8,3.8,0,0,1,2.7.9l.7.8A121.6,121.6,0,0,1,144.7,350.6Z"/><path class="cls-233" d="M144.7,350.6h20.9c-2.8.3-5.7.6-8.6.7s-6.7.1-10,.1Z"/><path class="cls-234" d="M164.9,349.8H144.7a.9.9,0,0,1,.3-1.2,3.5,3.5,0,0,1,1.3-.5c5.1-.3,10.2-.1,15.2-.1,1.3,0,2.6,0,3.4,1.1Z"/><path class="cls-235" d="M164.9,349.2l-19.4-.2c0-.9.6-1.1,1.3-1.4a114.9,114.9,0,0,1,17.6,0,3.2,3.2,0,0,1,1.2.8.8.8,0,0,1,0,.7Z"/><path class="cls-236" d="M144.8,349.1c0,.2-.1.5-.1.8-.5-2.2-1.4-4.3-1.4-6.4.1-10.6.4-21.2.7-31.9.2-.2.4-.2.6.1h.3c1.1,1.2.9,2.8.9,4.2v28.6A8.3,8.3,0,0,1,144.8,349.1Z"/><path class="cls-237" d="M144.6,311.7H106.8a1.5,1.5,0,0,1-.1-.7c1.5-1.1,3.2-1.1,4.9-1.1h28.6c1.5,0,3.2-.1,4.5,1.2A2,2,0,0,1,144.6,311.7Z"/><path class="cls-238" d="M70.1,155.6h-.8c0-.8.1-1.5.1-2.3,1.3-3.2.5-6.5.5-9.8-.1-6.2.6-12.3.2-18.4,0-1.6.2-3.3-.8-4.7l-.7-3c-4.6-.9-9.1-.2-13.7-.4-1.4-.1-2.9.2-4.4-.3-1.3-3.6-.3-7.4-.6-11.1s1.3-4.9,6.1-5,7.4.1,11.1-.2a3.7,3.7,0,0,1,1.8,0c1.6,1,1.2,2.6,1.1,4s-.3,2.3-.2,3.4.9,2.5,2.5,2,2.1-1.8,1.2-2.9-.8-3.6.6-5.4a7.2,7.2,0,0,0,1.2-6c-1-5.2.2-7.3,4.8-9.5,1-.4,2-.7,2.5-2,1.1-2.9,2.3-1.8,3.3.2.3,15.6,0,31.2.1,46.7.1,6.9.1,13.7,0,20.6a5.1,5.1,0,0,1-.8,3.4C80.2,155.9,75.1,154.7,70.1,155.6Z"/><path class="cls-239" d="M69.3,120.5c.8,3.1,2,6.1,2.1,9.2.1,6.8-.3,13.6-.7,20.4,0,1.2-.9,2.2-1.3,3.3-.1-10.2-.1-20.4-.1-30.7Z"/><path class="cls-240" d="M50.7,116.7H65.1a15.5,15.5,0,0,1,3.5.7h-18A.6.6,0,0,1,50.7,116.7Z"/><path class="cls-241" d="M50.7,116.7a2,2,0,0,0-.1.7l-.9.7c-.3-5.7-.3-11.4-.1-17.1l.3-.8a.8.8,0,0,1,1,.1,1.7,1.7,0,0,1,.2,1.2c-.4,1.2.2,2.7-.4,3.9Z"/><path class="cls-242" d="M49.6,101c.1,5.7.1,11.4.1,17.1l-.5.2C49.3,112.5,49.5,106.8,49.6,101Z"/><path class="cls-242" d="M50.6,100.3h-.7l-.7-.7H68.4c.4,1.1-.5,1.1-1.1,1.4C61.7,100.8,56.2,101.7,50.6,100.3Z"/><path class="cls-243" d="M86.5,155.7h-.7c-.8-1.3-.3-2.8-.4-4.2V86.6a19.1,19.1,0,0,0-.2-4.1,2.3,2.3,0,0,1,.2-1.4l.5-.5a1.4,1.4,0,0,1,1.1.9,41.8,41.8,0,0,1,.2,7.1c0,21.7.1,43.4,0,65.1a3.2,3.2,0,0,1-.3,1.4Z"/><path class="cls-244" d="M141.8,155.7H144v.5a4.2,4.2,0,0,1-3.4,1.2c-17.2,0-34.5.1-51.8-.1l-1.1-.2a3.3,3.3,0,0,1-1.3-.7h0c0-.3.1-.5.1-.8h0c1.4-.9,2.9-.3,4.3-.3h45.4c1.4,0,2.7-.4,4,.3Z"/><path class="cls-245" d="M70.1,155.6l14.9-.7c.2.2.3.4.2.5s-.1.3-.2.3Z"/><path class="cls-246" d="M85,155.7V152c.2-.4.4-.4.7,0s0,2.5.1,3.7Z"/><path class="cls-247" d="M69.2,296.6h-.6v-5.2h.7a1.2,1.2,0,0,1,.1,1.5Z"/><path class="cls-248" d="M33.5,289.9h-.7V253.1a1,1,0,0,1,1.2.5,5.7,5.7,0,0,1,.4,1.4c.2,10.3,0,20.7.1,31C34.5,287.4,34.5,288.8,33.5,289.9Z"/><path class="cls-249" d="M33.4,253.2h-.6a1.9,1.9,0,0,1-.2-.7,2.4,2.4,0,0,1,.2-.8h1.1a57.2,57.2,0,0,1,5.9-.2c3.2.2,6.4-.5,9.6.5a1.3,1.3,0,0,1,.7,1,1.7,1.7,0,0,1-1,.9C43.8,254.1,38.6,255.2,33.4,253.2Z"/><path class="cls-250" d="M49.1,289.9H34.2c-.8-11.1-.1-22.4-.4-33.6,0-1.9,1.1-2.2,2.6-2.3s5.7.2,8.6-.1a7.4,7.4,0,0,1,3.3-.1c1.6,1.5.8,3.6,1.4,5.4v1.2c-.6,7.9-.1,15.7-.3,23.5-.1,1.7.6,3.9-1.7,4.8.3.4.8,0,1.2.3S49.3,289.5,49.1,289.9Z"/><path class="cls-251" d="M45.4,253.9a43.9,43.9,0,0,1-7.2.7c-3.1-.2-4.1.7-4.1,3.9.2,10.5.1,20.9.1,31.3h-.7v-36A39.6,39.6,0,0,1,45.4,253.9Z"/><path class="cls-252" d="M50.6,290l-.7-.2a4.8,4.8,0,0,1-.8-3.1c0-10.8,0-21.5.1-32.2a4,4,0,0,1,.7-1.3H50a1.1,1.1,0,0,1,1.2.5c.9,3.1.4,6.2.4,9.3.1,7.4.1,14.7.1,22.1a8.3,8.3,0,0,1-1,4.7Z"/><path class="cls-253" d="M49.9,253.9v35.9h-.8v-.8a237.1,237.1,0,0,1,0-29.2v-.8c-.7-1.6-.2-3.3-.3-4.9S49.4,253.6,49.9,253.9Z"/><path class="cls-254" d="M50.7,289.7v-4.3l.5-.2a1.1,1.1,0,0,1,.7.8,2.9,2.9,0,0,1-.5,3.1,1.5,1.5,0,0,1-.1.7h-.6Z"/><path class="cls-255" d="M85,80.6V80a1.4,1.4,0,0,1-.5-.8,1.5,1.5,0,0,1,.5-.7V77a28.7,28.7,0,0,1,.1-9.7c.2-2.3.5-4.6.7-6.8v.8a5.1,5.1,0,0,1,1.1,3.4V77.3c-.1,1.2-.1,2.4-1.1,3.4h0C85.4,81,85.2,80.9,85,80.6Z"/><path class="cls-256" d="M66.3,98.7V84.2c.1-1.1.5-2.3.7-3.4,0,4.8.1,9.6,0,14.4A14.5,14.5,0,0,1,66.3,98.7Z"/><path class="cls-257" d="M85,78.5v.7a75.8,75.8,0,0,1-16.5,0h.1l11.6-.7Z"/><path class="cls-258" d="M85,67.3v0Z"/><path class="cls-19" d="M74.8,37.3c.3.7.7,1.1.7,1.5s-.6.8-.8.8l-1.5-.9Z"/><path class="cls-30" d="M75.3,158.7h8.2a4.5,4.5,0,0,1,.3,1.1c.2,3.3,1,6.8.2,9.9s-5.7.3-8,2.5h0l-.7-1.5C73.3,166.7,73.7,162.7,75.3,158.7Z"/><path class="cls-259" d="M75.3,158.7v12c-5.2.1-5.3.1-4.9-5.3a52,52,0,0,1,1.1-6.7Z"/><path class="cls-30" d="M83.5,174.4l-2.1-.8.4-.9,1.7,1.7Z"/><path class="cls-30" d="M76,172.2l1,1.9-1,.2v-2.1Z"/><path class="cls-260" d="M86.4,156.5h.9l.6,1a5,5,0,0,1,.2,1.2,11.5,11.5,0,0,1,.1,1.9c.1,2.8.1,5.7,0,8.5s.2,2.8-1,3.9c-.2-3.7-.5-7.3-.7-10.9C86.4,160.2,86.4,158.4,86.4,156.5Z"/><path class="cls-261" d="M87.2,173V159.5a1.2,1.2,0,0,1,1.4,1.3c.3,4.8,1,9.5-.2,14.2a1.1,1.1,0,0,1-1.3.2Z"/><path class="cls-262" d="M87.2,175.2H88c1.6-.8,3.3-1.8,4.4.7H87.3A1.7,1.7,0,0,1,87.2,175.2Z"/><path class="cls-263" d="M143.9,157.2l.8,1.5c-1.4,2.5-.4,5.3-.7,7.9s.5,4.7-.5,7c-2.3.6-2.7-1.2-3.1-2.7a50.6,50.6,0,0,1-.5-6.8c-.1-4-.5-4.3-4.3-4.3-13.4.3-26.8-.2-40.3,0-1.6,0-3.2.2-4.7-.8a.8.8,0,0,1,0-1.5c2.6-.6,5.2-.3,7.8-.3h41.5C141.3,157.4,142.6,156.4,143.9,157.2Z"/><path class="cls-264" d="M143.9,157.2l-2.9.7c-1.1-.6-2.2-.3-3.3-.3-16.2.2-32.5-.4-48.8.3a2.6,2.6,0,0,1-1.6-.7.9.9,0,0,1,0-.7l56.7-.2.7.2Z"/><path class="cls-262" d="M99.2,176h-6c.3-1.9,1.9-1.8,3.2-1.8,14.7-.2,29.5-.2,44.3,0a4.2,4.2,0,0,1,2.1.6.9.9,0,0,1,.4,1.2h-44Z"/><path class="cls-265" d="M143.2,175.9v-.7a1.1,1.1,0,0,1,0-1.5c0-4.1-.1-8.1.1-12.1,0-1,.9-2,1.4-2.9a2.8,2.8,0,0,1-.1.9c-.6,1.9-.1,3.8-.3,5.7-.1,3.5.4,7.1-.3,10.6Z"/><path class="cls-266" d="M144,175.9V164.7h.5Z"/><path class="cls-267" d="M144.6,164.7h-.5c.2-1.7.3-3.4.5-5.1Z"/><path class="cls-268" d="M86.4,61.2h74.3a20.5,20.5,0,0,1,4.2.7l-.6.5a5.6,5.6,0,0,1-2.8.5c-24.5,0-48.9.2-73.3-.1a3.3,3.3,0,0,1-1.4-.4A1,1,0,0,1,86.4,61.2Z"/><path class="cls-269" d="M86.4,61.2V62c1.4,1.6,1,3.5,1,5.4,0,3.8.1,7.7-.1,11.6a6.5,6.5,0,0,1-.4,1.3l-.5.5h-.8V61.3C86,61.2,86.2,61.1,86.4,61.2Z"/><path class="cls-270" d="M165.5,80.8h-.6l-.4-.5a4.2,4.2,0,0,1-.6-1.9c-.1-4.7-.1-9.4,0-14.2a2.7,2.7,0,0,1,.3-1.2,4.1,4.1,0,0,1,.7-1.1h.7C165.6,68.3,165.6,74.5,165.5,80.8Z"/><path class="cls-271" d="M140.2,155.7H86.5v-.8c.7-1.3.3-2.7.3-4.1.1-22.9,0-45.9.1-68.8.2-.6.5-.8,1.1-.5V150c0,4.9,0,4.9,4.7,4.9h43.7A16.9,16.9,0,0,1,140.2,155.7Z"/><path class="cls-272" d="M103.7,118.9l-.8-.7c-1.5-5.6-.5-11.3-.6-16.9a3.1,3.1,0,0,1,.6-1.3c6-1.5,12.1-.9,18.2-.4a2.4,2.4,0,0,1,.9,1.1c.3,6.1,1.1,12.2-.7,18.2v-.2c-.2.2-.3.5-.5.6C115.1,119.8,109.4,120.4,103.7,118.9Z"/><path class="cls-273" d="M88,81.5h-.8a1,1,0,0,1,.5-1.3c1.4-.7,2.9-.5,4.4-.5h67.8c1.7,0,3.5-.3,5,.9v.9H88Z"/><path class="cls-274" d="M102.9,100.3a.9.9,0,0,1-.1.7.6.6,0,0,1-.8.1.8.8,0,0,1,.1-.8l-.7-1.5a112.3,112.3,0,0,1,20.9-.1h0c.3.2.4.4.3.5s-.2.3-.3.3v.8a.4.4,0,0,1-.6,0h0A78,78,0,0,0,102.9,100.3Z"/><path class="cls-275" d="M122.3,98.7H101.4a3.5,3.5,0,0,1,.1-.7l20.3.2C122,98.3,122.1,98.6,122.3,98.7Z"/><path class="cls-276" d="M103.7,118.9l17.7-.2c-.2.6-.3,1.2-.5,1.7-4.5-.8-9.1-.1-13.6-.3-1.5-.1-3,.4-4.3-.4Z"/><path class="cls-277" d="M103,119.7h14.4c1.2.1,2.3.5,3.5.7h-18Z"/><path class="cls-278" d="M102.2,101h.6c0,5.7.1,11.5.1,17.2l-.8-.8A81.7,81.7,0,0,1,102.2,101Z"/><path class="cls-279" d="M102.2,101c0,5.5-.1,10.9-.1,16.4V100.3C102.1,100.5,102.2,100.7,102.2,101Z"/><path class="cls-280" d="M135,99.5h-8.9c-.3-.2-.4-.4-.3-.5l.3-.3H135c.3.2.4.4.3.5Z"/><path class="cls-281" d="M135,99.5v-.8h6v.8Z"/><path class="cls-282" d="M126.1,98.7v.8h-3.8v-.8Z"/><path class="cls-283" d="M121.6,100.3h.7a82.7,82.7,0,0,1,.1,16.5c-.4.7-.7,1.5-1.1,2.2Z"/><path class="cls-284" d="M122.4,116.7c0-5.5,0-11-.1-16.5C122.4,105.7,122.4,111.2,122.4,116.7Z"/><path class="cls-112" d="M68.4,98.7v-18l.8,1.2c.6,4,.1,8.2.3,12.3C69.4,95.8,69.9,97.5,68.4,98.7Z"/><path class="cls-285" d="M68.5,81.5v-.8H85l.7.2v.7a2.3,2.3,0,0,1-1.2.6,61.1,61.1,0,0,1-14.8.1Z"/><path class="cls-286" d="M68.5,79.2H85V80H72A15.5,15.5,0,0,1,68.5,79.2Z"/><path class="cls-287" d="M68.4,98.7l.2-4.5a.8.8,0,0,1,1.1.4c.8,2.2,1.1,4.3-.4,6.3H67.7l-.2-.3.3-.4.6-.9A.8.8,0,0,0,68.4,98.7Z"/><path class="cls-288" d="M112.7,226.4a49.3,49.3,0,0,1,6.6-.7c.5.1,1,1.8,1.5,2.7a.8.8,0,0,1,.1,1.1c-1.2,1.6-2.9,1-4.5,1.2a3.3,3.3,0,0,1-2.3-.7h-.7a2.2,2.2,0,0,1-1.3-2.7A1.6,1.6,0,0,1,112.7,226.4Z"/><path class="cls-289" d="M114.7,218.7a.6.6,0,0,0,.2-.7c1.7-2.4,3.4-.6,5.1,0h0v3.7c-.7.9-1.8.6-2.8.7a3.4,3.4,0,0,1-2.4-.6Z"/><path class="cls-54" d="M112.7,226.4c.1.2.1.4-.1.5s0,1.7-.7,2.3a21.5,21.5,0,0,1-2.8-2.3c-.2-.2.4-1.2.7-1.8Z"/><path class="cls-290" d="M120.7,228.9v-.3l.2-.2c.3,1,.5,2,.8,3h-.8l-6.7-1.4h2.3C118,230.2,119.8,231.3,120.7,228.9Z"/><path class="cls-291" d="M114.8,221.8h2.3a1,1,0,0,1,0,1.4h-1.9l-2.1.2Z"/><path class="cls-292" d="M117.1,223.2v-1.4H120l1.1-.2c-.1.3-.1,1-.2,1Z"/><path class="cls-293" d="M111.9,229.2l.7-2.3c.2,1,.5,2,.8,3l-1.6,1.3Z"/><path class="cls-294" d="M82.1,247.9H88a1.5,1.5,0,0,1,2.1.1l.2,2.3c.7,5.6-.1,11.2.6,16.8a6.7,6.7,0,0,1-.5,1.9c-2.5,1.4-5.2.5-7.8.6h-.3c-1.4-2.5-.3-5.2-.7-7.8a12.5,12.5,0,0,1-.3-1.9c-.1-1.6,0-3.2-.1-4.7A29.8,29.8,0,0,1,82.1,247.9Z"/><path class="cls-295" d="M81.2,243.4l8.3-1.5c1,.5-1.5,2.1.7,2.4.1,0,1.2,1.3,1.5,1.4l-.7.7c-1.2,1.1-2.5.6-3.8.4s-3.5.4-5.2-.4Z"/><path class="cls-296" d="M90.3,267.4V250.2c.2,4.7.5,9.5.7,14.2C91.3,265.5,92.1,266.7,90.3,267.4Z"/><path class="cls-151" d="M91.7,245.7c-3.7.5-3.1-1.6-2.2-3.8l2.2.8Z"/><path class="cls-164" d="M92.4,249.4l.6,6.8H91.5l.9-6.8Z"/><path class="cls-297" d="M90.3,267.4c.2-1,.5-2,.7-3,1.3,3.8.4,5.6-3,6-.3-2,1.8-.5,2.2-1.6Z"/><path class="cls-73" d="M90.2,268.8,88,270.4h-.8c-1.3-.9-2.8,0-4.2-.6l-.4-.3Z"/><path class="cls-298" d="M87.2,246.4H91l-.9,1.5H88l-.8-.7c-.2-.1-.3-.3-.2-.4S87.1,246.4,87.2,246.4Z"/><path class="cls-297" d="M83,269.8l4.2.6Z"/><ellipse class="cls-204" cx="166.8" cy="250.5" rx="0.2" ry="4.7"/><path class="cls-204" d="M170.1,243.4v4.5C170.4,246.4,166,244.9,170.1,243.4Z"/><path class="cls-204" d="M166.4,259.9v-1.5l.3-1.7c.2.4.6.9.6,1.3a21.1,21.1,0,0,1-.2,2.5c0,.1-.2.1-.2.2Z"/><path class="cls-204" d="M166.4,243.4v-.7h1.5a23.9,23.9,0,0,0-1.3,2.1Z"/><path class="cls-299" d="M81.9,259.9v1.5c-.2.4-.5.4-.7,0a19.1,19.1,0,0,1,.9-13.5c-.1,2.5-.2,5-.2,7.5A7.7,7.7,0,0,0,81.9,259.9Z"/><path class="cls-300" d="M81.2,261.4h.7c.1,2.7.2,5.4.4,8.2C81.9,266.8,81.6,264.1,81.2,261.4Z"/><path class="cls-34" d="M87.2,246.4v.7l-5.2-.7Z"/><path class="cls-301" d="M117.7,262.2v6.6h-.4v-6.6Z"/><path class="cls-302" d="M111.1,274.9h-3.7l.6-1.5Z"/><path class="cls-303" d="M117.8,255.4v4.3H117c.3-1.4.6-2.9.8-4.3Z"/><path class="cls-304" d="M50.6,253.2H50a1.7,1.7,0,0,1-.1-.7c-3.4-.8-6.9-.2-10.3-.4a8.7,8.7,0,0,1-3.2-.2c1.9-3.1,2.1-6.5,1.9-10.1-.3-5.4,0-5.6,5.6-6.5,1.2.7,2.4,1.9,3.7,2,3.6.4,4.4-1.4,4-4.9a118.3,118.3,0,0,1-.2-14.6c.1-.9,1-1.8,1.5-2.8h1.5c3.9,1.1,8-.3,11.9.8l.7,2.2v15.8a76.1,76.1,0,0,0,.1,17.2v.8c-.8.6-.2,1.7-.7,2.4a4.1,4.1,0,0,0-2.3,3.5c-.1,1.1-.5,2.1-1.6,2.3s-1-1.3-1.6-1.6c-3-1.6-4.9-5-8.8-4.7A8.3,8.3,0,0,0,50.6,253.2Z"/><path class="cls-305" d="M51.4,252.4a6.5,6.5,0,0,0,2,.2c.5-.1,1.3-.9,1.5-.7,2.7,2.2,5.2,4.6,8,7.2,1.3-1.2-.9-5.6,3.4-5.2.8,8.7.2,17.3.4,26,0,1.3-.4,2.7.3,4,.1,5.2.1,5.2-5.2,5.2h-6c.3-1.9,1.3-1.4,2.4-.9-1.7-2.2-4.8-1.2-6.8-2.8h0c-.8-5.7-.3-11.4-.3-17.1S50.6,257.7,51.4,252.4Z"/><path class="cls-306" d="M67,283.9a26.8,26.8,0,0,1-.7-2.7c-.2-8.8-.3-17.5-.4-26.3,0-.3.3-.7.4-1l.8-2.2C67.1,262.4,67,273.1,67,283.9Z"/><path class="cls-307" d="M51.4,285.4l7.8,1.4-.2,1.1-3.2,1.2H51.4Z"/><path class="cls-306" d="M67.1,250.9c0-5.7,0-11.5-.1-17.2C67.1,239.4,67.1,245.2,67.1,250.9Z"/><path class="cls-308" d="M120,218h-5.1C116.6,214.8,118.3,215.9,120,218Z"/><path class="cls-158" d="M87.2,199.2v-.8h14.5c.4,0,.8,1.1,1.2,1.6v6.2c0,.5-.3,1.4-.6,1.5-2.7.5-1.6,1.7-.7,3s-.2,2.2-1.7,2.1c-2-2.1,0-5.1-1.7-7.3a4.4,4.4,0,0,0-4.9-.1c-1.7,3,0,6.6-1.6,9.6L88,217.2a2.4,2.4,0,0,1-1-2.2C86.9,209.7,86.5,204.4,87.2,199.2Z"/><path class="cls-309" d="M92.4,204.5h6.1c1.1,3.2.8,6.4.2,9.6-1,1.1-2.1.6-3.2.3l-3-.2A25.8,25.8,0,0,1,92.4,204.5Z"/><path class="cls-310" d="M87.2,215.7l.8,1.5c1.2,2.2,2.4,4.5,3.7,6.7v6.8c-1.5,1.2-3,3.1-4.5,0s.3-5.1-.7-7.5v-.8C87.5,220.3,86.2,217.8,87.2,215.7Z"/><path class="cls-290" d="M98.2,214.1l.3-9.7a42.8,42.8,0,0,1,1.4,4.3,26.7,26.7,0,0,1,0,4l-.7,1.5C98.8,214.5,98.5,214.5,98.2,214.1Z"/><path class="cls-311" d="M92.4,204.5c0,3.2.1,6.4.1,9.6l-.8.8C91.9,211.4,92.1,207.9,92.4,204.5Z"/><path class="cls-312" d="M98.2,214.1h1c-1.2,2.2-2.5,1.1-3.7.1Z"/><path class="cls-313" d="M130.6,270.5l-.9-3.9.5-.6c1.7.9,3.8-.5,5.5.9v2.7C134.4,271.9,132.4,270.8,130.6,270.5Z"/><path class="cls-159" d="M138.8,264.4c-.4-1.1-.9-2.2-1.2-3.3a10.5,10.5,0,0,1-.8-3.5c0-.4,1.2-.8,1.9-1.2a16.7,16.7,0,0,1,.8,3c-.1,2.4-.5,4.8-.7,7.3A1.6,1.6,0,0,1,138.8,264.4Z"/><path class="cls-314" d="M130.6,270.5l5.1-.9a16.9,16.9,0,0,1,.1,2.3Z"/><path class="cls-159" d="M138.8,273.4v-5.3h1c-.4,1.7-.7,3.5-1,5.2Z"/><path class="cls-186" d="M125.3,261.4l-.3-2.6,1.1,1.1Z"/><path class="cls-159" d="M135.7,266.9l-5.5-.9Z"/><path class="cls-159" d="M134.3,262.2l-.6,2.9-1.7-2.9A1.7,1.7,0,0,1,134.3,262.2Z"/><path class="cls-315" d="M129.8,260.7v.7h-1.5v-1.5a1.6,1.6,0,0,1,0-2.2h.7c.9.6.8,1.6.8,2.5Z"/><path class="cls-9" d="M134.3,262.2h-3l3.7-.8Z"/><path class="cls-316" d="M138.8,264.4v2.3C136.4,265.9,137.6,265.2,138.8,264.4Z"/><path class="cls-317" d="M129,267.4v3h-.4l-.3-2.2Z"/><path class="cls-89" d="M155.9,263.1h2.2v.3h-2.2Z"/><path class="cls-318" d="M153.7,198.4v18.8H153c0-5.1-.1-10.2,0-15.3A15.5,15.5,0,0,1,153.7,198.4Z"/><path class="cls-319" d="M152.9,229.2c0-1.3.1-2.5.1-3.8.2,2,.5,4,.7,6h0C152,231.1,152.4,230.2,152.9,229.2Z"/><path class="cls-154" d="M150,226.9v-27c3.1,1.5.7,3.7.7,5.6,0,5.8.1,11.7,0,17.5A26.6,26.6,0,0,1,150,226.9Z"/><path class="cls-107" d="M152.9,229.2c.3.7.5,1.5.8,2.2s-.5,2-.7,3l-3.6-.9,1.3-3.6Z"/><path class="cls-320" d="M43.9,235.2c-5.1.5-5.1,3.9-4.5,7.8.2,1.2-.1,2.5,0,3.7s-.5,4.2-3,4.9a2.8,2.8,0,0,1-2.9.1h-.2a7.7,7.7,0,0,1,.2-1.5c.7-3.6.1-7.3.3-11,.1-1.3-.3-2.7.4-3.9Z"/><path class="cls-321" d="M34.2,235.2c-.2,5-.5,9.9-.7,14.9V235.2Z"/><path class="cls-322" d="M158.9,253.9l-5.9-.7C155.1,252.3,157.2,251.1,158.9,253.9Z"/><path class="cls-74" d="M104.4,267.4h-2.2v-6l.7-.9a8.3,8.3,0,0,1,.8,2.2,11.3,11.3,0,0,1,0,2.6c.5-.9,1.3-1.7,1.4-2.7s0-4.1,0-6.2h1.3C105.7,260.1,105.1,263.8,104.4,267.4Z"/><path class="cls-74" d="M102.2,253.9l.9,3.5-.9.2v-3.7Z"/><path class="cls-2" d="M135,225.4h-1.5c-.1-1.1-.1-2.2-.2-3.2s-.6-3,1.7-2.8A10.2,10.2,0,0,1,135,225.4Z"/><path class="cls-191" d="M135,225.4v-6l.8-.7v.7C135.5,221.4,135.3,223.4,135,225.4Z"/><path class="cls-151" d="M123.9,233.7l-2.3.8-.2-.6,2.3-1.2Z"/><path class="cls-186" d="M128.3,257.7v2.2c-.3-1-.5-2-.7-3Z"/><path class="cls-323" d="M146.2,292.1H102.3a15.9,15.9,0,0,1-3.8-.7h66.4c.2.6.1.9-.4,1.2-3.8,1.2-7.7.5-11.6.6C150.7,292.8,148.4,292.8,146.2,292.1Z"/><path class="cls-158" d="M162.7,217.2h-.8V214h.8Z"/><path class="cls-324" d="M87.2,215.7c-.2,2.2-.5,4.5-.7,6.7v-21l.7-2.2Z"/><path class="cls-324" d="M86.5,223.2c.2,2.5.5,5,.7,7.5h-.7Z"/><path class="cls-325" d="M151.5,274.9h-3.8c.2-.4.5-.9.3-1-2-2,.4-2,1.2-2.7h3.7l-2.5,2.2Z"/><path class="cls-85" d="M156,274.2l-2.3.7C153.4,273.3,153.5,273.3,156,274.2Z"/><path class="cls-175" d="M135,256.9c.3,4.1,1.4,4.1-5.2,3.8h0a3.9,3.9,0,0,1,.1-3.8h.6a4.4,4.4,0,0,1,3.5-.6Z"/><path class="cls-42" d="M135.8,254.7l-.8.7a2.1,2.1,0,0,1-3,0c.3-.7.5-1.5.8-2.2a1.7,1.7,0,0,1,2.2,0Z"/><path class="cls-215" d="M132,255.4h3v1.5h-.7c-1.2-.7-2.6.2-3.8-.6Z"/><path class="cls-186" d="M129.9,256.9c-.1,1.3-.1,2.5-.1,3.8-.3-1-.5-2-.8-3Z"/><path class="cls-42" d="M130.5,256.2l3.8.6h-3.8Z"/><path class="cls-323" d="M69.4,292.9a7.6,7.6,0,0,1-.1-1.5H97.7a17.8,17.8,0,0,1-3.9.7H73.7A20.3,20.3,0,0,0,69.4,292.9Z"/><path class="cls-326" d="M164.8,265.1a8.6,8.6,0,0,0,.1,1.6l-1.4-.3Z"/><path class="cls-327" d="M66.3,215.7l-11.9-.8Z"/><path class="cls-328" d="M143.2,173.7v1.5H97.1a26.6,26.6,0,0,0-3.9.7h-.8l-4.4-.7c-.3-5.2-.5-10.5-.7-15.7v-1.6a2.8,2.8,0,0,1,2.9.1,26.6,26.6,0,0,0,3.9.7c14.3,0,28.7.1,43-.1,3.2,0,4.2,1,4,4.1a39.7,39.7,0,0,0,.2,7.7C141.5,171.6,142.6,172.6,143.2,173.7Z"/><path class="cls-329" d="M164.8,292.2a2.2,2.2,0,0,0,.1-.8h.7v57h-.8a3.9,3.9,0,0,1-.6-1.1,17.9,17.9,0,0,1-.4-4.6c.1-6.8.1-13.7,0-20.5v-1.3a46.8,46.8,0,0,0,0-5.3v-1.4c.1-3.6.1-7.2,0-10.9S162.8,295.7,164.8,292.2Z"/><path class="cls-330" d="M146.2,292.1H153c1.6,8.9.9,17.8.9,26.7,0,2.6,2.9,4.1,2.2,6.1s-2.3,3-2.2,5.3c.2,4.8,0,9.6.1,14.5,0,1.5.2,3.1-2,3.3s-4.3.7-6.2-.7c-.7-11.6-.2-23.1-.2-34.7a3.5,3.5,0,0,1,.6-1.7c3.2-2.4,2.4-4.8,1.2-8.2s-1.4-6.8,1.9-9.1Z"/><path class="cls-331" d="M146.2,310.9v36.7c.3.2.4.3.3.5s-.2.2-.3.2a2.3,2.3,0,0,1-.7.7h-.7c0-12.5,0-25,.1-37.5Z"/><path class="cls-332" d="M144.7,311h-38a2.2,2.2,0,0,0-.1-.8,13.3,13.3,0,0,1,4.8-.7h29.4c1.3,0,2.8-.2,3.9.7Z"/><path class="cls-333" d="M144.7,310.1H106.6c0-.3.1-.5.1-.7h1.5c8.2-.7,16.5-.2,24.7-.2,4-.1,7.9-.5,11.8.3Z"/><path class="cls-334" d="M144.7,309.4H108.2c.4-.2.8-.6,1.2-.6h35l.3.2Z"/><path class="cls-335" d="M146.2,348.3v-.7H153c3.9-1.4,7.9-2.1,11.8,0a.8.8,0,0,1,0,.7Z"/><path class="cls-336" d="M69.3,100.9V94.2a45,45,0,0,1,.2-12.7H85a.9.9,0,0,1-.1,1.4H83.8c.7,4.7-3.8,3.5-5.8,5.1s-2.7,1.4-1.2,3.3c.3.4-.1,1.3-.3,2a6.2,6.2,0,0,0-.2,1.9c.6,3.4.2,6.3-3,8.4a2.3,2.3,0,0,0,.4,1.9c1.5,1.1,2.4,2.3.5,3.8a13.3,13.3,0,0,1-3,1.8c-.8-1.3-2-2.6-2.2-4S69.2,103,69.3,100.9Z"/><path class="cls-337" d="M84.9,83a7.1,7.1,0,0,0,.1-1.4h.7V152H85Q85,117.5,84.9,83Z"/><path class="cls-338" d="M50.7,105.4V101a89.9,89.9,0,0,1,17.2-.1h-.1c-3.7.3-7.4.7-11.1.7S51.1,101.7,50.7,105.4Z"/><path class="cls-339" d="M67.8,100.9H50.6v-.7H67.8Z"/><path class="cls-340" d="M87.2,80.8v69.8a29.7,29.7,0,0,1-.7,4.3V80.8h0C86.8,80.5,87,80.5,87.2,80.8Z"/><path class="cls-341" d="M49.9,253.9h-.8c-.2.4-.5.4-.7,0H33.5c0-.2-.1-.5-.1-.7H49.9Z"/><path class="cls-342" d="M39.4,251.7l10.5.7H39.4c-.2-.1-.3-.2-.2-.4A.2.2,0,0,1,39.4,251.7Z"/><path class="cls-343" d="M39.4,251.7v.6l-5.9-.6h5.9Z"/><path class="cls-251" d="M49.1,259.9v29.2H44.7c3.2-.2,3.9-1.9,3.8-4.8-.3-6.9-.2-13.7-.1-20.5A26.6,26.6,0,0,1,49.1,259.9Z"/><path class="cls-251" d="M48.4,253.9h.7v5.2C48.9,257.4,48.6,255.7,48.4,253.9Z"/><path class="cls-344" d="M51.4,252.4v33h-.7c-.1-10.8-.1-21.5-.1-32.2Z"/><path class="cls-345" d="M90.2,158H87.3a.8.8,0,0,1,0-.7h50.6a19.5,19.5,0,0,1,3.1.7Z"/><path class="cls-346" d="M164.9,62a1.7,1.7,0,0,1-.1.7c-1.4,1.3-3.2,1.2-4.9,1.2q-33.9.1-67.9,0a9.2,9.2,0,0,1-4.3-.6.9.9,0,0,1-.4-1.3Z"/><path class="cls-347" d="M87.3,62a2,2,0,0,0-.1.7,3.7,3.7,0,0,1,.7,1.2c.6,4.5.3,9.1.3,13.7a5.1,5.1,0,0,1-.2,1.3c-.3.6-.6,1.2-1.5.9V62Z"/><path class="cls-348" d="M86.5,79.8l.7-.6C88.6,78,90.3,78,92,78.1h69.5a6.7,6.7,0,0,1,2.4.4,3.3,3.3,0,0,1,1,.6v1.4H86.5Z"/><path class="cls-349" d="M164.2,79.2h-2.3a4,4,0,0,0-3.7,0h-.8c-1.1-.8-2.5,0-3.7-.5a14.6,14.6,0,0,1-2.9-6.6c-1.6.1-1.5,1.2-1.8,1.9a4.3,4.3,0,0,1-4.7,2.9,124.5,124.5,0,0,0-13.7-.6c-5.6.1-11.3.2-16.9.1-2.1,0-2.6,2.3-4.3,2.5-5.9.2-11.8-.5-17.7.3H87.2v-.7a68.4,68.4,0,0,0,.1-15,2.5,2.5,0,0,0-.1-.8h77.6v.8c-.7,3.9-.1,7.9-.3,11.8C164.4,76.6,164.9,78,164.2,79.2Z"/><path class="cls-350" d="M164.2,79.2l.6-15.7c.1,5.3.1,10.5.1,15.7Z"/><path class="cls-153" d="M105.1,101h14.3c.7,4.7.1,9.5.3,14.2.1,1.4-.7,1.9-2,1.9H106.8c-1.3,0-2.1-.4-2-1.9C105,110.5,104.4,105.7,105.1,101Z"/><path class="cls-351" d="M105.1,101c0,4.3.1,8.5,0,12.8-.1,2.3.8,3.1,3.1,3a80.4,80.4,0,0,1,8.5-.1c2,.1,2.7-.7,2.7-2.6-.1-4.4,0-8.7,0-13.1.2,5,.5,10,.5,15,0,.5-1.3,1.3-2.1,1.4H106.7c-.8,0-2.1-.9-2.1-1.3C104.6,111,104.9,106,105.1,101Z"/><path class="cls-352" d="M102.9,100.3c4.1-.3,8.2-.7,12.3-.8a48.6,48.6,0,0,1,6.4.8Z"/><path class="cls-353" d="M69.4,81.5c-.1,4.2-.1,8.5-.2,12.7h-.6c0-4.2,0-8.5-.1-12.7Z"/><path class="cls-151" d="M120.7,228.9c-.7,2.9-2.6,1.8-4.3,1.1Z"/><path class="cls-300" d="M81.9,259.9v0Z"/><path class="cls-354" d="M98.4,202.6,94,202v-.3h4.5Z"/><path class="cls-225" d="M164.8,347.6H153V327.1c0-2,0-3.5,3.3-1-5.2-7.4-2.7-14.6-3.1-21.6-.2-3.4.5-7.1-1.6-10.4-.1-.2.9-1.3,1.4-2h11.8v11.2a38.2,38.2,0,0,0,.1,11.2v.8a7.7,7.7,0,0,0,0,5.2v.8a131,131,0,0,0,0,21.7Z"/><path class="cls-355" d="M164.9,343.1c-.3-5.3-.6-10.6-.7-15.9a38.3,38.3,0,0,1,.7-5.8Z"/><path class="cls-227" d="M164.9,314.6c0-3.7,0-7.5-.1-11.2C164.9,307.2,164.9,310.9,164.9,314.6Z"/><path class="cls-355" d="M164.9,320.6v0Z"/><path class="cls-238" d="M77.7,83.1h3.6v1.2L77.5,84Z"/><path class="cls-356" d="M87.3,63.5c0,5,0,10-.1,15C87.3,73.5,87.3,68.5,87.3,63.5Z"/><path class="cls-357" d="M153.7,78.5l3.7.7H91.7c2.9-.2,5.8-.6,8.7-.7h10c1.4-1.4,3.2-1.2,4.9-1.2h33.8C150.7,77.3,152.4,77.3,153.7,78.5Z"/><path class="cls-357" d="M158.2,79.2h0Z"/><path class="cls-358" d="M153.7,78.5H110.4c-1.4-2.9,1-2.9,2.6-3,3.3-.1,6.7.3,10-.1,7.2-.9,14.4.3,21.5.6,2.9.2,3.6-1.4,4-3.6s.7-1.7,1.2-1.8,2,.3,2.2.8C152.6,73.7,153.1,76.1,153.7,78.5Z"/></svg>