<svg id="Ebene_1" data-name="Ebene 1" xmlns="http://www.w3.org/2000/svg" viewBox="0 0 231.8 389.2"><defs><style>.cls-1{fill:#1f1c1d;}.cls-2{fill:#e5e4df;}.cls-3{fill:#19171a;}.cls-4{fill:#585757;}.cls-5{fill:#edae5c;}.cls-6{fill:#eba33c;}.cls-7{fill:#d37e2d;}.cls-8{fill:#65625e;}.cls-9{fill:#f9b719;}.cls-10{fill:#e8c269;}.cls-11{fill:#98c1d5;}.cls-12{fill:#2c628c;}.cls-13{fill:#86b7d1;}.cls-14{fill:#da8631;}.cls-15{fill:#44799d;}.cls-16{fill:#b6611e;}.cls-17{fill:#ac5112;}</style></defs><path class="cls-1" d="M190.9,281.8h-9.7a28.5,28.5,0,0,0-14.2,0h-7.5a1.9,1.9,0,0,0-3,0c-8.7.5-8.7.5-8.9-8,0-1.2.4-2.6-1.5-2.8s-2.3-1.1-3.6-1.1H106.9c-1.3,0-2.8-.6-3.5,1.2H99.1a1.7,1.7,0,0,0-1.7-1.2H81.1a1.4,1.4,0,0,0-1.6,1.2c-1.6,2.1-.3,4.4-.7,6.6s.7,2.9-.8,4-.5-.3-.7.1H75.8q-.7-1.2-1.5,0H63.1a10,10,0,0,0-8.3,0H35.4c-.2-.4-.5-.5-.7-.1-2.7-.6-1.5-2.8-1.5-4.2-.1-6.3-.1-6.2-6.1-6.3s-5.2,1.3-5.4-5.4c0-2,.7-4.2-.6-6.1s-.3-.9-.7-.2a26.2,26.2,0,0,1-7.4,0c-.5-1-1.4-.9-2.3-.9q0-34.1.1-68.1l.2-.2a.8.8,0,0,0-.2-.5v-6l.2-.2a1.4,1.4,0,0,0-.2-.6c0-2.1,1.6-1.4,2.7-1.4,2.8-.2,5.6-.1,8.4-.1h0c.1,3.8.1,7.5.1,11.3,0,18.4,0,36.9-.1,55.3v9c0,.9-.2,2.2,1.2,2.3,3.1.1,6.5.7,9.2-.3s.6-4.3.9-6.5a28.4,28.4,0,0,0,.1-4.1H40a.9.9,0,0,0,1.3,0h1.6l1.5.4v3.1c0,4.6-.1,9.2,0,13.8,0,1.9-.8,4,.7,5.7,5.9,1.6,12,.3,17.9.7,1.3,0,2.7.5,3.8-.8.2-5.1.5-10.2.6-15.3s0-6.5,6.1-7.6h3.8c1.3.6,1.4,1.8,1.4,3.1,0,2.8,0,5.6.1,8.4.6,1.2,1.6,1,2.6,1h41.1c.9,0,2,.2,2.6-1V248.2q-.1-36.6-.1-73.4V171c-.9-1.5-2.5-.7-3.7-.7h-77c.9-2.7.2-5.5.3-8.2s.6-3.1,3-3.1h85.6c2.1,0,2.7.7,2.8,2.8s-1.4,6.2.6,7.8,5.2.5,8,.5l12.7.2c.2.4.4.4.7,0h4.5c.2.4.5.4.7,0h16.5c.2.4.4.4.7,0s1.5,1.3,1.5,2.3-.1,4.9-.1,7.3H140c-1.4,0-3.2-.9-3.7,1.4v5.2c0,1.4-.1,2.8-.1,4.1-.1,22.4-.1,44.7-.2,67.1-.4.1-1,.2-.8.8s.6.5,1,.7h10.6c.6.1.7-.3.6-.8a65.7,65.7,0,0,0,.1-7.7c-.1-2.2.8-2.7,2.8-2.7s6.1-.1,9.2-.2v23.3c2,1.6,4.3.8,6.4.7,5.1-.2,10.2.9,15.3-.6v-.2l.6-.6V259.4c0-3.3.1-6.5.2-9.8l.2-.2c-.1-.1-.1-.3-.2-.5s-2.6-.6-3.9-.6l-18.8-.2c0-3.2.1-6.5.1-9.7h22.6c.2,3,.3,6.1.5,9.1-.1.6.3.7.8.7l7.5.3c1.7,2,1.4,4.4,1.5,6.8s-.9,3.3,1.2,4.2l12.2.2c10.8.1,10.8,0,9.8-11a.5.5,0,0,0,.3-.5l.2-.2-.2-.2c0-3.2.1-6.4.1-9.6.4-.4.2-.9-.1-1.3s-.1-.3-.2-.3l-.2-8.6v-1.4l1-.2h8.2c1.1,0,2.7-.6,2.7,1.5-.1.1-.3.2-.2.3a1.7,1.7,0,0,0,.2.5c.1,9.4.1,18.9.2,28.4,0,2.1-.9,2.6-2.9,2.7s-6.5-1.4-8.1.8-.5,5.3-.3,8-.8,2.7-2.8,2.7c-5.9-.1-11.7.1-17.6-.1-2.3-.1-3,.7-2.8,2.9a52.3,52.3,0,0,1,0,5.6c0,1.1,0,2.1-1.5,2S191.1,281.4,190.9,281.8Z"/><path class="cls-2" d="M193.1,193.2h0v.4a1.2,1.2,0,0,0,0,2.2l.2,18-.2.8-.6.6-9.1.2a1.6,1.6,0,0,0-.7,0H182c0-7.5,0-15-.1-22.5h0l.7-.2h9Z"/><path class="cls-1" d="M21.9,181.5c0-2.7.1-5.5,0-8.2s.4-3.2,2.8-3.1c5.6.2,11.1.1,16.7.2l.8.6h1.5c0,.5.2.8.7.8.1,2.3.1,4.6.2,6.9l-.2,2.9Z"/><path class="cls-1" d="M194.3,192.9a41.3,41.3,0,0,1,9.3.1,1.3,1.3,0,0,0,.8,1.3,44,44,0,0,1,.1,8.9,6.2,6.2,0,0,0-.1,6.8c.1,1.4.2,2.9.2,4.4h-.4l-.6.8h-9Z"/><path class="cls-3" d="M211.2,215.5c4.8-.7,4.8-.7,4.9,3.8,0,1.9-.1,3.7-.1,5.5l-1.2,1.5h-8.9l-1.4-1.4c-.1-3-.1-6-.1-9l1.4-.7c1.7.1,3.5-.4,5.1.3l-.3.8h.9Z"/><path class="cls-1" d="M190.1,192.6h-7.5l-.6-.6v-9c1,0,2.1.1,2.2-1.4,8.8-.5,8.8-.5,8.9,8.2v3.4l-1.5-.6c0-.4-.1-1-.7-1S190.2,192.2,190.1,192.6Z"/><path class="cls-3" d="M136.3,181.5c.5-2.3,2.3-1.4,3.7-1.4h41.8v1.6h.1l-.9.2a.6.6,0,0,0-.7-.1H136.3Z"/><path class="cls-3" d="M103.4,271.1c.7-1.8,2.2-1.2,3.5-1.2h35.6c1.3,0,2.8-.5,3.6,1.1C131.9,271.4,117.6,271.3,103.4,271.1Z"/><path class="cls-3" d="M194.3,192.9l.3,22.3h-.7l-.6-1.4c-.1-6-.2-12-.2-18v-2.6Z"/><path class="cls-3" d="M79.5,271.1a1.4,1.4,0,0,1,1.6-1.2H97.4a1.7,1.7,0,0,1,1.7,1.2Z"/><path class="cls-3" d="M167,281.8a28.5,28.5,0,0,1,14.2,0Z"/><path class="cls-3" d="M54.8,281.8a10,10,0,0,1,8.3,0Z"/><path class="cls-3" d="M204.4,210a6.2,6.2,0,0,1,.1-6.8A25.8,25.8,0,0,1,204.4,210Z"/><path class="cls-3" d="M184.2,181.6c-.1,1.5-1.2,1.4-2.2,1.4v-1.5h2.2Z"/><path class="cls-4" d="M211.2,215.5l.3.8h-.9l.3-.8Z"/><path class="cls-4" d="M214.8,226.3l1.2-1.5.5,1.5-1,.2h-.7Z"/><path class="cls-4" d="M205.8,215.2l-1.4.7h-.2c0-.2.1-.4.1-.6v-.9h.4Z"/><path class="cls-3" d="M156.5,281.8a1.9,1.9,0,0,1,3,0Z"/><path class="cls-3" d="M10.7,258.6c.9,0,1.8-.1,2.3.9S11,260.2,10.7,258.6Z"/><path class="cls-5" d="M44.4,171.7c-.5,0-.7-.3-.7-.8s.1-.6.6-.5h.1Z"/><path class="cls-3" d="M204.4,194.3a1.3,1.3,0,0,1-.8-1.3C204.4,193.1,204.5,193.6,204.4,194.3Z"/><path class="cls-3" d="M74.3,281.8q.8-1.2,1.5,0Z"/><path class="cls-3" d="M163.2,170.4c-.2.4-.5.4-.7,0Z"/><path class="cls-3" d="M10.8,189.8a.8.8,0,0,1,.2.5l-.2.2Z"/><path class="cls-3" d="M180.4,170.4c-.3.4-.5.4-.7,0Z"/><path class="cls-3" d="M20.4,259.5c.4-.7.6-.4.7.2h-.4Z"/><path class="cls-3" d="M227.4,228.7a1.7,1.7,0,0,1-.2-.5c-.1-.1.1-.2.2-.3Z"/><path class="cls-3" d="M10.8,183a1.4,1.4,0,0,1,.2.6l-.2.2Z"/><path class="cls-3" d="M34.7,281.7c.2-.4.5-.3.7.1Z"/><path class="cls-3" d="M77.3,281.8c.2-.4.4-.5.7-.1Z"/><path class="cls-3" d="M42.2,171l-.8-.6C41.9,170.2,42.1,170.6,42.2,171Z"/><path class="cls-3" d="M158,170.4c-.3.4-.5.4-.7,0Z"/><path class="cls-3" d="M190.9,281.8c.2-.4.4-.5.7-.1Z"/><path class="cls-6" d="M21.9,181.5H44.4v.8c-6.1,0-12.2.1-18.3-.1-2.6,0-3.8.7-3.4,3.4a15,15,0,0,1,0,3c-.4,2.9.9,3.5,3.6,3.5,25-.1,49.9-.3,74.9.6v54.7c-2,.3-4.1-.7-5.9.7H93.7c-1-1.1-2.4-.7-3.6-.7-5.8,0-11.7-.2-17.5.1-3.3.1-4.7-.8-4.4-4.3s1.1-4.5-1-6.3l-.4.2H54.4c-3.2.1-7.3-1-9.3.6s-.5,6-.8,9.2a1.7,1.7,0,0,1-.1.7c-5.9,0-11.9-.1-17.8.1-3,.1-3.8-.9-3.8-3.8.1-15.7.1-31.3,0-47,0-1.3.5-2.7-.6-3.9Z"/><path class="cls-2" d="M182,181.5v11.3H158.8c-3.5,1.6-7,.3-10.6,0l-.6.6v27.1c-.7,3.7.3,5.9,4.6,5.7h29.6c3.8,0,7.6.9,11.4-.5-.4-3.5,1.6-7-.1-10.5h10.5v.2l.6.5h.2c0,3,0,6,.1,9-.4,1.3.2,1.6,1.4,1.4h8.9v.3a1.5,1.5,0,0,0,.7,1.3c.1,2.9.1,5.7.2,8.6l-3.3.5c-8,.3-8,.3-7.9,8.3v.7c-.3,2,.7,2.7,2.6,2.6h8.5c1,11,1,11.1-9.8,11l-12.2-.2c0-2.9-.1-5.8.1-8.7s-.8-2.9-2.8-2.3l-7.5-.3-.8-.7c-.2-3-.3-6.1-.5-9.1l-.2-1.3c-.4-.8-1.2-.8-1.9-.8H161.4c-.8,0-1.5.1-1.9.9v1.3c0,3.2-.1,6.5-.1,9.7h.1c-3.1.1-6.1.3-9.2.2s-2.9.5-2.8,2.7a65.7,65.7,0,0,1-.1,7.7l-.6.8h-9.7l-.8-.8-.3-.7c.1-22.4.1-44.7.2-67.1,0-1.3.1-2.7.1-4.1s.9-1.4,0-2.2v-2.2l.7-.7h43.4c.2.4.5.4.7.1Z"/><path class="cls-7" d="M101.2,247.4V192.7h1.2c10.8.2,10.8.2,10.7-10.4v-.8l9.8-10.3,2-.2v3.8c-1.2,1.3-.6,2.9-.6,4.3-.1,22.8,0,45.5,0,68.3h-16c-1.9.1-4-.7-5.7.7h-1.5Z"/><path class="cls-8" d="M44.4,251.9v-2.3H63.1c2.3-.1,3.1.8,3,3-.1,4.1,0,8.3,0,12.4s0,4.7-4.9,4.9c-2.1.1-4.7-1.4-6.4,1.3H51.9a1.7,1.7,0,0,0-2.3-1.3c-4.1.7-4.6-1.4-4.6-4.8S46,256.2,44.4,251.9Z"/><path class="cls-8" d="M181.9,259.4v8.2c-1.7.3-1.9,2.5-4.2,2.4a142.2,142.2,0,0,0-14.6-.1c-2.3.1-3-.9-2.9-3.1.1-4.7.1-9.5,0-14.2-.1-2.3.7-3.1,3-3,4.7.1,9.4.2,14.2,0,2.4-.1,3.3.3,3.2,3.1S178.9,257.7,181.9,259.4Z"/><path class="cls-9" d="M215.6,248.6h-8.5c-1.9.1-2.9-.6-2.6-2.6v-.7c-.1-8-.1-8,7.9-8.3l3.3-.5c.1,0,.2.1.2.3v1.3c0,3.2-.1,6.4-.1,9.6-.1.1-.2.3,0,.4A.5.5,0,0,1,215.6,248.6Z"/><path class="cls-8" d="M33.3,248.5a28.4,28.4,0,0,1-.1,4.1c-.3,2.2,1.3,5.6-.9,6.5s-6.1.4-9.2.3c-1.4-.1-1.2-1.4-1.2-2.3v-9Z"/><path class="cls-4" d="M181.9,259.4c-3-1.7-1.4-4.6-1.3-6.7s-.8-3.2-3.2-3.1c-4.8.2-9.5.1-14.2,0-2.3-.1-3.1.7-3,3,.1,4.7.1,9.5,0,14.2-.1,2.2.6,3.2,2.9,3.1a142.2,142.2,0,0,1,14.6.1c2.3.1,2.5-2.1,4.2-2.4,0,1,0,2-.1,3l-.6.6v.2H159.5V248h-.1l18.8.2c1.3,0,2.8-.5,3.9.6a.8.8,0,0,0,0,.7C182,252.9,181.9,256.1,181.9,259.4Z"/><path class="cls-4" d="M54.8,271.2c1.7-2.7,4.3-1.2,6.4-1.3,4.9-.2,4.9-.1,4.9-4.9s-.1-8.3,0-12.4c.1-2.2-.7-3.1-3-3H44.4v-.8c-.1-.2-.1-.5-.2-.7h.1c6.7.1,13.3,0,20,.2,1.9,0,2.6-.7,2.5-2.6s0-5.7,0-8.6l.4-.2c0,1.5.2,3,.2,4.5,0,6.4,0,6.4,6.1,7-6.1,1.1-6,1.1-6.1,7.6s-.4,10.2-.6,15.3Z"/><path class="cls-4" d="M125.1,248.2v11.7H78.8c-.1-2.8-.1-5.6-.1-8.4,0-1.3-.1-2.5-1.4-3.1h2.2a45.6,45.6,0,0,1-.1,6.4c-.3,3.2,1,3.9,4.1,3.9,10.3-.2,20.6-.1,30.9-.1s10.2,0,9.9-10.1Z"/><path class="cls-10" d="M125,171H53.9c-7.9,0-7.9,0-8,8.1a9.6,9.6,0,0,1-.2,1.2l-1.1-1.7c-.1-2.3-.1-4.6-.2-6.9v-1.4h76.9C122.5,170.3,124.1,169.5,125,171Z"/><path class="cls-9" d="M33.3,248.5l-11.4-.4c.1-18.4.1-36.9.1-55.3,1.1,1.2.6,2.6.6,3.9.1,15.7.1,31.3,0,47,0,2.9.8,3.9,3.8,3.8,5.9-.2,11.9-.1,17.8-.1a2,2,0,0,1,.1.7h-.1l-1.3.3H33.3Z"/><path class="cls-6" d="M125.1,248.2l-.8.3v-1.1c0-22.8-.1-45.5,0-68.3,0-1.4-.6-3,.6-4.3Z"/><path class="cls-3" d="M78.8,259.9h46.3c-.6,1.2-1.7,1-2.6,1H81.4C80.4,260.9,79.4,261.1,78.8,259.9Z"/><path class="cls-3" d="M159.5,238.4v-1.3h22.4l.2,1.3Z"/><path class="cls-9" d="M79.5,248.4h-6c-6.1-.6-6.1-.6-6.1-7,0-1.5-.2-3-.2-4.5,2.1,1.8,1.1,4.2,1,6.3s1.1,4.4,4.4,4.3c5.8-.3,11.7-.1,17.5-.1,1.2,0,2.6-.4,3.6.7Z"/><path class="cls-4" d="M44.4,251.9c1.6,4.3.6,8.8.6,13.2s.5,5.5,4.6,4.8a1.7,1.7,0,0,1,2.3,1.3l-6.8.2c-1.5-1.7-.7-3.8-.7-5.7C44.3,261.1,44.4,256.5,44.4,251.9Z"/><path class="cls-3" d="M190.9,248.4c2-.6,2.9,0,2.8,2.3s-.1,5.8-.1,8.7c-2.1-.9-1.1-2.7-1.2-4.2S192.6,250.4,190.9,248.4Z"/><path class="cls-3" d="M159.5,271.3h21.7c-5.1,1.5-10.2.4-15.3.6C163.8,272.1,161.5,272.9,159.5,271.3Z"/><path class="cls-3" d="M45.1,271.4l6.8-.2H66.8c-1.1,1.3-2.5.8-3.8.8C57.1,271.7,51,273,45.1,271.4Z"/><path class="cls-3" d="M136,257.9l.3.7v.8c-.4-.2-.9-.4-1-.7S135.6,258,136,257.9Z"/><path class="cls-8" d="M40,248.4h1.3A.9.9,0,0,1,40,248.4Z"/><path class="cls-4" d="M216,238.1v-1.3C216.2,237.2,216.4,237.7,216,238.1Z"/><path class="cls-8" d="M42.9,248.4l1.3-.3c.1.2.1.5.2.7Z"/><path class="cls-3" d="M182.1,249.6a.8.8,0,0,1,0-.7c.1.2.1.4.2.5Z"/><path class="cls-8" d="M181.2,271.2l.6-.6Z"/><path class="cls-4" d="M215.9,248.1c-.2-.1-.1-.3,0-.4l.2.2Z"/><path class="cls-11" d="M193.2,225.7c-3.8,1.4-7.6.5-11.4.5v-.6c.1-3.5.1-7,.2-10.4h.7c.2.4.5.4.7,0l9.1-.2v.2C192.8,218.7,191.5,222.4,193.2,225.7Z"/><path class="cls-12" d="M182,215.2c-.1,3.4-.1,6.9-.2,10.4-1-.9-.6-2.1-.6-3.2V192.8h.7C182,200.2,182,207.7,182,215.2Z"/><path class="cls-3" d="M190.1,192.6c.1-.4.2-1,.8-1s.7.6.7,1Z"/><path class="cls-1" d="M193.9,215.1h-.8v-.7l.2-.8Z"/><path class="cls-3" d="M181.9,192.8V192l.6.6Z"/><path class="cls-13" d="M183.4,215.3c-.2.4-.5.4-.7,0A1.6,1.6,0,0,1,183.4,215.3Z"/><path class="cls-5" d="M44.6,178.6l1.1,1.7a9.6,9.6,0,0,0,.2-1.2c.1-8.1.1-8.1,8-8.1H123l-9.8,10.4H44.4C44.5,180.5,44.5,179.5,44.6,178.6Z"/><path class="cls-3" d="M204.2,214.4c0,.3.1.6.1.9a.6.6,0,0,0-.7.1v-.2Z"/><path class="cls-4" d="M205.9,226.3c-1.2.2-1.8-.1-1.4-1.4Z"/><path class="cls-11" d="M203.6,215.4a.6.6,0,0,1,.7-.1c0,.2-.1.4-.1.6Z"/><path class="cls-14" d="M100.4,181.5h.8c0,3.7.1,7.4.1,11.1h-.1c-25-.9-49.9-.7-74.9-.6-2.7,0-4-.6-3.6-3.5a15,15,0,0,0,0-3c-.4-2.7.8-3.4,3.4-3.4,6.1.2,12.2.1,18.3.1H96.6C97.9,182.2,99.3,182.7,100.4,181.5Z"/><path class="cls-8" d="M79.5,248.4l14.2-.3h30.7v.4c.3,10.1.3,10.1-9.9,10.1s-20.6-.1-30.9.1c-3.1,0-4.4-.7-4.1-3.9A45.6,45.6,0,0,0,79.5,248.4Z"/><path class="cls-1" d="M58.5,237h7.6q-.1,3.9,0,7.8c0,2-.8,2.6-2.7,2.6H51.1c-6.7-.1-5.8,1-6-6.2-.1-2.9.8-3.6,3.6-3.6S55.3,238.4,58.5,237Z"/><path class="cls-3" d="M58.5,237c-3.2,1.4-6.5.6-9.8.6s-3.7.7-3.6,3.6c.2,7.2-.7,6.1,6,6.2H63.4c1.9,0,2.7-.6,2.7-2.6s-.1-5.2,0-7.8h.7c0,2.9-.1,5.7,0,8.6s-.6,2.6-2.5,2.6c-6.7-.2-13.3-.1-20-.2a2,2,0,0,0-.1-.7,1.7,1.7,0,0,0,.1-.7c.3-3.2-1.4-7.5.8-9.2s6.1-.5,9.3-.6Z"/><path class="cls-7" d="M100.4,181.5c-1.1,1.2-2.5.7-3.8.7H44.4v-.8Z"/><path class="cls-9" d="M101.2,248.1H95.3c1.8-1.4,3.9-.4,5.9-.7Z"/><path class="cls-15" d="M181.2,192.8v29.6c0,1.1-.4,2.3.6,3.2v.6H159.6a5.9,5.9,0,0,1-.2-1.3V195.6a14,14,0,0,0-.6-2.8Z"/><path class="cls-11" d="M158.8,192.8a14,14,0,0,1,.6,2.8v29.3a44.7,44.7,0,0,0-5.2.1c-3.6.4-6.3-.1-6.6-4.5V209.2a3.5,3.5,0,0,0,0-4.4V193.4l.6-.6C151.8,193.1,155.3,194.4,158.8,192.8Z"/><path class="cls-13" d="M147.6,220.5c.3,4.4,3,4.9,6.6,4.5a44.7,44.7,0,0,1,5.2-.1,5.9,5.9,0,0,0,.2,1.3h-7.4C147.9,226.4,146.9,224.2,147.6,220.5Z"/><path class="cls-13" d="M192.4,215.3h.7c1.7,3.5-.3,7,.1,10.5C191.5,222.4,192.8,218.7,192.4,215.3Z"/><path class="cls-13" d="M147.6,204.8a3.5,3.5,0,0,1,0,4.4Z"/><path class="cls-13" d="M148.2,192.8l-.6.6Z"/><path class="cls-16" d="M101.3,192.6c0-3.7-.1-7.4-.1-11.1h.7c3.7,1.6,7.5.4,11.2.8.1,10.6.1,10.6-10.7,10.4Z"/><path class="cls-14" d="M124.4,248.1H102.7c1.7-1.4,3.8-.6,5.7-.7h16Z"/><path class="cls-17" d="M113.1,182.3c-3.7-.4-7.5.8-11.2-.8h11.3C113.2,181.7,113.1,182,113.1,182.3Z"/></svg>