<svg id="Ebene_1" data-name="Ebene 1" xmlns="http://www.w3.org/2000/svg" viewBox="0 0 193.5 211.4"><defs><style>.cls-1{fill:#926001;}.cls-2{fill:#966302;}.cls-3{fill:#633001;}.cls-4{fill:#8b5605;}.cls-5{fill:#d18e08;}.cls-6{fill:#c3a573;}.cls-7{fill:#fbba10;}.cls-8{fill:#fce716;}.cls-9{fill:#de9a0b;}</style></defs><path class="cls-1" d="M82.2,119.6c0-5.2,0-10.4.1-15.6.1-1.2-.7-3,1.7-3s5.2.2,7.8.2h60.8a13.5,13.5,0,0,0,4-.2c2-.1,1.7,1.4,1.8,2.6.1,5.1.1,10.2.2,15.3a1.5,1.5,0,0,1-1.7,1c-23.8-.1-47.6,0-71.3,0C84.4,120,83.2,120.4,82.2,119.6Z" transform="translate(-23.9 -101)"/><path class="cls-2" d="M82.4,311.1v-1.5c.2-4.8.7-9.6.3-14.4a1.7,1.7,0,0,1,.9-1.8c1.6-.7,3.2-.5,4.9-.5h63.6c1.8,0,3.8-.4,5.4.8,1.3,5.3.4,10.6.5,16,.1,1.3-.8,2-2.1,2.1H87.1C85.5,311.9,83.8,312.2,82.4,311.1Z" transform="translate(-23.9 -101)"/><path class="cls-1" d="M63.7,293c-2.2-.2-1.4-2-1.5-3.2-.1-5.2-.1-10.5-.2-15.8l.3-.5a2.5,2.5,0,0,1,1.2-.2c3.5.1,6.9.5,10.3-.4a11.1,11.1,0,0,1,6,.4,3,3,0,0,1,2,2.5c.1,5.3.8,10.5-.5,15.8-2.6,1.6-5.5.5-8.3.8s-3.7-.1-5.6.1S64.9,292.6,63.7,293Z" transform="translate(-23.9 -101)"/><path class="cls-1" d="M62.2,139V123.2c0-1.5-.1-3.2,2.3-2.8a74.9,74.9,0,0,0,13.4.2c3.3-.1,4.2,1.2,4.1,4.1s0,7,0,10.5-1.3,4.1-4.1,4.1c-4.4.1-8.7-.1-13.1.1a3.2,3.2,0,0,1-1.4.2A2.7,2.7,0,0,1,62.2,139Z" transform="translate(-23.9 -101)"/><path class="cls-1" d="M61.4,273.8l-1.5-.2c-4.6-.7-9.2-.2-13.8-.2-2.2,0-3.1-.5-3-2.9.1-4.4.1-8.7,0-13.1-.1-2.1.6-3.3,2.8-3.4H59c1.5.1,3.1.5,3.2,2.1C62.4,262,63.6,268,61.4,273.8Z" transform="translate(-23.9 -101)"/><path class="cls-2" d="M178.3,120.6c.8.2.7.7.6,1.3a119.6,119.6,0,0,0-.1,13.4c.1,2.9-.9,4.1-3.8,4H162.7c-2.8,0-4.1-1.3-4.1-4.1V124c0-2.5,1.1-3.4,3.7-3.4C167.6,120.8,173,120.8,178.3,120.6Z" transform="translate(-23.9 -101)"/><path class="cls-2" d="M179.8,139.2h1.6c4.1,1,8.3.4,12.5.4,2.7,0,3.8.9,3.6,3.7a95.5,95.5,0,0,0,0,10.7c.2,3.1-.9,4.8-4.2,4.7s-6.7-.1-10,0-4.5-1.1-4.5-4.2c.1-4.7-.2-9.4.2-14.1A3.5,3.5,0,0,1,179.8,139.2Z" transform="translate(-23.9 -101)"/><path class="cls-2" d="M181.4,273.7h-2.2a2.1,2.1,0,0,1-.6-1,5.3,5.3,0,0,1,.1-1.3c.5-3.2-.5-6.6.8-9.8.4-.9,1.5-1.3,1.5-2.5,0-4.1,2.6-5.1,6.1-5.2s7-1,10.2,1c.4,5.3,0,10.7.2,16,.1,2.1-1,2.4-2.8,2.4C190.3,273.4,185.8,272.9,181.4,273.7Z" transform="translate(-23.9 -101)"/><path class="cls-3" d="M198.7,158.6h16.5c1.3,0,2.3.1,2.3,2q-.1,46.4-.2,92.6c0,.2-.1.3-.1.4s-1.2-.7-1.5-1.4a24.2,24.2,0,0,1-.3-6V168.3c0-1.3,0-2.7-.1-4.1a2.7,2.7,0,0,0-3-3h-8.6c-2.2,0-3.1,1.2-3.1,3.3v3.7c0,25.9,0,51.9-.1,77.8,0,2.1.3,4.3-.6,6.3a1.5,1.5,0,0,1-1.1.8c-2.1-.5-1.7-2.1-1.7-3.6a17.5,17.5,0,0,0,.4-5.6c.1-26.5,0-53.1.1-79.6C197.6,162.4,197.1,160.3,198.7,158.6Z" transform="translate(-23.9 -101)"/><path class="cls-4" d="M42.5,254.1H38.9a1.4,1.4,0,0,0-1.4,0c-3.7,0-7.5-.1-11.2.2-2.2.1-2.4-.8-2.4-2.6q.2-44.7.1-89.4c0-1.1-.2-2.2.8-3.1s1.7.1,1.8,1.2c.1,28.2.1,56.3.1,84.5,0,6.7,0,6.7,6.5,6.7a45.3,45.3,0,0,0,9-.5C43.6,251.9,43.5,252.9,42.5,254.1Z" transform="translate(-23.9 -101)"/><path class="cls-4" d="M82.4,311.1h71.1c3.2,0,4.1-1,3.9-4s0-8.8,0-13.1a1.7,1.7,0,0,1,.2-1.2,1,1,0,0,1,.5-.6.8.8,0,0,1,.8.1.5.5,0,0,1,0,.7c0,5.2-.2,10.5,0,15.7.1,2.7-.4,3.5-3.4,3.5-23.5-.2-47-.1-70.5-.1C84,312.2,82.6,313,82.4,311.1Z" transform="translate(-23.9 -101)"/><path class="cls-3" d="M26.3,159.9a1.8,1.8,0,0,0-1.5-.7c3.2-1.6,6.7-.4,10.1-.6a67.7,67.7,0,0,1,7.8-.1c1.3,1.3,1.1,3,1.1,4.6v82.1c0,1.6.4,3.5-1.5,4.7-2.5-2.3-1.1-5.4-1.5-8.2s.1-5.9.1-8.9,0-4,0-6v-2.7c0-1.8-.1-3.6,0-5.4,0-19,.2-38.1-.1-57.1-.6-.8-1.6-.8-2.4-1.1s-1-.5-1.5,0a9.1,9.1,0,0,1-4.9.2,5.9,5.9,0,0,0-3.7-.1C27.5,160.6,26.8,160.6,26.3,159.9Z" transform="translate(-23.9 -101)"/><path class="cls-2" d="M42,249.7c1.2-1.3.7-2.8.7-4.3V158.5h0a1.1,1.1,0,0,1,1.2.5c.9,1.8.6,3.7.6,5.6v81.5c0,6.3,0,6.2,6.6,6.4,3.4.1,6.9-.9,10.3.8.2.8-.1,1.3-.9,1.3-5.9-.1-11.8.4-17.8-.3l-.2-.2c.1-1,.5-2.1-.5-2.8s-.9-.1-1-.7S41.3,249.6,42,249.7Z" transform="translate(-23.9 -101)"/><path class="cls-2" d="M198.7,158.6c0,29,0,57.9-.1,86.9,0,1.4.4,3-.4,4.3-2-1.4-1.4-3.6-1.4-5.5V161.5a14.1,14.1,0,0,0-.1-2c.1-.7.3-1.3,1.2-1.1Z" transform="translate(-23.9 -101)"/><path class="cls-5" d="M157.4,119.5l1.2-.6c.1.5.3.9.4,1.4a1.2,1.2,0,0,0-.5.5,4.1,4.1,0,0,1-2.1.5H86.6a11.4,11.4,0,0,1-3.7-.4,1.8,1.8,0,0,1-1-1.1.3.3,0,0,1,.3-.3l2.6-.8c1.2.7,2.6.4,4,.4h64.5C154.7,119.2,156,118.9,157.4,119.5Z" transform="translate(-23.9 -101)"/><path class="cls-3" d="M42.7,254.3c6.3-.3,12.6.7,18.8-.7a1.1,1.1,0,0,1,1.2.6c.8,6.5,1.7,13-.5,19.5l-.2.3h-.3l-.3-.2c0-5.4,0-10.7.1-16,0-2.1-.7-2.9-2.8-2.8H46c-2-.1-2.6.7-2.6,2.6.1,4.2.1,8.5,0,12.7,0,2.1.8,2.7,2.9,2.8,4.5.1,9.1-.8,13.6.5-5.2.1-10.4,0-15.6.4-2,.1-1.5-1-1.5-2C42.7,266.1,42.7,260.2,42.7,254.3Z" transform="translate(-23.9 -101)"/><path class="cls-3" d="M178.3,120.6c-5,1-10.2.3-15.2.4-2.6,0-3.7.6-3.5,3.3a99.1,99.1,0,0,1,0,10.9c-.1,2.5.9,3.2,3.2,3.1,4.2-.1,8.3-.2,12.4,0s3.3-1,3.3-3.5c0-4.3-.7-8.7.4-12.9.1,5.7.2,11.4.2,17.1a3.4,3.4,0,0,1-2.7,1H161.2a3.5,3.5,0,0,1-2.4-.8c-1.6-6.3-2-12.6.1-18.8h.1Z" transform="translate(-23.9 -101)"/><path class="cls-3" d="M156.6,101c-.9.9-2.1.6-3.2.6H87.2c-1.1,0-2.3.3-3.2-.6Z" transform="translate(-23.9 -101)"/><path class="cls-4" d="M43.6,158.5h-.9c0-5,0-10,.1-15,0-1.3-.5-2.7.5-3.9s.7-.3,1-.4h5.1a26.4,26.4,0,0,0,4,.1l8.4-.2c.5.1.8.3.7.9a1.8,1.8,0,0,1-.8.9,2.8,2.8,0,0,1-1.2.4c-4.1.4-8.2.2-12.3.2-2.1,0-3,.7-3,3,.1,4.2.5,8.4-.3,12.6a2,2,0,0,1-.8,1Z" transform="translate(-23.9 -101)"/><path class="cls-4" d="M197.9,158.4l-.8.6c-1.3,1.3-2.5.4-3.7-.2a.8.8,0,0,1,0-1.1c2.6.3,3.9-.7,3.7-3.5s-.1-7.2,0-10.8-.8-3-3-2.9h-9.7c-1.1,0-2.5.5-3-1.2,4.7-.1,9.4,0,14.1-.2,2-.1,2.4.8,2.4,2.6Z" transform="translate(-23.9 -101)"/><path class="cls-3" d="M63.7,138.9c4.4-1.4,8.9-.6,13.2-.5s4.4-1.1,4.1-4.3a76.9,76.9,0,0,1,0-9.6c.2-2.9-1-3.5-3.7-3.5s-8.6.8-12.8-.6l17.2-.2c1.2,1.4,1.1,3,1,4.6-.3,4.8.9,9.7-.8,14.3C75.8,140.5,69.8,140.9,63.7,138.9Z" transform="translate(-23.9 -101)"/><path class="cls-4" d="M83.2,294c1.2,5.3,1.3,10.5-.8,15.6-.7-5.4.4-11-.5-16.5h.9A1.2,1.2,0,0,1,83.2,294Z" transform="translate(-23.9 -101)"/><path class="cls-3" d="M158.9,293.1v-.7l.5-.5a4.2,4.2,0,0,1,1.2-.4c4.4-.4,8.7-.2,13.1-.2,2.5,0,3.5-1,3.6-3.5,0-4.6-.5-9.2.3-13.8a1.8,1.8,0,0,1,1.5-1.3c0,.4.1.8.1,1.1,0,5.6-.2,11.2,0,16.7,0,2.2-.7,2.7-2.8,2.7C170.6,293,164.7,293.1,158.9,293.1Z" transform="translate(-23.9 -101)"/><path class="cls-4" d="M216.6,252.7l.6.8c-2.2,1.5-4.7.6-7.1.7-4.1.2-8.1.1-12.2.2l-.2-.4a1.6,1.6,0,0,1,.5-1.1h1.1A27.7,27.7,0,0,1,216.6,252.7Z" transform="translate(-23.9 -101)"/><path class="cls-4" d="M181.4,273.7c3.9-1.6,8-.6,12-.6s3.9-1,3.8-3.9c-.3-4.7-.1-9.4-.1-14.1.2-.3.4-.3.7-.1,0,5.6.1,11.2.1,16.8,0,1.4,0,2.4-2,2.3Z" transform="translate(-23.9 -101)"/><path class="cls-2" d="M82.5,293.3l-.6-.2H79.4c-4.2-.7-8.5.4-12.7-.6,4.7-1.6,9.5-.3,14.3-.7.8-4.6.1-9.3.3-13.9.1-1.4-.2-2.7.2-4s.9-.3,1.2.1c1.6,5.8.5,11.7.7,17.6a5,5,0,0,1-.4,1.3Z" transform="translate(-23.9 -101)"/><path class="cls-5" d="M158.9,139h20.2l.7.2v.6a4.1,4.1,0,0,1-1.1.7,10.3,10.3,0,0,1-3.9.3c-5.2-.4-10.5.8-15.6-.7A.7.7,0,0,1,158.9,139Z" transform="translate(-23.9 -101)"/><path class="cls-5" d="M81.7,139V120.2c0-.1.1-.2.2-.3l.6.5c1.2,1.3,1,3,1,4.5-.2,4.6.6,9.2-.6,13.7C82.7,139.1,82.3,139.2,81.7,139Z" transform="translate(-23.9 -101)"/><path class="cls-3" d="M66.7,292.4c4.2.4,8.5-.6,12.7.6H63.7C64.6,292.2,65.7,292.5,66.7,292.4Z" transform="translate(-23.9 -101)"/><path class="cls-3" d="M197.8,255H186.6c.2-1.8,1.6-1.6,2.8-1.7a38.7,38.7,0,0,1,5.9,0,2.9,2.9,0,0,1,2.5,1h.1A.8.8,0,0,1,197.8,255Z" transform="translate(-23.9 -101)"/><path class="cls-6" d="M53.4,139.4a4.7,4.7,0,0,1-4-.1A5.5,5.5,0,0,1,53.4,139.4Z" transform="translate(-23.9 -101)"/><path class="cls-2" d="M37.5,254.1c.5-.6.9-.7,1.4,0Z" transform="translate(-23.9 -101)"/><path class="cls-6" d="M44.3,139.2l-1,.4A.7.7,0,0,1,44.3,139.2Z" transform="translate(-23.9 -101)"/><path class="cls-4" d="M62.2,139H63a.6.6,0,1,1-.8.8l-.4-.6Z" transform="translate(-23.9 -101)"/><path class="cls-3" d="M157.4,119.5H87.8c-1,0-2.3.5-3-.8h68.7C154.8,118.8,156.3,118.3,157.4,119.5Z" transform="translate(-23.9 -101)"/><path class="cls-3" d="M83.2,294l-.7-.7h0c1.3-1.3,3-1.1,4.6-1.1h66.4c1.6,0,3.3-.2,4.6,1.1l-.7.9Z" transform="translate(-23.9 -101)"/><path class="cls-7" d="M62.8,139.7a1.4,1.4,0,0,1,.2-.7.8.8,0,0,0,.7-.1H82.5c.8-4.8.3-9.6.2-14.4,0-3.1.8-4,4-4,22.2.2,44.4.1,66.6.1,1.3,0,2.7.3,4-.3h1.6v19.3a60.8,60.8,0,0,0,16.5,0h3.8c.7,5.2.2,10.4.2,15.6.1,2,.6,2.8,2.8,2.8,3.7-.1,7.4-.4,11.1.2l3.8.6.7,1c-.6,1.3-.3,2.7-.3,4v84.8c0,4.7,0,4.7-4.4,4.7-7.4,0-6,0-6.1-6v-7.8c-.1,4.5,0,9-.1,13.4a.8.8,0,0,1-1.1.5c-1.5-1.8-.9-4-1-6.1s.1-7.2-.1-10.8a2.4,2.4,0,0,0-.6-1.1c-3.7-.6-4.6-2.9-4.6-6.4.1-15.1.1-30.2.1-45.4a13,13,0,0,0-.4-4.8,2.4,2.4,0,0,0-1.1-.6c-1.9-.3-3.9,0-5.9-.3s-2.7.3-2.7-1.7c2.6-.7,5.3-.3,7.8-.2-.4-.7-1.2-.1-1.8-.1-6.4-.1-6.3,0-6.5-6.6,0-3.4.9-6.9-.7-10.2l-.9-.8c-4.3-1-8.7-.4-13-.4s-9.8-.4-14.6.2a4,4,0,0,0-1.3,1.3c-.7,3.9-.2,7.9-.3,11.9s-.2,4.5-4.7,4.6h-3.1a45.4,45.4,0,0,1,7.4.2c.2,1.9-1.3,1.7-2.4,1.8s-3.7,0-5.5.2l-1,.7c-.7,1.4-.4,2.9-.4,4.4-.1,16.7.1,33.5-.1,50.2a.9.9,0,0,0,.3,1l.5.3.6.2c8.4.6,8.4.6,8.4,9.3a23.2,23.2,0,0,0,.3,5.9,2.4,2.4,0,0,0,.8.9c4.5,1.1,9.1.4,13.6.5s8.1.4,12.2-.3a1.9,1.9,0,0,0,.9-1.4c.4-5.9,1.8-6.7,8.9-5.3,2.4,2.4,1,5.5,1.6,8.3a10.4,10.4,0,0,1,2.2,7.6c-.3,4.1.5,8.2-.5,12.2a6.7,6.7,0,0,1-.6,1.2,6,6,0,0,1-3,.7,10.5,10.5,0,0,1-2.5,0c-4,.3-8.1-.5-12.1.5l-.7,1.1c-.3,4-.1,8-.1,12s-1.3,4.2-4.4,4.1H86.4c-2.6.1-3.8-.7-3.6-3.6s.1-8.2,0-12.3c0-.9.5-2-.5-2.8l-.7.2a2.6,2.6,0,0,1-2.1-.1H73.3a49.7,49.7,0,0,1-10.2.1l-.9-.2V253.5l.5-.3h1.2c5.4-.1,10.8.5,16.1-.4a3,3,0,0,0,1.2-1.3c.5-9.7.1-19.4.2-29.1.1-6,1-6.3,7.1-6.4s11.8,2.1,17.6-.7c1.4-1.8.6-4,.8-6s-.1-3,.6-4.3a2.9,2.9,0,0,1,1.4-1.3c2.2-.6,4.4.2,6.7,0s2.5-.6,2.5-2.4V180.8c0-2-1.1-2.5-2.9-2.6s-3.8.4-5.4-1c-1.4-4.1-.4-8.2-.7-12.3-.1-1.5,0-3,0-4.4a5.9,5.9,0,0,0-.2-1.3,2.3,2.3,0,0,0-.8-.9c-5.7-.6-11.5-.2-17.2-.2H67.3c-3.8-.1-4.5-.9-4.6-4.7s-.1-6.7,0-10.1,1-3.1,3.2-3.1H78.4C73.8,139.7,68.2,140.8,62.8,139.7Z" transform="translate(-23.9 -101)"/><path class="cls-3" d="M79.5,273.8h2.1c0,5.2.1,10.5,0,15.8,0,.6.7,1.7-.6,2,0-4.7-.1-9.4,0-14C81,276.2,81,274.8,79.5,273.8Z" transform="translate(-23.9 -101)"/><path class="cls-3" d="M63.1,273.9H73.3A18.6,18.6,0,0,1,63.1,273.9Z" transform="translate(-23.9 -101)"/><path class="cls-3" d="M193.3,158.4c-4,0-7.9-.1-11.9.1-1.8,0-2.3-.6-2.3-2.4.1-5.4.1-10.9.1-16.3h.6c0,5,.2,10,0,15,0,2.3.8,3.1,3.1,3s7-.1,10.5-.1C193.4,157.9,193.3,158.1,193.3,158.4Z" transform="translate(-23.9 -101)"/><path class="cls-1" d="M185.9,253.5h.7c3.1-.1,6.2-1.2,9.1.7-3,.8-6.2-.7-9.1.9s-5,.7-4.5,4.3c.2,1.4-.7,2.3-2.2,2.4-1.8-1.9-.5-4.4-1.3-6.5a3.2,3.2,0,0,0-1.1-1.2c-1.5-.9-2.3-2-1.4-3.8,3.9-1.2,5.1-3.7,4.6-7.7-.3-2.3-.3-5,2-6.8s2.8.7,2.8,2.7c-.1,3.9-.1,7.7,0,11.5C185.5,251.1,185.1,252.4,185.9,253.5Z" transform="translate(-23.9 -101)"/><path class="cls-8" d="M178.3,253.4l.9.9a2.3,2.3,0,0,1,.1,1.8c-.4,5.2-.1,10.3-.2,15.5v.6a.5.5,0,0,0,0,.5l-.8.9c-.3.3-.5.3-.7,0,0-4,.1-7.9,0-11.9s.7-6.1-2.3-8.2A3.5,3.5,0,0,1,178.3,253.4Z" transform="translate(-23.9 -101)"/><path class="cls-3" d="M179,255.7c.1-.4.1-.9.2-1.4,1.4,2.4.3,5,.7,7.4s.8,7.1-.8,10.5H179A113.6,113.6,0,0,1,179,255.7Z" transform="translate(-23.9 -101)"/><path class="cls-2" d="M216.6,252.7H199.3c0-29.7.1-59.4,0-89,0-3.1.9-4.2,4-3.9a67.6,67.6,0,0,0,9,0c3.3-.3,4.4.7,4.4,4.3-.2,22.1-.1,44.3-.1,66.5Z" transform="translate(-23.9 -101)"/><path class="cls-8" d="M195.7,254.1c-2.9-1.1-6.1.1-9.1-.7v-17h.8c0,4.2.1,8.5-.1,12.8s.8,3.7,3.6,3.6c7.3-.2,6.2.7,6.2-6.1V164.3c0-1.5-.5-3,.7-4.3,0,28.3.1,56.7.1,85,0,1.6.2,3.2.3,4.8v3.1a7.4,7.4,0,0,1-.4,1.4Z" transform="translate(-23.9 -101)"/><path class="cls-1" d="M42,249.7c-.7.5-.8,1,0,1.6s-1.4,1.5-2.5,1.5c-3.8,0-7.5-.1-11.3,0-2.1,0-2.7-.8-2.7-2.9V162.3a2.7,2.7,0,0,1,.8-2.4h2.1a3.7,3.7,0,0,1,3.1,0h5.9a.7.7,0,0,1,.9,0h2.9c.7,1.3.4,2.7.4,4V215c0,1.4-.3,2.8.4,4.1v5.2a1.8,1.8,0,0,0-.1,2.3v6a22.2,22.2,0,0,0-.1,8.9Z" transform="translate(-23.9 -101)"/><path class="cls-8" d="M82.3,273.7c1.9,2.6.8,5.5.8,8.3.2,9.7.1,9.7,9.8,9.7h61.4c3.1.1,4-.9,3.9-4s-.7-8.9.5-13.3a2.7,2.7,0,0,1,1.1,2.3c.2,4.4.2,8.9.1,13.3a4.3,4.3,0,0,1-1,2.4h-.6a7.7,7.7,0,0,1-3,.3H85.7a6.3,6.3,0,0,1-3.3-.4C82.4,286.2,82.3,280,82.3,273.7Z" transform="translate(-23.9 -101)"/><path class="cls-9" d="M82.4,292.4h75.9a6.4,6.4,0,0,1-.2.7H82.5Z" transform="translate(-23.9 -101)"/><path class="cls-2" d="M42,219.1c-1.3-1.3-.7-2.9-.8-4.3V159.9c1.7.5.7,1.9.7,2.7C42,181.4,42,200.3,42,219.1Z" transform="translate(-23.9 -101)"/><path class="cls-2" d="M41.9,241.5a11.9,11.9,0,0,1,.1-8.9C42,235.5,42,238.5,41.9,241.5Z" transform="translate(-23.9 -101)"/><path class="cls-4" d="M31.5,159.9H28.4A2,2,0,0,1,31.5,159.9Z" transform="translate(-23.9 -101)"/><path class="cls-2" d="M41.9,226.6c-.9-.8-.9-1.5.1-2.3A17.7,17.7,0,0,1,41.9,226.6Z" transform="translate(-23.9 -101)"/><path class="cls-4" d="M38.3,159.9h-.9Q37.9,159.3,38.3,159.9Z" transform="translate(-23.9 -101)"/><path class="cls-8" d="M62.2,253.5h-.7c-4.9,0-9.7-.2-14.6,0-2.8.1-3.6-.7-3.6-3.5.1-25.8.1-51.6.2-77.4V158.5h0a1.1,1.1,0,0,1,1.2.5c1,2,.7,4.2.7,6.3v79.2c0,1.4,0,2.8.1,4.1a2.7,2.7,0,0,0,3,3h8.6c2.2,0,3.1-1.2,3.1-3.3s.1-2.5.1-3.7c0-26.5-.1-53.1,0-79.6,0-2.1-.4-4.3.9-6.2a.9.9,0,0,1,1.3-.1c1,1.5.8,3.1.8,4.7v85.2c0,1.7.2,3.5-1.1,5Z" transform="translate(-23.9 -101)"/><path class="cls-8" d="M157.3,120.4c-1.1,1.2-2.5.6-3.8.6H87.3c-3.3,0-4.4.8-4.2,4.2s0,9.1,0,13.7l-.3.2h-.3V120.4Z" transform="translate(-23.9 -101)"/><path class="cls-2" d="M44.2,157.7c0-5.1.1-10.2-.3-15.3-.2-2.3,1.1-1.9,2.2-1.9H61.5c2,5.3.9,10.8.7,16.2a2,2,0,0,1-1.8,1.7C55,158.6,49.5,159.9,44.2,157.7Z" transform="translate(-23.9 -101)"/><path class="cls-8" d="M62.8,139.7H80.7v.8c-4.5,0-9.1.1-13.6-.1-2.7-.1-3.6.8-3.5,3.4a54.1,54.1,0,0,1,0,9c-.3,3.2.7,4.3,4.1,4.3,12.9-.2,25.8-.1,38.6-.1,1.3,0,2.8-.5,3.9.8-1.3,1.1-2.8,1-4.3,1H67.3c-4.7-.1-5.1-.5-5.1-5.2V139.8Z" transform="translate(-23.9 -101)"/><path class="cls-3" d="M44.2,157.7H58.7c2.1,0,2.8-.8,2.8-2.8-.1-4.9,0-9.7,0-14.5h.8a96.2,96.2,0,0,1-.1,17.8.9.9,0,0,0-.7.3,29.2,29.2,0,0,1-17.3,0l-.7-.2Z" transform="translate(-23.9 -101)"/><path class="cls-2" d="M177.6,273.6h.7c0,5.2,0,10.4.1,15.6.1,2.4-.6,3.4-3.1,3.3-5.2-.2-10.4-.1-15.6-.1.2-6-.7-12,.4-17.9,4-1.1,8.2.2,12.2-.7h2.4a3.7,3.7,0,0,0,2.9.1Z" transform="translate(-23.9 -101)"/><path class="cls-4" d="M160.4,274.5v14a7.5,7.5,0,0,1-.7,3.9h-.8c-.1-6-.1-12-.2-18h.3C159.5,274,160,274,160.4,274.5Z" transform="translate(-23.9 -101)"/><path class="cls-8" d="M175.4,139.7a34.1,34.1,0,0,1-16.5,0Z" transform="translate(-23.9 -101)"/><path class="cls-4" d="M182.1,236.3c.1,3.1-.8,6-.2,9.2s-1.5,4.7-5.7,5c-1-1.9,0-4-.8-5.9a1.8,1.8,0,0,0-1-.4h-5.2c-.5.2.3.8,0,.3s-.1-.3.2-.3a28.2,28.2,0,0,1,5.8.2c.4.3.4.6.1,1l-1.8-.3c-6.3-.3-6.3-.3-6.4,6.1a3.1,3.1,0,0,1-1.3.3H143.4c-4.2,0-4.9-.7-5-5s0-5.9-.1-8.9a3,3,0,0,0-.4-1,2.6,2.6,0,0,0-2-.7c-.6-.6-1.3,0-1.9,0l-1.8-.3c-3.6,0-3.6-2.5-3.6-4.9V181c0-2.5,1-3.5,3.7-3.5,6,0,6-.1,6-6,0-3.1,0-6.2.1-9.4s1.2-3.9,3.9-3.9h22.8c2.7,0,3.8,1.5,3.8,4,.1,4,.2,8,0,12s.5,3.7,3.3,3.4a16.7,16.7,0,0,1,5.9.2c.4.7.2,1.7,1,2.2a17.1,17.1,0,0,1,.3,4.5c0,15.2.2,30.4-.1,45.5,0,.8-.4,1.5-.3,2.2a2.7,2.7,0,0,0,.6,1.7l.3.4.3.3.6.6A3.5,3.5,0,0,1,182.1,236.3Z" transform="translate(-23.9 -101)"/><path class="cls-3" d="M179,234.8c-.8-.6-.6-1.5-.7-2.3s-.2-.3-.1-.4a.4.4,0,0,1,.1-.3V179.4a.4.4,0,0,1-.2-.5v-.2c-2.2-1.5-4.8-.7-7.2-.7s-3.4-.7-3.3-3.2c.2-4.1,0-8.2.1-12.3.1-2.4-.6-3.4-3.1-3.3q-11.2.2-22.5,0c-2.3-.1-3,.8-2.9,3,.1,4.3-.1,8.5,0,12.7.1,2.3-.7,3-3,3.1-6.7.2-6.7.3-6.7,7,0,14.9,0,29.9-.1,44.8,0,3.1.2,5.3,3.8,5.7a7,7,0,0,1-4.5.2v-.2c-1-1.1-.7-2.6-.7-3.9V181.1c0-1.3-.3-2.7.7-3.9,3-.7,6.1.7,9-.8a.9.9,0,0,1-.1-1.1c.2-5.3.2-10.5-.1-15.8a.8.8,0,0,1,.3-1.1l.6-.6c2.3-1,4.7-.4,7-.4h19.5c1.1,0,2.5-.6,3.5.6a.9.9,0,0,0,.3.6,4.8,4.8,0,0,1,.5,1.8v15c-.1.4-.1.8-.2,1.2,3.2,1.1,6.6,0,9.9.6,1,1.2.8,2.6.8,4v49.7C179.9,232.2,180.1,233.6,179,234.8Z" transform="translate(-23.9 -101)"/><path class="cls-5" d="M62.2,158.3c0-5.9,0-11.9.1-17.8,1.4,4.4.5,8.8.5,13.3s.7,4,3.9,4c14.5-.2,29,0,43.5,0-.1.3-.1.5-.2.8s-3.3.9-5,.9H69.1c-4.7,0-5.1.4-5.1,5.2v81.5c0,5.1.4,5.5,5.6,5.5H76c2.9.2,3.9-1.2,3.9-4-.1-8.8,0-17.5,0-26.2,0-1.7-.3-3.5.7-5.1s.8-.5,1.2-.1c.3,12.2.5,24.3-.1,36.4l-.8.9a117.5,117.5,0,0,1-17.8,0h-.9Z" transform="translate(-23.9 -101)"/><path class="cls-3" d="M81.1,216.1c0,11.1-.2,22.2,0,33.3,0,2.8-.8,3.7-3.6,3.5s-8-.1-12-.1c-1.8.1-2.7-.3-2.7-2.4.1-29.8.1-59.6.2-89.4,0-1.5.1-2.6,2.1-2.6l44.9.2a.6.6,0,0,1,0,.6c-.5,4.6-.1,9.2-.2,13.7-.1,1.3.3,2.5-.4,3.7-2.1-.7-1.8-2.6-1.9-4.1s0-5.7,0-8.6-.9-3.4-3.3-3.5H68.3c-2.4,0-3.4,1.2-3.4,3.5v80.6c0,1.2,0,2.3.1,3.4s.9,2.8,2.7,2.8h.8c12.3,0,10.3,1.2,10.5-9.7.1-6.9-.1-13.7.1-20.6C79.1,218.9,78.5,216.7,81.1,216.1Z" transform="translate(-23.9 -101)"/><path class="cls-8" d="M81.7,252.7c0-12.1.1-24.3.1-36.5l.4-.5c3.3-1.3,6.8-.4,10.2-.6h5.7c3,.4,6.3-1.1,9,1.1-3.9,1.8-7.9,1.7-12,1s-6,.4-9.1-.1-3.8.9-3.7,4.1c.4,9.2.2,18.4.1,27.6C82.4,250.2,82.9,251.6,81.7,252.7Z" transform="translate(-23.9 -101)"/><path class="cls-8" d="M179.7,177.2c1.6,1.1.9,2.8.9,4.2v45.1c0,6.4,0,6.4,5.3,8.3-2,1.2-4,1-6.1.2h-.1c-.5-7.3-.2-14.7-.2-22C179.6,201,179.2,189.1,179.7,177.2Z" transform="translate(-23.9 -101)"/><path class="cls-8" d="M128.2,235.6c-1.4-.2-.8-1.3-.8-2V180.2c0-1-.3-2.2.9-3,.5,3.8.2,7.7.2,11.5.1,14.3,0,28.6,0,42.8C128.5,232.9,128.9,234.3,128.2,235.6Z" transform="translate(-23.9 -101)"/><path class="cls-5" d="M128.2,235.6c0-19.5,0-38.9.1-58.4h.6v58.3Z" transform="translate(-23.9 -101)"/><path class="cls-2" d="M179.7,177.2v57.7H179c.1-19.2.1-38.4.1-57.6Z" transform="translate(-23.9 -101)"/><path class="cls-3" d="M110.2,177.1c9-.2,9-.2,9,8.6,0,5.4-.1,10.9.1,16.3,0,1.9-.4,2.8-2.5,2.6s-5.4.2-8.1-.5v-.6c1.5-1.6,3.5-1.2,5.3-1.2s3.3-1.1,3.3-3.4c0-5.4-.1-10.7,0-16.1.1-2.6-1-3.8-3.7-3.8s-3.3.3-4.3-1.5S109.8,176.9,110.2,177.1Z" transform="translate(-23.9 -101)"/><path class="cls-8" d="M168.6,158l-30-.2c.5-.8,1.4-.8,2.3-.8h25.5C167.2,157,168.2,156.9,168.6,158Z" transform="translate(-23.9 -101)"/><path class="cls-9" d="M166.4,251.3h.7l-.8.8a224.3,224.3,0,0,1-28.4,0v-.9l.6-.3a2.3,2.3,0,0,1,1.4.1h23C164,250.9,165.2,250.6,166.4,251.3Z" transform="translate(-23.9 -101)"/><path class="cls-8" d="M168.8,160a6.1,6.1,0,0,1,.1-1.4c1.8.4,1.2,1.9,1.2,3,.1,3.5.2,7,0,10.4s1,4,3.8,3.7h4.4v.9h-9.1C168.6,171,169.4,165.5,168.8,160Z" transform="translate(-23.9 -101)"/><path class="cls-8" d="M137.9,252h28.4a3.3,3.3,0,0,1-1.6.7c-8.4.1-16.8,0-25.2,0C139,252.7,138.4,252.2,137.9,252Z" transform="translate(-23.9 -101)"/><path class="cls-8" d="M120.1,203.2V178h.4v25.2Z" transform="translate(-23.9 -101)"/><path class="cls-8" d="M138.3,175.7l-.4.7h-8.6l.9-.7c7-.3,6.8-.3,7-7.5.1-3.3-1.1-6.7.8-9.8.1.3.1.5.2.8C138.4,164.7,138.1,170.2,138.3,175.7Z" transform="translate(-23.9 -101)"/><path class="cls-8" d="M128.9,235.7l4.5-.2h1.5c.3-.2.5-.2.7,0h2.2c1.5,5.2,1.2,10.4.2,15.6h-.2c-1.4-3.6-.6-7.3-.5-10.9s-1-4.2-4.1-3.9C131.8,236.4,130.2,236.8,128.9,235.7Z" transform="translate(-23.9 -101)"/><path class="cls-3" d="M182.1,236.3c-.8-.1-1.7.2-2.2-.7,2-.8,4-.5,6.1-.1,0,6,0,12-.1,18-1.8-3.1-.4-6.4-.8-9.6a38.4,38.4,0,0,1,0-4.8C185.3,236.8,184.3,236,182.1,236.3Z" transform="translate(-23.9 -101)"/><path class="cls-3" d="M107.1,216.2l-9.6-.2c.6-2.2,2.4-1.6,3.9-1.7,4.6-.3,4.5-.3,4.7-4.9.1-1.6-.2-3.3,1.2-4.5h.6C107.7,208.7,109,212.6,107.1,216.2Z" transform="translate(-23.9 -101)"/><path class="cls-8" d="M63.1,253.6H80.9A50.7,50.7,0,0,1,63.1,253.6Z" transform="translate(-23.9 -101)"/><path class="cls-2" d="M110.2,177.1l-.7.2a.8.8,0,0,1-.2-1.1c.5-5.7-.6-11.4.7-17C110.1,165.2,110.2,171.1,110.2,177.1Z" transform="translate(-23.9 -101)"/><path class="cls-3" d="M160.4,274.5H159c4.4-1.6,8.9-.4,13.3-.7C168.4,275.3,164.3,274,160.4,274.5Z" transform="translate(-23.9 -101)"/><path class="cls-3" d="M175.4,244.5c1.5,1.9.3,4,.8,6s1.2,2.1,2.1,2.9h-3v-8.1c0-.3.1-.6.1-.9Z" transform="translate(-23.9 -101)"/><path class="cls-2" d="M186,235.5h-6.1c0-.2-.1-.4-.1-.6l6.1-.2C185.9,235,186,235.2,186,235.5Z" transform="translate(-23.9 -101)"/><path class="cls-3" d="M177.6,273.9c-1,.7-2,.9-2.9-.1Z" transform="translate(-23.9 -101)"/><path class="cls-3" d="M108.7,204.1l-.8.8h0c-.1-.7.1-1,.8-.8Z" transform="translate(-23.9 -101)"/><path class="cls-7" d="M179,255.7v16.5A43.6,43.6,0,0,1,179,255.7Z" transform="translate(-23.9 -101)"/><path class="cls-7" d="M44.2,158.6H61.5c0,30-.1,60,0,90.1,0,3.3-.9,4.4-4.2,4.1a57.8,57.8,0,0,0-9.3,0c-2.9.2-3.9-.7-3.9-3.7.2-11.2.1-22.5.1-33.7Z" transform="translate(-23.9 -101)"/><path class="cls-8" d="M164.1,178.1a.7.7,0,0,0,.1.6,1,1,0,0,1,.1.9,7.3,7.3,0,0,0,.2,3.6,44.1,44.1,0,0,1-.4,7.3,10.2,10.2,0,0,0,.4,3.5,7.7,7.7,0,0,1-.3,2.6c-.2,4.7,0,9.4-.1,14.2,0,1,.3,2.7-1,2.8s-1.5-1.7-1.5-2.9c-.3-4-.1-8-.1-11.9s-.1-10.3-.1-15.4c.1-2.5-1-3.4-3.6-3.6-8.1-.4-8.2-.3-8.2,7.6v40c0,1.9.2,3.8-.7,5.5s-.8.6-1.2.4l-.2-1.5a6.4,6.4,0,0,1-.6-3.6v-47a6.2,6.2,0,0,1,.5-3.3C153,176.9,158.6,176.5,164.1,178.1Z" transform="translate(-23.9 -101)"/><path class="cls-3" d="M163.6,190.2c.8-2.5.4-5.2.4-7.8a5.1,5.1,0,0,1,0-3,6.4,6.4,0,0,0,.2-.7c.9.7.7,1.8.7,2.8,0,10.9-.1,21.8,0,32.7.1,2.7-.8,3.8-3.4,3.4s-3.5,1-3.4,3.6,0,7,0,10.5-.9,3.4-3.1,3-5.4,1.6-7.3-1.4h.7l1-.6a18,18,0,0,1,4-.3c1.3,0,2.6,0,2.9-1.7.3-4.5-.2-9,.3-13.5a2.4,2.4,0,0,1,.6-1.1c1.6-1.4,3.8-.6,5.6-1.3s.9-2.4,1-3.7c.1-5-.3-10.1.2-15.1v-2.3A18.6,18.6,0,0,1,163.6,190.2Z" transform="translate(-23.9 -101)"/><path class="cls-3" d="M164.1,178.1l-16.4-.2c-.8,1.3-.4,2.7-.4,4-.1,15.3,0,30.6-.1,45.9,0,1.3.4,2.7-.3,4-1.6-.3-.7-1.5-.7-2.2-.1-16.6,0-33.1-.1-49.6,0-2.9.9-3.7,3.6-3.6s7.8.1,11.6.1C162.5,176.5,163.9,176.2,164.1,178.1Z" transform="translate(-23.9 -101)"/><path class="cls-2" d="M146.9,231.8V181.4c0-1.2-.5-2.5.8-3.5-.1,18-.2,36-.2,53.9Z" transform="translate(-23.9 -101)"/><path class="cls-3" d="M166.4,251.3H138.6a68.7,68.7,0,0,1,.1-15.7c1.5,3,.6,6.3.7,9.4.2,6-.7,5.5,5.3,5.5h18.2C164.1,250.5,165.5,250,166.4,251.3Z" transform="translate(-23.9 -101)"/><path class="cls-2" d="M138.7,235.6c0,5.2,0,10.4-.1,15.7H138c-.1-5.2-.1-10.4-.2-15.6Z" transform="translate(-23.9 -101)"/><path class="cls-3" d="M175.4,244.5h-6.6c2.2-.5,4.4-1.4,6.6,0Z" transform="translate(-23.9 -101)"/><path class="cls-1" d="M178.3,231.8a.8.8,0,0,1,0,.7.8.8,0,0,1-.2-.5Z" transform="translate(-23.9 -101)"/><path class="cls-1" d="M178.3,178.7a1.7,1.7,0,0,1,.1.7c-.1-.2-.3-.3-.3-.5Z" transform="translate(-23.9 -101)"/><path class="cls-3" d="M135.6,235.5h-.7C135.2,235,135.4,235,135.6,235.5Z" transform="translate(-23.9 -101)"/><path class="cls-7" d="M168.8,160c1.2,5.5.4,11,.4,16.6C168,171.1,168.8,165.5,168.8,160Z" transform="translate(-23.9 -101)"/><path class="cls-2" d="M138.3,175.7a101,101,0,0,1-.1-16.5A65.1,65.1,0,0,1,138.3,175.7Z" transform="translate(-23.9 -101)"/><path class="cls-4" d="M108.7,204.1l-.8.8c-1.5,2.3-.6,5-.7,7.5s-.7,3-2.9,3-4.7-.8-6.8.6H95.9a.5.5,0,0,0-.7,0H92.9a38.2,38.2,0,0,0-11.2.1h-.6c-1.5,1-.9,2.5-.9,3.7,0,9.6-.1,19.2,0,28.8.1,2.6-.6,3.6-3.3,3.5s-6.8-.2-10.1-.1-3.1-.4-3.1-2.8V162.1c0-2.4,1-2.9,3.1-2.9,13,.1,25.9.1,38.9,0,2.3,0,3,.8,3.1,3,.1,4.7-.9,9.4.5,14,.1.3.1.7.2,1.1,1.9,1.4,4,.5,6.1.6s2.9.6,2.8,2.8c-.1,6.6-.1,13.3,0,20,.1,2.3-1,2.6-2.9,2.7S110.8,202.6,108.7,204.1Z" transform="translate(-23.9 -101)"/><path class="cls-3" d="M81.7,216.1a17.9,17.9,0,0,1,11.2-.1Z" transform="translate(-23.9 -101)"/><path class="cls-3" d="M95.2,216c.2-.4.5-.4.7,0h-.7Z" transform="translate(-23.9 -101)"/><path class="cls-7" d="M157.5,216.4a.4.4,0,0,1-.2.4l-.6,1.1c-.2,3.8-.1,7.7,0,11.6,0,2.2-.5,3.5-3.2,3.1s-3-.4-4.3.6h-.8c0-16.8.1-33.7-.1-50.5,0-3.4,1-4.4,4.2-4.1a30.9,30.9,0,0,0,6.8,0c2.6-.2,3.4.8,3.4,3.4-.1,9.7-.1,19.5-.1,29.2V213c1.4-5.7-.1-11.5,1.4-17.1,0,6.8.7,13.6-.5,20.4C161.5,215.5,159.4,215.2,157.5,216.4Z" transform="translate(-23.9 -101)"/><path class="cls-7" d="M164,179.4v3A2,2,0,0,1,164,179.4Z" transform="translate(-23.9 -101)"/><path class="cls-7" d="M163.6,190.2c.8,1.1.5,2.3.4,3.4C163.1,192.6,163.4,191.4,163.6,190.2Z" transform="translate(-23.9 -101)"/><path class="cls-8" d="M149.2,233.2c.6-2.2,2.5-1.5,3.7-1.3,2.8.5,3.2-.7,3-3.1s0-5.7,0-8.5c0-1.2-.4-2.5.8-3.5.9,5-.2,10.1.6,15.1C155,234.9,151.9,232.7,149.2,233.2Z" transform="translate(-23.9 -101)"/><path class="cls-9" d="M157.3,231.9c-1.4-5-.3-10.1-.6-15.1h.6Z" transform="translate(-23.9 -101)"/><path class="cls-8" d="M157.5,216.4c1.9-1.8,3.9-1.5,6-.2Z" transform="translate(-23.9 -101)"/><path class="cls-7" d="M81.1,177.7c.2-.1.3-.2.2-.4,6.2-.2,12.3-.8,18.4.7h-.1a90.8,90.8,0,0,1,0,19.5h.1a2.9,2.9,0,0,1-1.9.8h-15a2.5,2.5,0,0,1-1.8-.8h0A86.5,86.5,0,0,1,81.1,177.7Z" transform="translate(-23.9 -101)"/><path class="cls-3" d="M99.7,178c-6.1-.6-12.3.4-18.4-.7,5.9-1.7,11.8-.7,17.7-.5C99.2,176.8,99.4,177.6,99.7,178Z" transform="translate(-23.9 -101)"/><path class="cls-3" d="M81,197.3l1.5.4c5.2.1,10.4.2,15.7,0l1.5-.4c-.2,1.3-1,1.6-2.1,1.6H83C81.9,198.9,81.1,198.6,81,197.3Z" transform="translate(-23.9 -101)"/><path class="cls-3" d="M81.1,177.7c0,6.5-.1,13.1-.1,19.7-1.8-3.9-.6-7.9-.7-11.9S79.3,180.1,81.1,177.7Z" transform="translate(-23.9 -101)"/><path class="cls-3" d="M99.6,197.4V177.9c1.5,1.3.9,3.1.8,4.6C100,187.4,101.5,192.5,99.6,197.4Z" transform="translate(-23.9 -101)"/><path class="cls-4" d="M98.2,197.7a55.1,55.1,0,0,1-15.7,0A102.9,102.9,0,0,1,98.2,197.7Z" transform="translate(-23.9 -101)"/></svg>