<svg id="Ebene_1" data-name="Ebene 1" xmlns="http://www.w3.org/2000/svg" viewBox="0 0 176.1 163.8"><defs><style>.cls-1{fill:#1d1a1b;}.cls-2{fill:#1e1b1c;}.cls-3{fill:#0f141b;}.cls-4{fill:#1f1c1d;}.cls-5{fill:#0d0c0d;}.cls-6{fill:#181618;}.cls-7{fill:#020101;}.cls-8{fill:#894723;}.cls-9{fill:#953b12;}.cls-10{fill:#302e2f;}.cls-11{fill:#4a291d;}.cls-12{fill:#040203;}.cls-13{fill:#333032;}.cls-14{fill:#151214;}.cls-15{fill:#110f11;}.cls-16{fill:#343234;}.cls-17{fill:#1a1819;}.cls-18{fill:#121112;}.cls-19{fill:#1e1c1d;}.cls-20{fill:#1e1b1d;}.cls-21{fill:#191919;}.cls-22{fill:#893919;}.cls-23{fill:#0f151b;}.cls-24{fill:#391d18;}.cls-25{fill:#090f1a;}.cls-26{fill:#21191b;}.cls-27{fill:#311c19;}.cls-28{fill:#060e19;}.cls-29{fill:#221e1d;}.cls-30{fill:#232022;}.cls-31{fill:#201d1f;}.cls-32{fill:#35201b;}.cls-33{fill:#221d1d;}.cls-34{fill:#211d1e;}.cls-35{fill:#d66f2a;}.cls-36{fill:#231c1d;}.cls-37{fill:#bc4e19;}.cls-38{fill:#201e1f;}.cls-39{fill:#161516;}.cls-40{fill:#0b121a;}.cls-41{fill:#272527;}.cls-42{fill:#020202;}.cls-43{fill:#252325;}.cls-44{fill:#bc5f28;}.cls-45{fill:#1a1319;}.cls-46{fill:#1d1a1c;}.cls-47{fill:#252123;}.cls-48{fill:#201c1d;}.cls-49{fill:#231e1d;}.cls-50{fill:#0f0d0f;}.cls-51{fill:#9e4217;}.cls-52{fill:#17141a;}.cls-53{fill:#d26429;}.cls-54{fill:#df6b2b;}.cls-55{fill:#ca6328;}.cls-56{fill:#953c13;}.cls-57{fill:#9f4318;}.cls-58{fill:#aa4518;}.cls-59{fill:#a44518;}.cls-60{fill:#ad4a1b;}.cls-61{fill:#c65119;}.cls-62{fill:#c56227;}.cls-63{fill:#e16f2b;}.cls-64{fill:#080b18;}.cls-65{fill:#d26e2b;}.cls-66{fill:#b94c18;}.cls-67{fill:#0e131b;}.cls-68{fill:#252223;}.cls-69{fill:#4c261b;}.cls-70{fill:#2d1b1a;}.cls-71{fill:#ba4c18;}.cls-72{fill:#b8531f;}.cls-73{fill:#ab5124;}.cls-74{fill:#c04d16;}.cls-75{fill:#8e3a14;}.cls-76{fill:#e47027;}.cls-77{fill:#bf4e17;}.cls-78{fill:#bb5723;}.cls-79{fill:#d76627;}.cls-80{fill:#bb4d18;}.cls-81{fill:#9e4318;}.cls-82{fill:#c55e26;}.cls-83{fill:#cf6229;}.cls-84{fill:#a8481a;}.cls-85{fill:#221f21;}.cls-86{fill:#391f1c;}.cls-87{fill:#211d1f;}.cls-88{fill:#15151c;}.cls-89{fill:#1e1a1b;}.cls-90{fill:#993e15;}.cls-91{fill:#ac4c1d;}.cls-92{fill:#9b4117;}.cls-93{fill:#be5722;}.cls-94{fill:#973e14;}.cls-95{fill:#c75e26;}.cls-96{fill:#c85d25;}.cls-97{fill:#c55d27;}.cls-98{fill:#c85e26;}.cls-99{fill:#c25a24;}.cls-100{fill:#d26529;}.cls-101{fill:#e9722a;}.cls-102{fill:#e56d29;}.cls-103{fill:#c55f28;}.cls-104{fill:#bd5a26;}.cls-105{fill:#9a4118;}.cls-106{fill:#a04317;}.cls-107{fill:#d96729;}.cls-108{fill:#c55d26;}.cls-109{fill:#c25a25;}.cls-110{fill:#cb6028;}.cls-111{fill:#9e4218;}.cls-112{fill:#943c13;}.cls-113{fill:#c05b26;}.cls-114{fill:#e66c29;}.cls-115{fill:#cd6127;}.cls-116{fill:#943a12;}.cls-117{fill:#cd622a;}.cls-118{fill:#c25b25;}.cls-119{fill:#a14519;}</style></defs><path class="cls-1" d="M70.1,257.7v22.8a22.9,22.9,0,0,1-.7,3.4l-.5-.4c-1.2-2.4-.6-4.9-.6-7.3-.1-5.4-.1-10.7,0-16.1-.2-.4-.7-.5-1.1-.6-2.2-.6-1.3-2.3-1.4-3.7s0-2.5-1.4-2.1c-3.7,1.3-3-.9-2.4-3.7-2.1,2.6-3.1,5.4-5.8,6.3a4.3,4.3,0,0,1-1.7-.6c-2.5-.2-5-.1-7.5-.1s-4.2-1.4-4.3-4.3c-.1-4.9.5-9.7-.4-14.5a14,14,0,0,1,0-5.4,56.4,56.4,0,0,0,.1-14.8c-.5-2.5-1.1-5.1-.1-7.7V175c0-9.8-.1-19.6.1-29.3a19.4,19.4,0,0,0,.4-5.9c0-2.3,1.2-3.8,3.6-3.7s6.2-.9,9,1c1,1.6.7,3.4.7,5.1v41c0,1.6-.3,3.2.5,4.7a2.8,2.8,0,0,0,1,.9c3,.7,5.9.3,8.9.3H94.8c1.6,0,3.3-.2,4.8.5a1.5,1.5,0,0,1,.8,1.1c0,7.2-.6,14.4.3,21.7a9,9,0,0,1,0,4c-.8,8.4-.4,16.8-.2,25.1l.8,1.6c3.6,1.5,7.5-.2,11,1.1,1.5,2.2,1.8,8,.5,9.8s-2.9,1.9-4,1.1c-3.2-2.2-5.8-.4-8.5.8a7.2,7.2,0,0,0-1.4,2c-.9,1.2-.8,2.6-1.2,3.9s-.7,2.9-2.5,2.6-2.3-1.7-2.4-3.3a2.2,2.2,0,0,1,.1-.8c.3-1.4,1.2-3-.4-4.1s-2.6.9-3.8,1.5l-.7.3a1.8,1.8,0,0,0-1.1,1c-.2,6.5,0,13-.1,19.5,0,1.6.2,3.2-.6,4.7l-.5.5a42.6,42.6,0,0,1-.6-5c-.1-7.1-.1-14.2-.1-21.3C80,257,75,256.7,70.1,257.7Z" transform="translate(-41 -120.6)"/><path class="cls-2" d="M161.1,256.9c-2.2.1-2.8,1.2-2.7,3.4q.2,10.1,0,20.1a21.1,21.1,0,0,1-.5,3.5l-.5-.4c-1.2-2.4-.7-4.9-.7-7.3-.1-5.6,0-11.2,0-16.8-.1-.3-.1-.7-.7-.7s-1.3,2.3-2.8,1.9a.9.9,0,0,1-.6-.4c-.1-.2.7-13.9.8-14.1a3.7,3.7,0,0,1,2.1-2c5.7-.7,11.5-.2,17.2-.3,7.7.2,15.4-.4,23.1.2a2.9,2.9,0,0,1,1.8,4c-1.8,4.8-1.2,9.8-1.4,14.8s1.5,11,.8,16.5c-.2,1.1-.1,2.2-.9,3.2s-4.1.6-6.1.9a1.5,1.5,0,0,1-1.1-.6c0-.5-.1-.9-.1-1.4-.2-7.4.5-14.9-.3-22.3v-1.3c-1-1.2-2.3-.6-3.5-.6C177,257,169.1,257.5,161.1,256.9Z" transform="translate(-41 -120.6)"/><path class="cls-3" d="M57,120.9l1-.2a4.1,4.1,0,0,1,1.5,2,7.7,7.7,0,0,1,.3,2.6c.1,6.1-.5,6.3,6.7,6.2h85.3c4.7-.2,4.7-.2,4.8-4.9.1-1.6-.1-3.2,1-4.6a1,1,0,0,1,1.2.4c-.1,4,.4,7.9-.3,11.9a5.4,5.4,0,0,1-3.5.8c-6,0-12.1.2-18.2-.1-3-.9-6-.7-9.1-.5h-1.1a10.4,10.4,0,0,0-4.3,0h-1.1a26.9,26.9,0,0,0-8.5.3,9.9,9.9,0,0,1-4.2,0,7.7,7.7,0,0,0-5.2.1,12.5,12.5,0,0,1-5.1-.1,167.5,167.5,0,0,0-26.5,0,8.6,8.6,0,0,1-2.8.3H60.8c-2.7.1-4.2-.7-3.9-3.8S56.8,124.4,57,120.9Z" transform="translate(-41 -120.6)"/><path class="cls-4" d="M189.2,282.2v.8c4.1-.2,8.2.5,12.2-1.2.6-7.2.2-14.4.1-21.6-1.8.9-2.5,0-2.6-1.7a59.3,59.3,0,0,1,0-7.3c-1.4,1.9-1,4-1.2,6s1.1,5-2.5,5.6c.5-5,1.1-10,1.6-15.1.1-.9-.1-1.9-.1-2.9,1.5-1.4,3.4-.9,5.2-.9s3.6,1.9,1.8,4.3c-.5.7,1.9,5.2,2.9,5.4s2,.1,2.8.8a1.1,1.1,0,0,1,.1,1c-1.4,1.5-3.8-.4-5.1,1.5a18.1,18.1,0,0,0-.9,3.7c-.1,6.9-.1,13.9,0,20.8,0,2.3-.6,3.1-2.9,3s-6.7,0-10.1-.2c-.7,0-1.3-1.3-2-2A.4.4,0,0,1,189.2,282.2Z" transform="translate(-41 -120.6)"/><path class="cls-5" d="M43,175.3v1.4c-.8,6.8-.2,13.6-.3,20.4,0,4.2-.5,8.4.3,12.6v6.7c.2,1.5.7,3,.1,4.6-.1,7.7-.5,15.4,0,23a5,5,0,0,1,.2,1.2,17.9,17.9,0,0,0-.1,6.1c.4,1.4,0,2.8.4,4.2a2,2,0,0,1-.6,1.4c-.6-.6-1.7-1.3-1.7-2,0-5,.1-10,.1-15a38.6,38.6,0,0,1,0-9.6v-1.6a23,23,0,0,1,0-7.4v-6.8a9.3,9.3,0,0,1,0-4.4c0-15.2-.1-30.3-.2-45.4,0-9.5-.1-18.9-.2-28.3,0-.6.6-1.2.9-1.8,4.1-.2,8.1-.2,12.1-.1.6,2.1-1,1.7-2,1.8-2.7.2-5.4-.3-8,.3a1.9,1.9,0,0,0-.8,1c-.8,12-.5,23.9-.5,35.9A2.9,2.9,0,0,0,43,175.3Z" transform="translate(-41 -120.6)"/><path class="cls-6" d="M173.1,134.8c.1,1.2.3,2.4.3,3.6.1,15.6.1,31.1,0,46.6,0,2.9.7,3.9,3.7,3.8,7.4-.2,14.7-.1,22.1,0a14.7,14.7,0,0,1,3.4.7,3.2,3.2,0,0,1-2.4.9c-8.9,0-17.9.5-26.8-.2-2.6-1.1-2.6-3.4-2.6-5.7,0-15.2-.2-30.5.1-45.8,0-.4.1-.8.1-1.2a5.5,5.5,0,0,1,1-2.2A1.2,1.2,0,0,1,173.1,134.8Z" transform="translate(-41 -120.6)"/><path class="cls-5" d="M216.2,203a15.5,15.5,0,0,1,.8,3.6q.1,23.4,0,46.8c0,1.1-1,2.3-1.6,3.5a4.6,4.6,0,0,1-.9-2c-.1-16.8-.4-33.6.2-50.4A2.5,2.5,0,0,1,216.2,203Z" transform="translate(-41 -120.6)"/><path class="cls-7" d="M58.8,122.1l-.8-1.4h97.3c1.2,0,2.5,1,3.7,1.6h-1.3c-3.4,1-6.9.5-10.4.4-27.9-.2-55.8.2-83.7.1A12.7,12.7,0,0,1,58.8,122.1Z" transform="translate(-41 -120.6)"/><path class="cls-8" d="M158.6,122.2h.4a88.4,88.4,0,0,1,.1,8.9c-.1,2.3.6,3.1,2.9,3s7.4.4,11.1.6l-.4.3c-2.8,1.4-5.8.5-8.7.8-1.4.1-3.1-.4-3.6,1.6-.3,18.2,0,36.4-.1,54.5,0,3,.1,6-.1,9a3.9,3.9,0,0,1-.5,1.4,1.9,1.9,0,0,1-1.2.7,5,5,0,0,1-.8-1.2,6.8,6.8,0,0,1-.2-1.4c-.1-21-.1-42.1-.1-63.1a7.6,7.6,0,0,1,.3-2.1,2.8,2.8,0,0,1,.8-1.1C158.5,130.2,158.6,126.2,158.6,122.2Z" transform="translate(-41 -120.6)"/><path class="cls-9" d="M54.1,134.9l-12.2-.3c4-.1,7.9-.4,11.9-.3,2.3,0,3-.7,2.9-3s.2-6.9.3-10.4c.1,3.5.3,7,.2,10.5s.7,2.8,2.8,2.7,6.2.1,9.3.1l.3.7v.7c-.1,15.6,0,31.1,0,46.7,0,1.8.3,3.8-.8,5.5a.9.9,0,0,1-1.3,0c-1.2-1.7-.9-3.8-.9-5.7-.1-14.9.1-29.9-.1-44.8-.2-1.6-1.5-1.4-2.6-1.4H56.1l-1-.2A2.1,2.1,0,0,1,54.1,134.9Z" transform="translate(-41 -120.6)"/><path class="cls-10" d="M143.5,257.6l-19.4-.4c-7,0-14,.1-20.9,0-2.6-.1-3.5.7-3.4,3.3q.2,9.9,0,19.8a19.7,19.7,0,0,1-.5,3.5l-.5-.5c-1.2-4.3-.4-8.6-.6-13s-.1-6.9.1-10.4,1-4.1,3.7-4.1c13.2,0,26.4-.2,39.6.1a4.2,4.2,0,0,1,1.5.4A1.1,1.1,0,0,1,143.5,257.6Z" transform="translate(-41 -120.6)"/><path class="cls-11" d="M159.3,202.9v-.8c1.1-1,2.5-.9,3.9-1h9.7c9.1-.1,18.3.4,27.4-.3,1.6-1,1.2-2.6,1.3-4s-.3-4.2.7-6.2l.5-.4.8,12.6a2.5,2.5,0,0,1-1,.8,6.1,6.1,0,0,1-1.3.3H172.9c-4.4-.3-8.8.6-13.1-.6Z" transform="translate(-41 -120.6)"/><path class="cls-1" d="M69.4,283.9c-3.9.1-7.8.4-11.7.3-.7,0-1.8-1.7-1.8-2.7-.2-6.8-.1-13.6-.2-20.4a21,21,0,0,0-.9-4.2c.5-.6,1.2-.5,1.9-.2a2.3,2.3,0,0,1,.6,1.2c.6,6.9.3,13.8.2,20.7,0,3,.9,4.3,4,4.2s5.3-.8,7.6.8Z" transform="translate(-41 -120.6)"/><path class="cls-12" d="M173.5,189.5h29.1l.2.7h-.3a2.6,2.6,0,0,1-1.9.9c-7.9.3-15.9.1-23.9.1a5.8,5.8,0,0,1-2.9-.5A.9.9,0,0,1,173.5,189.5Z" transform="translate(-41 -120.6)"/><path class="cls-13" d="M161.1,256.9h25.1a5.4,5.4,0,0,1,2.2,1l-13.6-.6Z" transform="translate(-41 -120.6)"/><path class="cls-2" d="M143.5,257.6v-.8h.7a2.8,2.8,0,0,1,.8,1.1c.3,8.5.8,17-.3,25.5-.2.1-.3.3-.5.5a30.3,30.3,0,0,1-.6-4.2C143.5,272.2,143.5,264.9,143.5,257.6Z" transform="translate(-41 -120.6)"/><path class="cls-14" d="M215.4,255.3v1.6h-11c-1.7-.4-1.5-1.2,0-1.4a20.7,20.7,0,0,1,5-.2A4.8,4.8,0,0,1,215.4,255.3Z" transform="translate(-41 -120.6)"/><path d="M189.2,282.2h-.7V259.1c.2,2.1.6,4.3.7,6.4C189.3,271.1,189.2,276.7,189.2,282.2Z" transform="translate(-41 -120.6)"/><path class="cls-15" d="M43,256.9v-1.6c3.9-.8,7.7-.2,11.6-.3,1.1.6.5,1.1-.3,1.3s-1.7-.2-2.3.6Z" transform="translate(-41 -120.6)"/><path class="cls-16" d="M70.1,257.7l14.9-.2Z" transform="translate(-41 -120.6)"/><path class="cls-2" d="M157.9,283.9H144.2l.2-.2a20.6,20.6,0,0,1,13.2,0Z" transform="translate(-41 -120.6)"/><path class="cls-7" d="M202.8,203l.8-.2,12.6.2-.8.7c-1.9,1.5-4.2.8-6.3,1a29,29,0,0,1-5.1-.2,2.2,2.2,0,0,1-1.1-.5C202.5,203.7,202.5,203.4,202.8,203Z" transform="translate(-41 -120.6)"/><path class="cls-10" d="M99.3,283.8H85.7v-.3a24.1,24.1,0,0,1,13.3,0C99.1,283.6,99.2,283.7,99.3,283.8Z" transform="translate(-41 -120.6)"/><path class="cls-17" d="M41.4,230.3v0Z" transform="translate(-41 -120.6)"/><path class="cls-17" d="M41.4,221.3v0Z" transform="translate(-41 -120.6)"/><path class="cls-18" d="M52,256.9l3-1.6c.3-.3.5-.3.8,0l.7.8a.5.5,0,0,1,0,.7H52Z" transform="translate(-41 -120.6)"/><path class="cls-17" d="M41.4,210.1v0Z" transform="translate(-41 -120.6)"/><path class="cls-2" d="M99.3,255.3a49.9,49.9,0,0,1,5-2.9c.6-.3,1.6.2,2.3.5l4.5,1.6c.3-1.1.8-2.2,1-3.3s.4-4.2.6-6.4a2.8,2.8,0,0,1,2-.9c9.9,0,19.8-.6,29.6.3,2.5,3.4,2,7.2,1.3,11-.1.9-1,1.3-2,1.1-13.2-.6-26.4-.1-39.7-.3C102.4,256,100.7,256.5,99.3,255.3Z" transform="translate(-41 -120.6)"/><path class="cls-19" d="M56.5,256.8v-.7a59.8,59.8,0,0,1,3.4-6.1c.3-.5,1.6-.7,2.4-.6s.7,1.3.7,2a5.9,5.9,0,0,1-1.2,1.9l4.2-.6c.2,1.6.2,3.1.5,4.6s.8,1.2,1.3,1.8.7,2.3.7,3.5c0,5.4-.1,10.9.1,16.4.1,3.1-1.2,4.3-4.2,4s-4.7.4-7-.5c-1.1-3.5-.3-7.1-.5-10.6s.5-9.6-.4-14.3Z" transform="translate(-41 -120.6)"/><path class="cls-20" d="M87.3,257.6a9,9,0,0,1,1.9-1.5,28.5,28.5,0,0,1,3.9-1.1,30.1,30.1,0,0,1,1.1,4.3c.1.6-.8,1.5-.6,2a11.1,11.1,0,0,0,1.7,2.7,17.7,17.7,0,0,0,1.6-2.2c.6-1.4,1.1-2.8,1.6-4.2.8,8.1.3,16.3.2,24.5-3.3,1.8-6.9.7-10.5.7-1.3,0-1.6-1.3-1.7-2.5a32.3,32.3,0,0,0-.1-4.4,3,3,0,0,1-.1-2.1c.5-4.1.1-8.3.2-12.4C86.6,260.1,86.2,258.7,87.3,257.6Z" transform="translate(-41 -120.6)"/><path class="cls-21" d="M86.6,274v1.6a3.2,3.2,0,0,1,.3,1.4c.2,5.6.2,5.7,5.7,5.6,1.9,0,3.9.5,5.9-.3V257.6a20.9,20.9,0,0,1,.8-2.3h40.2a24.3,24.3,0,0,1,4.7.8.4.4,0,0,1,.2.5c-.1.1-.1.2-.2.2H102.3c-2.5-.1-3.1,1-3.1,3.3,0,7.8-.1,15.7-.1,23.5H85.8V259.6a12.8,12.8,0,0,1,.7-2.8A89.9,89.9,0,0,1,86.6,274Z" transform="translate(-41 -120.6)"/><path class="cls-22" d="M100,216.4v-3.7a132.2,132.2,0,0,1,0-21.8.8.8,0,0,0,0-.7.6.6,0,0,1,.3-.9,1.1,1.1,0,0,1,1,.7,7,7,0,0,1,.5,3.2v44.9c0,1.2-.2,2.5,1.2,3.2,3.9.5,7.8.2,11.6.2h53c1.8.1,3.7-.3,5.4.8s.5.7.2,1.2-3.2.5-4.8.6c-22.4.4-44.8-.3-67.3.1a.7.7,0,0,1-1.1-.5v-1.1A190.9,190.9,0,0,1,100,216.4Z" transform="translate(-41 -120.6)"/><path class="cls-23" d="M100,243.7l.5.2c7.8-.4,15.5-.1,23.2-.2h48.5c.6.1.7.5.5,1h-18a9.9,9.9,0,0,1-9.7,0H103.2A13.5,13.5,0,0,1,100,243.7Z" transform="translate(-41 -120.6)"/><path class="cls-15" d="M56.5,257.6a23.3,23.3,0,0,1,.8,3.8v20.9l.7.3c10.2.8,10.1.8,10.2-9.4,0-5-.4-9.9.3-14.9.2.4.7.7.7,1.1,0,8.1,0,16.1-.1,24.2H59.4c-2.3.2-2.9-.8-2.9-3C56.6,273,56.5,265.3,56.5,257.6Z" transform="translate(-41 -120.6)"/><path class="cls-24" d="M55.8,134.9h.8c1.3,1.7,1,3.6,1,5.4v46a12.1,12.1,0,0,0,.1,1.9,4.9,4.9,0,0,1-.1,1.2c-.3.4-.7.5-1,.2h-.8c-.7-1.2-.4-2.5-.4-3.7-.1-16.4.2-32.8-.1-49.2A2.5,2.5,0,0,1,55.8,134.9Z" transform="translate(-41 -120.6)"/><path class="cls-25" d="M55.8,134.9v54.6a21.4,21.4,0,0,1-.7-4.3c-.1-16-.1-32.1-.1-48.1a2.6,2.6,0,0,1-.5-.9,1.7,1.7,0,0,1,.5-1.3Z" transform="translate(-41 -120.6)"/><path class="cls-26" d="M56.6,189.5h.8c1.1-1,2.4-1,3.8-1h35c1.3,0,2.7-.1,3.8,1.1v.7H60.4A23.2,23.2,0,0,1,56.6,189.5Z" transform="translate(-41 -120.6)"/><path class="cls-27" d="M85,202.9h.8a6.5,6.5,0,0,1,.7,3.6v33.6c0,1.2.1,2.3-.8,3.2h-.6l-.5-.5a8,8,0,0,1-.6-4c0-11.1-.1-22.3,0-33.4a7.8,7.8,0,0,1,.2-1.4Z" transform="translate(-41 -120.6)"/><path class="cls-28" d="M85.7,243.3c0-13.4,0-26.9.1-40.4l.7.8c.8,6,.3,12.1.3,18.1s.5,14.4-.3,21.5Z" transform="translate(-41 -120.6)"/><path class="cls-24" d="M55.8,202.9h.8a4.6,4.6,0,0,1,.9,2c.2,9.8,0,19.7.1,29.6-.1,2.2,0,4.4-.1,6.6a3.7,3.7,0,0,1-.5,1.8l-.5.5h-.7c-.7-1.1-.4-2.4-.4-3.6V206.6C55.4,205.4,55.1,204.1,55.8,202.9Z" transform="translate(-41 -120.6)"/><path class="cls-25" d="M55.8,202.9v40.4a13.4,13.4,0,0,1-.7-2.7c-.1-11.6-.1-23.3,0-34.9A9.6,9.6,0,0,1,55.8,202.9Z" transform="translate(-41 -120.6)"/><path class="cls-29" d="M86.5,243.3V203.7a9,9,0,0,1,.7,2.7q.1,17.1,0,34.2A9,9,0,0,1,86.5,243.3Z" transform="translate(-41 -120.6)"/><path class="cls-17" d="M43,175.3a16.4,16.4,0,0,1-.7-2.8V139.1a14.3,14.3,0,0,1,.7-2.8,21,21,0,0,1,0,9Z" transform="translate(-41 -120.6)"/><path class="cls-30" d="M68.5,258.3c0,7-.2,13.9.1,20.9.1,3.2-1,4.2-4.1,3.8l-7.2-.7c2.5,0,5-.2,7.5,0s3-.8,3-3.1c-.1-6.7,0-13.4,0-20.1Z" transform="translate(-41 -120.6)"/><path class="cls-17" d="M43,209.7a10.9,10.9,0,0,1-.7-2.4V179.1a10.9,10.9,0,0,1,.7-2.4Z" transform="translate(-41 -120.6)"/><path class="cls-31" d="M55.8,255.3H43v-3.7a12.2,12.2,0,0,1,0-6v-.8a22.6,22.6,0,0,1,0-8.2c.3,4.4.6,8.7.8,13.1s0,4.8,4.8,4.9C51,254.7,53.4,255.1,55.8,255.3Z" transform="translate(-41 -120.6)"/><path class="cls-32" d="M85.1,243.4a15.7,15.7,0,0,1-2.8.6h-23a14,14,0,0,1-2.8-.6l.2-.3c4.4-1.7,8.9-.4,13.3-.8H81c1.4,0,2.8-.1,3.9.9Z" transform="translate(-41 -120.6)"/><path class="cls-26" d="M100,216.4v26.2a13.4,13.4,0,0,1-.7-2.7q-.1-10.3,0-20.7A8.9,8.9,0,0,1,100,216.4Z" transform="translate(-41 -120.6)"/><path class="cls-17" d="M43,236.6v8.2a20.5,20.5,0,0,1-.7-3.4V223.6a21.7,21.7,0,0,1,.7-3.5,35.7,35.7,0,0,1,0,11.3Z" transform="translate(-41 -120.6)"/><path class="cls-33" d="M62.6,191.1H83.3v.4H62.6Z" transform="translate(-41 -120.6)"/><path class="cls-26" d="M100,190.9v21.8c-.3-4.7-.6-9.3-.7-13.9C99.3,196.2,99.8,193.6,100,190.9Z" transform="translate(-41 -120.6)"/><path class="cls-34" d="M43,145.3v-9h0a43.8,43.8,0,0,1,12,0v.8a66.2,66.2,0,0,1-7.7-.1c-3.1-.3-3.7,1.2-3.6,3.9A17.5,17.5,0,0,1,43,145.3Z" transform="translate(-41 -120.6)"/><path class="cls-30" d="M86.6,274c-.1-5.7-.1-11.5-.1-17.2l.8.8c0,4.3,0,8.6-.1,12.9A21.4,21.4,0,0,1,86.6,274Z" transform="translate(-41 -120.6)"/><path class="cls-31" d="M43,231.4v0Z" transform="translate(-41 -120.6)"/><path class="cls-35" d="M85,202.9c0,.3-.1.5-.1.8a5,5,0,0,1-3.3,1.2c-3.4-.3-6.8,0-10.2-.4a2.7,2.7,0,0,1-1.1-.5,1.1,1.1,0,0,1-.3-1.1Z" transform="translate(-41 -120.6)"/><path class="cls-36" d="M85.9,191.3H98.1v.5H85.9Z" transform="translate(-41 -120.6)"/><path class="cls-37" d="M70,202.9v.8l-.4.4a2.5,2.5,0,0,1-1.1.4c-3.2.4-6.4.1-9.6.2a4.6,4.6,0,0,1-2.3-.3v-1.5Z" transform="translate(-41 -120.6)"/><path class="cls-1" d="M145,244.8h9.7c-.1,2.5-.2,5-.4,7.5s-.8,3.7-1,5.6a5.9,5.9,0,0,0,.7,2.6,1.4,1.4,0,0,1,.3,1.5,2.2,2.2,0,0,0,0,3.2,1.6,1.6,0,0,1-.2,1.5c-1.2.6-1.1,1.8-1.2,2.9s-1.5,2.4-2.3,1.5-3.9-3.6-2.8-5.9-.2-3.7-2.1-4.8a3.8,3.8,0,0,1-.9-1.8c-.3-.6,0-1.3-.6-1.8h0v-.7c.2-2.5.5-4.9.7-7.4S144.9,246.1,145,244.8Z" transform="translate(-41 -120.6)"/><path class="cls-38" d="M195.2,262.8c.5-2.1,1.1-4.1,1.5-6.2s.8-5.3,1.2-7.9h1.8c0,3.1.2,6.2-.1,9.2s1.4,1.1,2.3,1.1c.8,7.7.4,15.4.2,23.1a6,6,0,0,1-6.2,0C195.7,275.8,195.4,269.3,195.2,262.8Z" transform="translate(-41 -120.6)"/><path class="cls-31" d="M154,262v-1.5l2.2-2.9c.9.8.7,2,.8,3.1,0,6.2,0,12.4-.1,18.5,0,1.7.3,3.8-2.5,3.4s-1.3-4.2-1.4-6.3-.5-6.6,1-9.8V265C152.9,264,154,263,154,262Z" transform="translate(-41 -120.6)"/><path class="cls-39" d="M144.2,256.8l.8,1.5c1.9,5.4.7,10.9,1,16.3a24.1,24.1,0,0,1,0,3.8c-.1,2.5,1,3.7,3.6,3.6a9.4,9.4,0,0,1,4.4.5c2.5.6,2.6-.8,2.6-2.7V260.5c0-1.3-.3-2.5.4-3.7a10.9,10.9,0,0,1,.7,2.4c0,8.1-.1,16.3-.1,24.4H144.4C144.3,274.7,144.3,265.7,144.2,256.8Z" transform="translate(-41 -120.6)"/><path class="cls-40" d="M172.7,244.8v-.7l1.3-.7c9.4-.5,18.9-.8,28.3.2a.9.9,0,0,1,.4,1.2h-30Z" transform="translate(-41 -120.6)"/><path class="cls-41" d="M157,256.8c0,7.8-.1,15.5,0,23.3,0,2.3-.8,3.2-3,2.8l-.3-.3.3-.4c2.5.2,2.2-1.6,2.2-3.2V257.6Z" transform="translate(-41 -120.6)"/><path class="cls-42" d="M202.7,283H190c3.8-.8,7.6-.2,11.4-.4A2,2,0,0,1,202.7,283Z" transform="translate(-41 -120.6)"/><path class="cls-43" d="M201.9,283H190l5.9-.8h6c.2.1.3.3.2.4S202,283,201.9,283Z" transform="translate(-41 -120.6)"/><path class="cls-2" d="M58.8,122.1a26.6,26.6,0,0,1,3.9-.7h91.1a26.6,26.6,0,0,1,3.9.7v5.1c0,5.4,0,5.4-5.2,5.4-16.8-.6-33.5-.6-50.2,0H100c-7.5-.9-15.1-.2-22.6-.4-2.7,0-5.5-.4-8.1.4s-7.9.8-9.8-1S58.9,125.4,58.8,122.1Z" transform="translate(-41 -120.6)"/><path class="cls-44" d="M69.3,134.9v-.7l2.3-.2c8.9-.4,17.9-.4,26.9,0h5.3a8.2,8.2,0,0,1,4.4,0h4.6a33.2,33.2,0,0,1,8.9,0h.8a5.9,5.9,0,0,1,3.7,0h.8a33.9,33.9,0,0,1,9,0l22.5.2a1.5,1.5,0,0,0-.1.7c-1.4,1.2-3,1-4.6,1H73.9C72.3,135.9,70.6,136.2,69.3,134.9Z" transform="translate(-41 -120.6)"/><path class="cls-33" d="M102.3,132.6a10.8,10.8,0,0,1,3.1-.7h43.9a12.3,12.3,0,0,1,3.2.7Z" transform="translate(-41 -120.6)"/><path class="cls-33" d="M69.3,132.6h0Z" transform="translate(-41 -120.6)"/><path class="cls-45" d="M98.5,134H71.6c4.5-.2,9.1-.6,13.6-.6S94.1,133.8,98.5,134Z" transform="translate(-41 -120.6)"/><path class="cls-45" d="M136,134h0Z" transform="translate(-41 -120.6)"/><path class="cls-45" d="M121.7,134h0Z" transform="translate(-41 -120.6)"/><path class="cls-45" d="M108.2,134h0Z" transform="translate(-41 -120.6)"/><path class="cls-45" d="M126.2,134h0Z" transform="translate(-41 -120.6)"/><path class="cls-46" d="M202.7,244.8v-.7a1,1,0,0,1,0-1.2l.8-1c.8-2.9.3-5.9.4-8.9.2-8.8-.4-17.7.3-26.5.9-2.1,2.6-2.2,4.4-2a2.4,2.4,0,0,1,1.1.6c1.9,4.3.9,8.9.7,13.2-.7,11.9,1,23.9-.6,35.9l-.4.4a26.7,26.7,0,0,1-4-.1c-.7-.2-1.8-1.3-1.7-1.7,1.2-3.1-.5-3.4-2.9-2.8C200.8,247.8,206.5,248.1,202.7,244.8Z" transform="translate(-41 -120.6)"/><path class="cls-47" d="M208.7,203.7h6.7v51.6h-6v-.7c3.7-1.1,4.3-3.7,4.2-7.2-.2-12.2-.1-24.3,0-36.5,0-3.1-.6-5.4-4.2-5.7C209,204.8,208.2,204.6,208.7,203.7Z" transform="translate(-41 -120.6)"/><path class="cls-15" d="M201.9,283V259.1c0-.2,0-.3.1-.4l.5-.3c0,.8.2,1.6.2,2.4V283Z" transform="translate(-41 -120.6)"/><path class="cls-17" d="M55,136.3H43l6.9-.7,4.2-.7H55Z" transform="translate(-41 -120.6)"/><path class="cls-17" d="M43,245.6v0Z" transform="translate(-41 -120.6)"/><path class="cls-48" d="M173.5,189.5v.7c1.3.9,2.8.1,4.2.5s-.1,1.6-1,2c-3.4,1.5-4.2,3.6-2.5,6.9.3.7,1.5,1.1.5,2.1h-2.3a48.7,48.7,0,0,1-5.4-.1c-1.6-2.2.5-4.1.4-6.3-.6-13.5-.5-26.9-.5-40.4,0-4.3-.2-8.6-.2-13a8.7,8.7,0,0,1,1-4.7c1.3-1.4,2.8-.9,4.3-.2,0,15.9-.1,31.9,0,47.8C172,186.4,173,188,173.5,189.5Z" transform="translate(-41 -120.6)"/><path class="cls-49" d="M172,137.1h-3.8c-5.7.9-5.7,5-5.6,9.5.2,12.6,0,25.1,0,37.6,0,5.6-.2,11.2.8,16.7a1.3,1.3,0,0,1-1,.9c-1.9.2-2.4-1-2.4-2.5V141.5a19.3,19.3,0,0,1,.2-4.8c3.9-1.4,7.8-2.4,11.8-.4Z" transform="translate(-41 -120.6)"/><path class="cls-50" d="M172,136.3H160.7a.8.8,0,0,1-1.3,0c.6-.5,1.2-1.4,1.8-1.4,3.8-.1,7.6.1,11.5.2A7.5,7.5,0,0,0,172,136.3Z" transform="translate(-41 -120.6)"/><path class="cls-51" d="M158.5,202.9h.7c4.4,1,8.8.1,13.1.5a1.5,1.5,0,0,1,1,.9c.8,2.4.4,4.9.4,7.3,0,4.6-.9,5.3-5.6,4.6-1.8-1.2-3.8-1-5.8-1-20.2,0-40.3.1-60.5,0-1.4-2-.3-4.3-.7-6.4s1.6-.1,1.2-1.5-.2-4.7-.3-7,.3-4.7,3.4-5.2,1.3-3,2.5-4.2a4.1,4.1,0,0,1,1.1-.7c3.1-.7,4.4.6,4.1,3.7a68.9,68.9,0,0,0,.2,7.9c.4.5.7-.3.3,0s-.3.1-.3-.2c-.3-3.1-.1-6.1-.2-9.2,0-.8.1-1.5,1.2-1.5,1.6,1.9.8,4.2,1,6.3s-.3,3.2.5,4.7,2.9.7,4.3.7H154A17.1,17.1,0,0,1,158.5,202.9Z" transform="translate(-41 -120.6)"/><path class="cls-52" d="M159.4,136.3h1.3v61.5c0,1.6-.7,3.8,2.3,3.6.1.2.2.3.1.5s-.1.2-.1.2h-3.7Q159.3,169.3,159.4,136.3Z" transform="translate(-41 -120.6)"/><path class="cls-53" d="M158.4,201.4a2.2,2.2,0,0,0,.1.8,2,2,0,0,1-2.4.8H118.3c-2.6,0-4.3-.6-3.5-3.6,9.9,1.8,20,.5,30.1.9h9c2.7-.8,1.8-3.2,1.8-5,.3-17.8.2-35.7.2-53.6,0-1.7-.3-3.5.8-5a.9.9,0,0,1,1.3-.1c.2,20.3,0,40.6.1,60.9C158.1,198.7,157.8,200.1,158.4,201.4Z" transform="translate(-41 -120.6)"/><path class="cls-54" d="M157.7,136.3H157l-.7.2-38.1.3c-15.4.1-30.7-.3-46,.1H70.9a2,2,0,0,1-1.6-1,.8.8,0,0,1,0-1.1h89.1v1.4C158.2,136.7,158,136.7,157.7,136.3Z" transform="translate(-41 -120.6)"/><path class="cls-55" d="M157.7,136.3h.7v65.1c-.2-1.4-.6-2.8-.7-4.3Z" transform="translate(-41 -120.6)"/><path class="cls-56" d="M157,202.9l1.5-.7v.7a12.5,12.5,0,0,1-3.1.7h-38a10.8,10.8,0,0,1-3.1-.7c2.5-.7,5.1-.3,7.7-.3C133.7,202.7,145.3,202.2,157,202.9Z" transform="translate(-41 -120.6)"/><path class="cls-57" d="M67.8,135.6V188a15.6,15.6,0,0,1-10,0,4.5,4.5,0,0,1-.5-2.8c0-16.1-.1-32.2,0-48.2.3-2,1.8-2,3.1-1.7S65.3,135.4,67.8,135.6Z" transform="translate(-41 -120.6)"/><path class="cls-58" d="M58,136.3v51.6a.9.9,0,0,1-1.4.1V134.8h.7C57.8,135.2,57.6,135.9,58,136.3Z" transform="translate(-41 -120.6)"/><path class="cls-59" d="M69.3,134.8v.8a7.7,7.7,0,0,1,1,4.2v44.3a7,7,0,0,1-.5,3.2,1.4,1.4,0,0,1-1.3.7c0-16.3,0-32.6.1-48.9A22.6,22.6,0,0,1,69.3,134.8Z" transform="translate(-41 -120.6)"/><path class="cls-60" d="M58,136.3l-.7-1.4,10.5.7-6.4.5Z" transform="translate(-41 -120.6)"/><path class="cls-61" d="M68.5,188h.8c0,.3.1.5.1.7a1.4,1.4,0,0,1-1.1.5c-3.7-.2-7.5.3-11.2-.3a3.5,3.5,0,0,0-.5-.8H68.5Z" transform="translate(-41 -120.6)"/><path class="cls-31" d="M201.2,190.3h1.3l-.6,12c-1.9-.8-4-.2-6-.4s-1.3-1.7-1.1-2.7c.4-2.8-.4-5.8.8-8.5C197.5,190.4,199.4,191,201.2,190.3Z" transform="translate(-41 -120.6)"/><path class="cls-62" d="M202.8,203a.6.6,0,0,0,0,.6,5,5,0,0,1,.9,3.2c.1,11,.1,22.1,0,33.1a4.2,4.2,0,0,1-.5,2.2,1.1,1.1,0,0,1-1.2.7,4.2,4.2,0,0,1-.8-1.2c-.6-12.1-.2-24.1-.2-36.2a2.9,2.9,0,0,1,.9-2.3Z" transform="translate(-41 -120.6)"/><path class="cls-63" d="M201.9,203.1v38.7a.8.8,0,0,1-1.2-.3,7,7,0,0,1-.5-4c0-10.6-.1-21.3,0-31.9a6.8,6.8,0,0,1,.2-1.4,4.4,4.4,0,0,1,.8-1.1Z" transform="translate(-41 -120.6)"/><path class="cls-64" d="M195.2,201.4l6.7.8H172.7c-.2-.1-.3-.3-.2-.4s.1-.3.2-.3H175a3.6,3.6,0,0,1,2.6-1.1c5-.1,10-.1,14.9,0A3.9,3.9,0,0,1,195.2,201.4Z" transform="translate(-41 -120.6)"/><path class="cls-65" d="M201.2,203.1v.6c-1.9,1.5-4.1,1-6.1,1.1-7.1-.1-14.2.5-21.2-.4l-1.2-.7h0c-.2-.2-.3-.3-.2-.5h28.7Z" transform="translate(-41 -120.6)"/><path class="cls-66" d="M172.8,203.1a1.3,1.3,0,0,0-.1.6l-13.5-.8Z" transform="translate(-41 -120.6)"/><path class="cls-67" d="M172.7,201.4v.7H163v-.7h0a2.7,2.7,0,0,1,3.7,0Z" transform="translate(-41 -120.6)"/><path class="cls-68" d="M201.2,190.3l-6,.7a26.7,26.7,0,0,1-17.2,0l-4.5-.8Z" transform="translate(-41 -120.6)"/><path class="cls-69" d="M202.6,242.6c.1-13,.1-26,.2-39h.6a3,3,0,0,1,.8,2v33.4c0,1.4.3,3-.8,4.2h-.8c-.1-.2-.2-.3-.1-.5S202.6,242.6,202.6,242.6Z" transform="translate(-41 -120.6)"/><path class="cls-4" d="M203.5,205.2a7.6,7.6,0,0,1-.1-1.5h5.3l.7,1.5-4.5.7C204.3,206,203.9,205.6,203.5,205.2Z" transform="translate(-41 -120.6)"/><path class="cls-30" d="M98.5,282.3c-3.5.2-7.1.5-10.6.5-.4,0-1.2-1.3-1.3-2.1a29,29,0,0,1,0-5.1c.1.1.4.3.4.5.3,1.9-.1,5,.9,5.5s4.5.5,6.9.6Z" transform="translate(-41 -120.6)"/><path class="cls-70" d="M173.5,244.1H105.4l-4.9-.2a32.9,32.9,0,0,1,4.4-.5l68.6-.2.2.5Z" transform="translate(-41 -120.6)"/><path class="cls-71" d="M173.4,242.7H101.5c-.2-.6-.1-1,.4-1.2a6.8,6.8,0,0,1,3.7-.6c21.9,0,43.7-.1,65.6,0l1.4.3.6.4.4.5A2.5,2.5,0,0,1,173.4,242.7Z" transform="translate(-41 -120.6)"/><path class="cls-72" d="M57.1,188.8l12.3-.2c1.3-1.2,3-.9,4.6-.9H99.7c4.6.2,9.3-.4,13.9.3a1.8,1.8,0,0,1,.9,1,2,2,0,0,1-.1,1.3c-2.4.2-4.8-.4-7.2.1s-4.5.6-6.4-.9H57.4Z" transform="translate(-41 -120.6)"/><path class="cls-73" d="M202.6,242.6a1.6,1.6,0,0,1,0,.7h.1c-4.9.9-9.9.3-14.8.4s-9.7.4-14.5-.3v-.2c0-.2-.1-.3-.1-.5v-.2a4.8,4.8,0,0,1,3.5-.9h21.1a7,7,0,0,1,3.8,1.1Z" transform="translate(-41 -120.6)"/><path class="cls-74" d="M101.5,208.2v6.7a.8.8,0,0,1,.4.7,1.3,1.3,0,0,1-.3.8.8.8,0,0,1-.8,0V192.5a.9.9,0,0,1,1.2.4C102.4,198,102.8,203.1,101.5,208.2Z" transform="translate(-41 -120.6)"/><path class="cls-75" d="M101.5,192.5h-.7v-3h6.7c.4.4,1.2.6.7,1.5h.1C106.1,192,104,193,101.5,192.5Z" transform="translate(-41 -120.6)"/><path class="cls-76" d="M100.8,216.4h.7l.4.4c1.2,3.4.5,7,.6,10.4,0,.4-.1.8-.1,1.2a5.4,5.4,0,0,1-.5,1.1,1,1,0,0,1-1,.3Z" transform="translate(-41 -120.6)"/><path class="cls-77" d="M100.9,229.8h.6l.4.4a6.4,6.4,0,0,1,.6,1.8q.1,3.8,0,7.5a3.7,3.7,0,0,1-1,2.3v.8Z" transform="translate(-41 -120.6)"/><path class="cls-78" d="M84.9,243.2H70a.8.8,0,0,1,.4-1c2.7-1,5.6-.3,8.3-.5s3,.4,4.2-.8l.3-1.3c.1-10.2-.1-20.5.1-30.7,0-1.5-.8-3.6,1.6-4.4Z" transform="translate(-41 -120.6)"/><path class="cls-79" d="M84.9,204.4a27.6,27.6,0,0,0-.6,4c-.1,10.9,0,21.8,0,32.7a.9.9,0,0,1-1.2-.4c-.9-1.6-.6-3.4-.6-5.1-.2-9.9.3-19.9-.3-29.8a6.8,6.8,0,0,1-.2-1.4l2.9-.7Z" transform="translate(-41 -120.6)"/><path class="cls-58" d="M56.6,204.4l1.4-.7a4.5,4.5,0,0,1,1.2,3.4c0,10.7.1,21.3-.1,31.9a5.4,5.4,0,0,1-.4,2.2,1.6,1.6,0,0,1-1,.8c-1.8-2,0-4.7-1.1-6.9Z" transform="translate(-41 -120.6)"/><path class="cls-80" d="M57.3,241.8H58c3.1-1.9,6.5-.8,9.8-1l1.3.3.6.3.5.5c-.1.2-.1.4-.2.6v.6H56.7a4.9,4.9,0,0,0-.1-1.2C56.8,241.5,57,241.5,57.3,241.8Z" transform="translate(-41 -120.6)"/><path class="cls-81" d="M57.3,241.8h-.7v-6.8C56.8,237.4,57.1,239.6,57.3,241.8Z" transform="translate(-41 -120.6)"/><path class="cls-82" d="M82,204.4h.8c.8,5.5.1,11,.3,16.4a24.9,24.9,0,0,0-.1,7.7,3.4,3.4,0,0,1-.1,2,74.5,74.5,0,0,0-.1,8.2c0,2.2-1,3.3-3.2,3.1s-6.2.8-9.1-.7c-.9-1.2-.8-2.6-.8-3.9V207.9c0-1.5,0-3,1.1-4.2Z" transform="translate(-41 -120.6)"/><path class="cls-83" d="M70.8,203.7v37.4a.6.6,0,0,1,.2.5c0,.2,0,.4-.1.4a.5.5,0,0,1-.8-.2H70c-1.1-1.2-1-2.7-1-4.2V207.9c0-1.4-.1-3,.9-4.2h.9Z" transform="translate(-41 -120.6)"/><path class="cls-81" d="M68.5,241.8H58V203.7H69.3a1.7,1.7,0,0,1,0,1.4c-.1,10.8,0,21.6,0,32.4C69.2,239,69.6,240.5,68.5,241.8Z" transform="translate(-41 -120.6)"/><path class="cls-84" d="M69.3,204.4v-.7h.6c0,12.7.1,25.4.1,38.1h-.7c-.8-3.9-.4-7.9-.3-11.8C69,221.5,68.5,213,69.3,204.4Z" transform="translate(-41 -120.6)"/><path class="cls-2" d="M154,266.5v15.7h0l-.7.4c-7.9.6-8,.6-7.9-7.2.1-5.2-.5-10.4.3-15.6,2.8,1,6.5,1.4,2.8,5.8-.5.6,1.7,3.4,2.6,5.1.3-.8.9-1.6.8-2.3S152.3,266.1,154,266.5Z" transform="translate(-41 -120.6)"/><path class="cls-85" d="M145.7,259.8c0,6,.2,12.1,0,18.1-.2,3.3.6,4.9,4.2,4.4a27.7,27.7,0,0,1,4.1-.1v.7c-9,.2-9,.2-9-8.7V258.3A10.1,10.1,0,0,1,145.7,259.8Z" transform="translate(-41 -120.6)"/><path class="cls-2" d="M154,262v3l-2-1.2Z" transform="translate(-41 -120.6)"/><path class="cls-86" d="M173.4,243.4h29.3v.8H173.5C173.5,243.8,173.4,243.6,173.4,243.4Z" transform="translate(-41 -120.6)"/><path class="cls-87" d="M135.5,123.7c-3.4,0-6.8-.1-10.2,0l-9.7.6c-.8,0-1.7-.7-2.6-1.1a6.2,6.2,0,0,1,2.4-1h20.1Z" transform="translate(-41 -120.6)"/><path class="cls-4" d="M209.4,205.2c4.4-1.5,5.3-.9,5.3,3.4v40.8c0,5.2,0,5.2-5.3,5.2.1-2.2.2-4.3.2-6.5-.1-8.6-.3-17.3-.3-26,0-3.5.6-7.1.6-10.6A44.6,44.6,0,0,0,209.4,205.2Z" transform="translate(-41 -120.6)"/><path class="cls-88" d="M203.5,205.2l1.4.7c0,11.3.1,22.6,0,33.9,0,1.1-1,2.3-1.5,3.5C203.4,230.6,203.4,217.9,203.5,205.2Z" transform="translate(-41 -120.6)"/><path class="cls-89" d="M166.7,201.4H163c-.5-4.2-1.4-8.4-1.5-12.6-.1-15.5,0-31,0-46.6,0-5.1,0-5.1,5.2-5.1h1.5v41c.1,6.2.3,12.3.2,18.5C168.3,198.2,167.3,199.8,166.7,201.4Z" transform="translate(-41 -120.6)"/><path class="cls-2" d="M178,191h17.2c2.1,3.4.4,6.9,0,10.4H175a6,6,0,0,1-1.6-8.6c.5-.6,1.6-.6,2.5-.9Z" transform="translate(-41 -120.6)"/><path class="cls-90" d="M101.5,215.6v-.7a22.9,22.9,0,0,1,3.6-.7h59.8c1.1,0,2.2.9,3.3,1.4-1.3,1.4-3,1.1-4.6,1.1H106.1C104.5,216.7,102.8,216.9,101.5,215.6Z" transform="translate(-41 -120.6)"/><path class="cls-91" d="M101.5,215.6h66.7c3.9.8,5-1,4.6-4.6a59.3,59.3,0,0,1-.1-7.3h.7c1.7,4.5,2.5,9-.6,13.3a10.9,10.9,0,0,1-4,.4H104.2a3.5,3.5,0,0,1-2.7-1h0Z" transform="translate(-41 -120.6)"/><path class="cls-92" d="M101.5,192.5l6.8-1.5a14.2,14.2,0,0,1-.2,2.9c-.4.8-1.3,2.2-1.9,2.2-2.9-.2-3.3,1.3-3.2,3.6s0,5.5-.1,8.3l-1.4.2Z" transform="translate(-41 -120.6)"/><path class="cls-93" d="M114.2,190.2v-.7c2.4,2,2.7,5.8.8,9.7-.4,2.6,1,3,3.3,3h34.8a17.8,17.8,0,0,1,3.9.7H114.3c-.1-4-.1-8-.1-11.9-.2-.2-.3-.4-.2-.5Z" transform="translate(-41 -120.6)"/><path class="cls-94" d="M114.2,190.2v.8c-.3,3.7-.7,7.4-1.1,11.1h-.4a51.5,51.5,0,0,1,.1-6.8c.4-3.6-1.1-4.9-4.6-4.3a10.1,10.1,0,0,0-.7-1.5Z" transform="translate(-41 -120.6)"/><path class="cls-95" d="M115,199.2c-.3-3.2-.5-6.5-.8-9.7v-.8c-1.9-.8-3.9-.1-5.9-.4s-4.3,0-6.4-.6-.7-2.3-.4-3.4,1.3-4.5,1.9-6.8.7-2.9,2.5-2.7,2.7,1.7,2.9,3.4-.5,3.8,1.1,5.6c1.7-1.9,1.4-4.2,1.7-6.3s.5-4.9,2.4-6.9,1.6-3.8,1.1-6-.8-1.9-.5-2.9.8-3,2.5-2.9,1.4,1.8,1.3,3.1.5,2.7.5,4,.6,3.1,2.7,3.8a5.9,5.9,0,0,1,3.7,8,3.1,3.1,0,0,0,1.7.7c4,1.1,4.9.3,4.1-3.6s-1.6-5.1-.1-7.6.9-2.6,2.5-2.5,2.1,1.7,2.4,3c.6,3.2-1.4,6-1.2,8.7,3-1.8,3-6.9,7.5-8,1.4-.3,2.6-.9,3.5.8.9,6,.3,12,.5,18,.1,3.1.7,6.2.6,9.3s.2,3.8-1.8,4.9c-8.7,0-17.3.1-25.9-.1C117.7,201.3,116.3,199.9,115,199.2Z" transform="translate(-41 -120.6)"/><path class="cls-96" d="M145,201.4c.2-2.2.7-4.4.7-6.5-.2-8.8-.5-17.6-.7-26.4a2.7,2.7,0,0,1-.9-2.4c.8-4.5-.3-9.1.3-13.7a44.4,44.4,0,0,0-.4-11.5c-.2-1.9.2-3.2,1.6-4.2s2.7-1.1,3.9.4,2.9-.6,4.2.3a1.8,1.8,0,0,1,.8.9c-.2,7.9.5,15.8.8,23.7a5.2,5.2,0,0,1,.2,1.1,64.4,64.4,0,0,0-.5,10.7,11,11,0,0,1,.2,1.8,28.9,28.9,0,0,0,0,7.2c-.1,6.2.8,12.5-1.2,18.6Z" transform="translate(-41 -120.6)"/><path class="cls-97" d="M154,201.4c.2-5.1.5-10.3.6-15.4a12.8,12.8,0,0,0-.6-3.3c.2-2.5,1.8-4.8.7-7.5l-.7-.7a19.7,19.7,0,0,0,.7-12c-.4-8.2,1.8-16.5-.7-24.7-.5-.4-1.4-.3-1.5-.9s.6-.9,1.2-.9,2.2-.3,3.3.3h0v61.5C157,200,157,201.9,154,201.4Z" transform="translate(-41 -120.6)"/><path class="cls-98" d="M157,136.3h-2.9a4.5,4.5,0,0,0-.1,1.4,18.7,18.7,0,0,1-3.2.8,2.7,2.7,0,0,1-1.7-.6l-2.4-1.3c-.6,1.2-1.8,2.4-1.8,3.6,0,4,.4,8.1.4,12.1s-.2,10.7-.3,16.1a8.8,8.8,0,0,0-5.7,4.3c-.3.7-1,1.1-1.4,1.7s-2.4,2.8-3.9,4.8c.1-2.6.3-5,.4-7.5,0-.1.3-.2.3-.2-.2-2-.4-4-.7-6a2.4,2.4,0,0,0-1.2-.1c-.6,2-1.5,3.9-1.6,5.9s1.3,4.2,1.1,6.3-1.4,3.4-3.9,2.2-2.5-.4-3.6-1-1.4-1.9-1.1-2.3c1.8-3,.2-5.8-3.4-6.3a3.5,3.5,0,0,1-2.2-2.4,81.2,81.2,0,0,1-.7-8.5h-1.3v4.9c.1,2.9,1,5.8-2.4,7.9-1,.6-1,3.1-1.2,4.7s-.2,4.2-.6,6.2-1.3,1.6-2,2.4c-.5-.8-1.4-1.5-1.6-2.4s.1-2.9-.2-4.2a13.2,13.2,0,0,0-2-3.4,13.5,13.5,0,0,0-1.8,2.6c-1.1,3-1.9,6.1-2.8,9.2a1.9,1.9,0,0,1-1.3.7H74.1a4.7,4.7,0,0,1-3.7-2.2c-.7-2.3-.3-4.7-.4-7V141c0-1.6-.3-3.2.8-4.7a10.9,10.9,0,0,1,2.4-.7l27.1.6c4.2,0,8.4-.6,12.6-.6h40.2A26.6,26.6,0,0,1,157,136.3Z" transform="translate(-41 -120.6)"/><path class="cls-99" d="M69.3,187.9V135.6l.7.7c.7,1.3.4,2.7.4,4.1,0,15.7-.1,31.3.1,47a.8.8,0,0,1-1.2.6Z" transform="translate(-41 -120.6)"/><path class="cls-100" d="M70,188V136.3h.8v49.4a1.7,1.7,0,0,1,.2,2.2A.8.8,0,0,1,70,188Z" transform="translate(-41 -120.6)"/><path class="cls-101" d="M70,188h.8c1.6-1.1,3.4-.2,5.1-.2H99.4c.6.2.8.5.6,1H69.4a1.3,1.3,0,0,1-.1-.6Z" transform="translate(-41 -120.6)"/><path class="cls-102" d="M201.9,242.6H173.5v-.6a3,3,0,0,1,1.9-1c7.3-.2,14.6-.1,22-.1a5.2,5.2,0,0,1,3.8,1h.7Z" transform="translate(-41 -120.6)"/><path class="cls-103" d="M195.2,203.7h6v.7c-.9,4.2-.3,8.4-.4,12.6-.1,7.1,0,14.1,0,21.2,0,1.2.7,2.9-1.4,3.2s-3.9-1.5-3.9-4.6c.2-9.7-1.1-19.3.2-28.9C195.9,206.4,194.1,205.2,195.2,203.7Z" transform="translate(-41 -120.6)"/><path class="cls-104" d="M198.2,241.1c2.6.2,2.2-1.7,2.2-3.3,0-9.8,0-19.6.1-29.5a17.8,17.8,0,0,1,.7-3.9v37.4H175c-.7-1.8-1.6-3.8,1.9-2.5s4.6.6,7,.6C188.7,240.1,193.5,239.4,198.2,241.1Z" transform="translate(-41 -120.6)"/><path class="cls-82" d="M198.2,241.1c-4,0-7.9.2-11.9-.1s-7.7,1.4-11.3-1.4v2.2h-1.6c-1.9-3.3-.5-7-1-10.5a2.2,2.2,0,0,0-.6-1.5c-1.1-.8-2.8-.3-3.9-1.4s-.9-4.6-.9-7,.3-2.7,2-3.1a4,4,0,0,1,1.1,0c-.4-.1-.9-.1-1.2-.4.5-2.3,2.8-.3,3.8-1.5.2-4.2.5-8.5.7-12.7h21.8c1.4,2,1.5,4.1,1.4,6.5-.3,9.5-.2,19.1-.2,28.6C196.4,239.6,197.6,240.3,198.2,241.1Z" transform="translate(-41 -120.6)"/><path class="cls-105" d="M101.5,241.8v-2.2c.4-.5.8-1.1,1.5-.8,3.7,1.7,7.6,1.1,11.4,1.1,17.7.1,35.4-.1,53,.1,3,.4,3.6-1.2,3.5-3.8s-1.6-3.8,1.5-4.3c1.2,3.3.7,6.6.3,9.9Z" transform="translate(-41 -120.6)"/><path class="cls-106" d="M172.7,241.8l-.7-9.7-1.2-.5H109.3c-1.6,0-4.1,1.1-4.7-1.9,1.4-1.1,3.1-.9,4.7-.9h55.3c3,0,6-.3,8.8,1v11.9h-.7Z" transform="translate(-41 -120.6)"/><path class="cls-107" d="M100,188.6V188a18.9,18.9,0,0,1,8.2,0l6,.7Z" transform="translate(-41 -120.6)"/><path class="cls-108" d="M169,217.9h3.6c-4.6.1-5.5,2.5-4.4,6.4a18.7,18.7,0,0,1,0,4.1c-1.3,1.1-2.8.7-4.3.7H104.7a4.4,4.4,0,0,1-3.2-.8v-12h2.3c1.3.7,2.7.4,4,.4H164C165.7,216.8,167.6,216.5,169,217.9Z" transform="translate(-41 -120.6)"/><path class="cls-109" d="M173.4,229.9H104.5a2.2,2.2,0,0,1-3,0h0v-.7a4.6,4.6,0,0,1,2.6-.3h66.1a4.3,4.3,0,0,1,2.5.3Z" transform="translate(-41 -120.6)"/><path class="cls-110" d="M172.7,229.1H101.5v-.7h66.7Z" transform="translate(-41 -120.6)"/><path class="cls-111" d="M168.2,241.1c-18.2,0-36.4.1-54.5-.1-4.1,0-8.1-.9-12.2-1.4v-8.2c2.5-1.4,5.1-.1,7.6-.3a78.5,78.5,0,0,1,8.4-.1,28.5,28.5,0,0,0,7.1.4h25c4.4-.1,8.8.3,13.2.1s7.1,2,6.4,7.2A4.3,4.3,0,0,1,168.2,241.1Z" transform="translate(-41 -120.6)"/><path class="cls-112" d="M118,231.4H101.5v-1.5h3a29.7,29.7,0,0,0,4.3.7h62l1.1.2c.1,0,0,.4.1.6a5.8,5.8,0,0,1-2.5.9c-16.9-1.1-33.9-.2-50.8-.6A1.5,1.5,0,0,1,118,231.4Z" transform="translate(-41 -120.6)"/><path class="cls-113" d="M70.8,241.8v-.7c2.2,0,4.5-.2,6.7,0s4.9-.7,4.6-4.4c-.2-2.2.4-4.6.7-6.8,1,3.7-.4,7.5.7,11.2h.8v.7A47,47,0,0,1,70.8,241.8Z" transform="translate(-41 -120.6)"/><path class="cls-114" d="M70.8,241.8H84.3l-14.3.7a2,2,0,0,1,.1-.7Z" transform="translate(-41 -120.6)"/><path class="cls-115" d="M83.5,241.1c-.2-3.8-.5-7.5-.7-11.2v-1.5a13.1,13.1,0,0,1,0-6.8V204.4a26.6,26.6,0,0,1,.7,3.9Z" transform="translate(-41 -120.6)"/><path class="cls-116" d="M69.3,204.4v37.4h-.8c0-11.1,0-22.3.1-33.5A17.8,17.8,0,0,1,69.3,204.4Z" transform="translate(-41 -120.6)"/><path class="cls-113" d="M82.8,221.6v0Z" transform="translate(-41 -120.6)"/><path class="cls-117" d="M169,217.9l-23.7-.5-8.5-.2H107.7a17.8,17.8,0,0,1-3.9-.7h68.9Z" transform="translate(-41 -120.6)"/><path class="cls-118" d="M108.2,188H70.8v-2.2c2.7.5,5.5,1.4,8.2,1.4,7.5.2,15,.1,22.5.1Z" transform="translate(-41 -120.6)"/><path class="cls-98" d="M154,137.8c3.5,3.1,2,7.2,2.2,10.9a81.7,81.7,0,0,1,0,9.9c-.1,1.3-1,2.6-1.5,3.9-.2-3.6-.8-7.2-.7-10.8S151.9,142.4,154,137.8Z" transform="translate(-41 -120.6)"/><path class="cls-98" d="M154.7,162.5a17.6,17.6,0,0,1,1.5,3.5,38.8,38.8,0,0,1-.1,6.8c-.1.6-1.4,1.1-2.1,1.7C154.2,170.5,154.5,166.5,154.7,162.5Z" transform="translate(-41 -120.6)"/><path class="cls-98" d="M154.7,175.2c3.6,2.9-.5,5-.7,7.5C154.2,180.2,154.5,177.7,154.7,175.2Z" transform="translate(-41 -120.6)"/><path class="cls-119" d="M118,231.4h54v.7a43.4,43.4,0,0,0,0,5.1c.3,3-.7,4.4-3.8,3.9a7.5,7.5,0,0,0,0-1.5c-.5-2.4-.7-6.8-1.7-7-2.9-.5-6.6-2.1-9.2,1.2a1.3,1.3,0,0,1-1.3.2c-3.7-3.6-7.9-1.6-12-1.3-1.8.1-3.5-.5-5.3-.6H121.5A21.7,21.7,0,0,1,118,231.4Z" transform="translate(-41 -120.6)"/></svg>